<svg version="1.1" xmlns="http://www.w3.org/2000/svg" viewBox="0 0 323.1503933047343 498.1050073168078" >
  <!-- svg-source:excalidraw -->
  
  <rect x="0" y="0" width="323.1503933047343" height="498.1050073168078" fill="#ffffff"></rect><g stroke-linecap="round" transform="translate(41.172600532408296 10) rotate(0 119.11689597887192 99.25723108405685)"><path d="M38.24 25.3 C38.24 25.3, 38.24 25.3, 38.24 25.3 M38.24 25.3 C38.24 25.3, 38.24 25.3, 38.24 25.3 M17.2 60.14 C27.22 49.32, 35.4 38.25, 56.74 16.22 M18.2 61.36 C27.04 50.49, 37.2 39.38, 56.02 15.73 M0.56 90.89 C21.95 67.56, 43.82 45.79, 75.01 8.3 M1.87 91.1 C17.74 72.73, 34.61 53.68, 75.82 8.03 M2.02 101.53 C28.29 75.74, 52.04 44.85, 81.72 12.27 M3.94 102.22 C22.43 79.32, 40.98 57.78, 82.21 11.58 M3.83 112.43 C24.7 90.5, 46.28 65.59, 95.05 10.88 M4.2 113.67 C28.32 87.18, 52.75 60.09, 93.73 11.27 M4.08 123.11 C43.02 78.32, 85.38 32.15, 104.55 8.85 M5.67 125.53 C43.32 81.35, 80.04 37.4, 105.48 8.13 M11.12 132.09 C46.6 89.26, 86.49 44.53, 119.47 3.83 M8.82 131.1 C45.89 88.78, 85.61 45.34, 121.11 2.66 M13.28 140.94 C53.55 92.46, 92.85 48.44, 128.56 5.33 M12.93 139.22 C44.22 107.07, 74.85 72.93, 130.45 3.91 M18.76 144.23 C52.21 107.11, 89.07 65.49, 138.46 4.51 M17.86 146.44 C67.8 90.16, 114.77 34.61, 139.61 5.58 M20.62 153.8 C55.45 118.68, 85.97 79.33, 150.91 8.11 M22.68 153.57 C63.84 107.05, 104.34 58.79, 149.96 8.13 M26.19 160.84 C72.85 101.93, 124.1 47.46, 158.82 9.25 M25.05 161.85 C72.81 107.49, 120.93 53.86, 159.79 8.08 M33.27 166.83 C61.03 133.57, 92.48 101.41, 166.96 11.82 M32.54 166.81 C59.48 134.54, 87.77 101.93, 165.57 11.83 M40.42 172.04 C79.14 125.71, 115.19 83.24, 172.13 16.33 M39.65 169.98 C83.44 119.51, 126.77 67.99, 173.63 15.38 M47.03 173.26 C94.98 122.35, 143.43 66.5, 182.05 18.14 M45.01 174.73 C88.71 124.53, 129.85 75.43, 180.72 18.69 M51.58 180.43 C100.8 122.17, 153.22 64.58, 187.08 24.42 M52.69 179.94 C82.38 144.75, 113.51 108.32, 188.45 23.25 M60.1 183.25 C114.36 123.45, 165.8 61.36, 197.77 27.13 M59.08 184.27 C92.89 144.13, 127.3 105.25, 196.02 26.69 M67.49 187.5 C112.17 136.99, 156.07 83.09, 204.5 29.65 M67.8 187.11 C114.04 131.95, 159.79 78.95, 204.17 30.01 M76.85 189 C110.68 151.08, 145.05 113.2, 209.15 36.01 M75.05 189.42 C127.25 129.6, 178.52 72.55, 209.3 35.97 M84.48 192.14 C127.6 141.14, 167.43 93.59, 215.68 42.3 M84.6 193 C130.85 138.08, 177.82 84.92, 215.01 42.51 M90.44 194.78 C131.89 150.13, 168.73 103.51, 218.91 47.61 M91.46 195.99 C130.08 151.21, 167.62 107.38, 221.39 46.53 M99.21 196.41 C137.1 154.07, 176.17 112.71, 225.11 53.59 M99.81 198.14 C141.54 150.57, 182.92 102.32, 225.46 53.43 M109.28 196.03 C147.83 155.75, 182.97 117.2, 229.47 58.41 M111.46 196.64 C154.56 149.25, 196.39 100.91, 230.34 59.34 M122.86 199.2 C148.91 168.42, 174.52 135.55, 233.05 68.5 M121.07 197.45 C158.26 157.43, 193.82 114.85, 233.88 67.15 M132.62 198.47 C155.54 173.74, 176.71 146.6, 238.19 78.3 M132.68 198 C162.77 160.92, 193.02 126.25, 237.85 76.47 M141.18 198.16 C173.47 162.33, 203.69 128.27, 242.05 85.26 M142.93 198.23 C177.71 158.25, 210.44 119.12, 239.27 84.91 M159.28 191.57 C177.96 171.21, 196.05 150.45, 242.77 95.61 M158.94 192.02 C179.09 166.8, 202.13 142.02, 244.27 94.05 M173.42 187.33 C196.23 162.4, 216.77 139.75, 243.06 105.62 M173.79 185.83 C192.76 163.84, 212.86 142.57, 243.46 107.03 M185.93 183.83 C202.31 166.51, 219.58 147.26, 233.58 128.81 M186.26 185.33 C202.91 164.95, 220.08 143.91, 235.02 127.96" stroke="#fa5252" stroke-width="1" fill="none"></path><path d="M160.67 6.88 C173.98 9.54, 187.72 17.84, 198.58 25.69 C209.44 33.54, 219.3 43.48, 225.81 53.98 C232.33 64.48, 236.3 76.65, 237.67 88.67 C239.03 100.7, 237.66 114.48, 233.99 126.12 C230.32 137.75, 224.2 149.14, 215.66 158.49 C207.13 167.84, 194.96 175.91, 182.77 182.2 C170.58 188.5, 156.51 193.89, 142.53 196.26 C128.55 198.63, 112.97 198.6, 98.91 196.45 C84.85 194.29, 70.61 189.4, 58.18 183.33 C45.75 177.26, 33.27 169.3, 24.35 160.03 C15.43 150.76, 8.51 139.23, 4.66 127.71 C0.82 116.19, 0.2 102.75, 1.26 90.9 C2.33 79.06, 4.95 67.54, 11.07 56.66 C17.18 45.78, 27.27 33.87, 37.96 25.63 C48.65 17.38, 61.83 11.35, 75.22 7.18 C88.61 3.02, 101.22 -0.3, 118.28 0.64 C135.35 1.57, 165.71 9.29, 177.61 12.78 C189.5 16.27, 190.81 20.33, 189.67 21.57 M140.18 2.08 C154.03 2.37, 169.49 7.57, 181.46 13.75 C193.43 19.93, 203.42 29.89, 212.02 39.16 C220.61 48.43, 228.88 58.14, 233.02 69.37 C237.16 80.59, 238.18 94.62, 236.87 106.53 C235.57 118.44, 231.41 129.83, 225.18 140.82 C218.96 151.81, 209.75 163.98, 199.5 172.48 C189.25 180.98, 176.92 187.54, 163.7 191.82 C150.48 196.11, 134.5 198.22, 120.18 198.18 C105.86 198.14, 90.88 195.73, 77.78 191.59 C64.69 187.45, 52.6 180.91, 41.64 173.34 C30.68 165.78, 18.75 157.01, 12.02 146.21 C5.29 135.4, 2.78 120.39, 1.26 108.51 C-0.25 96.63, -0.89 86.3, 2.92 74.93 C6.73 63.57, 15.4 50.25, 24.14 40.3 C32.88 30.36, 43.67 21.64, 55.36 15.27 C67.05 8.9, 80.16 4.54, 94.27 2.08 C108.39 -0.38, 132.39 0.31, 140.05 0.52 C147.71 0.73, 140.64 1.58, 140.21 3.33" stroke="#000000" stroke-width="2" fill="none"></path></g><g stroke-linecap="round"><g transform="translate(65.00628163672172 118.43877452071501) rotate(0 38.87238503000697 77.52255015963203)"><path d="M-0.5 1.19 C2.15 11.59, 2.04 37.1, 14.78 62.47 C27.51 87.84, 65.7 138.05, 75.91 153.41 M1.44 0.77 C4.02 11.28, 1 37.85, 13.8 63.43 C26.6 89.02, 67.91 138.84, 78.24 154.27" stroke="#000000" stroke-width="1" fill="none"></path></g></g><mask></mask><g stroke-linecap="round"><g transform="translate(108.59401186817172 122.96675243336404) rotate(0 21.897846803666823 79.45088618773272)"><path d="M-1.04 -0.25 C0.72 13.16, 1.99 52.87, 9.63 79.43 C17.28 106, 38.79 145.85, 44.83 159.15 M0.62 -1.43 C2.3 12.23, 1.5 53.74, 8.7 80.7 C15.89 107.66, 37.5 147.08, 43.79 160.34" stroke="#000000" stroke-width="1" fill="none"></path></g></g><mask></mask><g stroke-linecap="round"><g transform="translate(150.30637107369284 122.2270714130334) rotate(0 4.329752678628324 74.66312810222851)"><path d="M-0.9 0.59 C-0.8 15.01, -0.27 60.86, 1.07 85.42 C2.4 109.99, 6.07 137.54, 7.13 147.99 M0.83 -0.14 C1.27 14.58, 1.93 62.05, 3.39 86.99 C4.84 111.92, 8.89 139.06, 9.56 149.47" stroke="#000000" stroke-width="1" fill="none"></path></g></g><mask></mask><g stroke-linecap="round"><g transform="translate(191.6283430740391 121.60810222588168) rotate(0 -13.083872335503258 80.25733483118691)"><path d="M0.32 -0.72 C-1.32 12.98, -4.44 55.98, -8.86 82.98 C-13.28 109.97, -23.12 148.4, -26.21 161.23 M-0.98 1.52 C-2.34 15.35, -2.41 58.15, -6.66 84.43 C-10.91 110.71, -23.05 146.5, -26.48 159.22" stroke="#000000" stroke-width="1" fill="none"></path></g></g><mask></mask><g stroke-linecap="round"><g transform="translate(227.47205251756168 119.80512973882571) rotate(0 -27.075689513169436 75.80035334888342)"><path d="M-0.33 0.8 C-2.94 13.7, -7.19 53.23, -16.27 78.21 C-25.36 103.19, -48.47 138.23, -54.84 150.68 M1.7 0.17 C-1 13.16, -7.54 54.27, -17.13 79.48 C-26.72 104.69, -49.65 139.52, -55.85 151.43" stroke="#000000" stroke-width="1" fill="none"></path></g></g><mask></mask><g stroke-linecap="round"><g transform="translate(264.62561376791996 117.51160490842551) rotate(0 -41.62828679270416 81.24173973039888)"><path d="M0.57 0.3 C-3.6 11.11, -9.89 38.66, -23.87 65.78 C-37.85 92.91, -73.47 146.86, -83.3 163.07 M-0.58 -0.58 C-5.01 10.24, -10.87 39.76, -24.75 66.71 C-38.62 93.66, -74.27 145.42, -83.83 161.11" stroke="#000000" stroke-width="1" fill="none"></path></g></g><mask></mask><g stroke-linecap="round" transform="translate(127.19260579079855 309.6178607029266) rotate(0 35.33990392748751 25.780731941314286)"><path d="M3.43 2.98 C3.43 2.98, 3.43 2.98, 3.43 2.98 M3.43 2.98 C3.43 2.98, 3.43 2.98, 3.43 2.98 M1.86 10.89 C5.22 7.9, 8.06 4.46, 9.07 2.59 M1.86 10.89 C3.43 8.54, 6.19 6.8, 9.07 2.59 M1.6 17.29 C6.91 14.27, 10.61 10.11, 14.72 2.19 M1.6 17.29 C5.25 13.92, 8.73 9.73, 14.72 2.19 M1.33 23.69 C8.25 19.09, 12.73 11.93, 20.36 1.8 M1.33 23.69 C7.74 16.51, 16.19 7.89, 20.36 1.8 M1.73 29.33 C10.02 20.04, 18.87 11.41, 25.35 2.16 M1.73 29.33 C9.31 19.99, 17.67 10.32, 25.35 2.16 M1.47 35.73 C6.82 28.44, 11.73 20.46, 30.99 1.76 M1.47 35.73 C11.68 24.92, 19.44 14.76, 30.99 1.76 M1.21 42.12 C11.4 28.74, 21.05 20.61, 35.98 2.12 M1.21 42.12 C12.33 28.41, 23.81 17.56, 35.98 2.12 M2.91 46.26 C16.66 32.77, 29.29 19.07, 41.62 1.73 M2.91 46.26 C13.88 32.55, 26.89 17.52, 41.62 1.73 M5.28 49.64 C17.7 38, 26.96 21.88, 46.61 2.09 M5.28 49.64 C14.39 38.36, 24.18 26.88, 46.61 2.09 M8.29 52.26 C23.66 34.86, 41.03 11.93, 52.25 1.7 M8.29 52.26 C24.75 33.37, 40.34 15.61, 52.25 1.7 M13.94 51.87 C26.07 36.79, 38.36 25.57, 58.55 0.55 M13.94 51.87 C23.48 40.38, 32.93 28.88, 58.55 0.55 M18.92 52.23 C35.59 34.85, 51.78 16.63, 63.54 0.91 M18.92 52.23 C32.14 36.36, 46.32 21.48, 63.54 0.91 M23.91 52.59 C34.63 41.77, 43.79 32.32, 67.21 2.78 M23.91 52.59 C41.96 32.7, 59.07 13.16, 67.21 2.78 M29.55 52.19 C43.6 36.12, 59.57 18.8, 70.23 5.4 M29.55 52.19 C43.46 36.8, 59.12 21.03, 70.23 5.4 M34.54 52.55 C43.74 39.81, 54.45 31.23, 71.94 9.53 M34.54 52.55 C47.12 38.62, 58.15 26.89, 71.94 9.53 M40.18 52.16 C53.45 36.64, 64.13 24.86, 72.99 14.42 M40.18 52.16 C52.39 38.26, 64.32 25.91, 72.99 14.42 M45.17 52.52 C52.06 44.25, 61.88 33.4, 72.73 20.82 M45.17 52.52 C54.38 41.95, 63.61 32.46, 72.73 20.82 M50.82 52.12 C54.82 45.27, 62.95 38.05, 72.47 27.22 M50.82 52.12 C55.94 46.99, 59.33 43.28, 72.47 27.22 M55.8 52.48 C60.78 45.72, 66.79 40.12, 72.86 32.86 M55.8 52.48 C62.51 45, 68.72 37.03, 72.86 32.86 M60.13 53.6 C65.43 50.18, 67.08 46.4, 70.63 41.52 M60.13 53.6 C64.01 50, 66.76 45.09, 70.63 41.52 M3.11 48.24 C3.11 48.24, 3.11 48.24, 3.11 48.24 M3.11 48.24 C3.11 48.24, 3.11 48.24, 3.11 48.24 M13.28 51.79 C9.29 47.37, 5.1 43.12, 1.21 41.29 M13.28 51.79 C10.74 48.91, 6.2 46.76, 1.21 41.29 M18.93 51.39 C11.82 44.16, 3.8 38.3, 0.81 35.65 M18.93 51.39 C13.11 47.11, 8.78 42.53, 0.81 35.65 M25.33 51.65 C15.78 46.67, 12 40.27, 1.17 30.66 M25.33 51.65 C18.78 45.28, 11.91 40.58, 1.17 30.66 M30.97 51.26 C20.7 45.34, 15.15 35.66, 0.78 25.02 M30.97 51.26 C22.96 45.56, 14.81 38.06, 0.78 25.02 M37.37 51.52 C24.65 41.55, 14.49 32.21, 1.14 20.03 M37.37 51.52 C26.8 42.05, 16.42 33.5, 1.14 20.03 M43.76 51.78 C35.04 44.72, 23.72 32.83, 0.75 14.39 M43.76 51.78 C31.07 39.48, 17.18 28.69, 0.75 14.39 M49.41 51.39 C39.3 44.32, 30.47 33.12, 1.11 9.4 M49.41 51.39 C40.02 42.84, 29.03 33.04, 1.11 9.4 M55.8 51.65 C44.59 37.8, 28.69 27.4, 2.22 5.07 M55.8 51.65 C43.71 40.55, 30.78 29.58, 2.22 5.07 M59.18 49.28 C44.58 39.52, 32.39 24.6, 4.84 2.05 M59.18 49.28 C48.89 39.22, 36.64 29.67, 4.84 2.05 M64.83 48.89 C54.1 40.63, 40.21 27.99, 8.22 -0.31 M64.83 48.89 C47.36 34.75, 32.34 20.17, 8.22 -0.31 M68.96 47.18 C54.95 34.62, 42.75 25.48, 13.87 -0.71 M68.96 47.18 C47.72 27.98, 26.47 10.2, 13.87 -0.71 M70.08 42.85 C54.89 29.54, 38.9 17.98, 19.51 -1.1 M70.08 42.85 C53.24 28.55, 35.92 12.54, 19.51 -1.1 M72.7 39.83 C61.71 31.37, 53.68 22.58, 25.91 -0.84 M72.7 39.83 C57.3 25.1, 39.88 11.65, 25.91 -0.84 M72.3 34.19 C58.16 19.18, 43.41 6.33, 32.31 -0.58 M72.3 34.19 C63.6 26.71, 52.88 17.89, 32.31 -0.58 M72.66 29.2 C60.53 17.39, 44.62 4.74, 37.95 -0.98 M72.66 29.2 C65.2 21.44, 55.55 15.66, 37.95 -0.98 M72.27 23.56 C62.52 13.21, 51.68 4.51, 44.35 -0.71 M72.27 23.56 C65.8 17.68, 57.26 10.98, 44.35 -0.71 M72.63 18.57 C64.31 11.46, 56.45 4.99, 49.99 -1.11 M72.63 18.57 C66.04 13.58, 60.79 8.36, 49.99 -1.11 M71.48 12.27 C64.78 8.4, 59.97 1.13, 56.39 -0.85 M71.48 12.27 C65.88 8.04, 61.83 4.23, 56.39 -0.85 M70.33 5.97 C69.73 5.1, 67.06 3.92, 63.54 0.07 M70.33 5.97 C69.41 5.13, 67.65 3.2, 63.54 0.07" stroke="#fab005" stroke-width="0.5" fill="none"></path><path d="M12.89 0 M12.89 0 C25.13 0.84, 34.73 -0.12, 57.79 0 M12.89 0 C25.33 -0.28, 38.96 1.36, 57.79 0 M57.79 0 C65.28 -1.07, 68.98 5.62, 70.68 12.89 M57.79 0 C64.4 1.66, 70.09 3.8, 70.68 12.89 M70.68 12.89 C70.77 23.14, 69.38 28.71, 70.68 38.67 M70.68 12.89 C71.25 18.63, 70.58 25.17, 70.68 38.67 M70.68 38.67 C70.23 49.21, 65.06 50.2, 57.79 51.56 M70.68 38.67 C69.43 46.31, 67.51 50.43, 57.79 51.56 M57.79 51.56 C41.38 52.2, 25.13 51.06, 12.89 51.56 M57.79 51.56 C41.41 51.56, 25.93 50.77, 12.89 51.56 M12.89 51.56 C2.45 50.77, -1.38 47.74, 0 38.67 M12.89 51.56 C4.39 51.67, -0.18 47.5, 0 38.67 M0 38.67 C0.6 29.86, 1.67 23.76, 0 12.89 M0 38.67 C-0.99 31.57, 0.56 23.87, 0 12.89 M0 12.89 C-0.28 2.98, 3.88 -0.41, 12.89 0 M0 12.89 C1.38 4.57, 3.08 1.1, 12.89 0" stroke="#000000" stroke-width="1" fill="none"></path></g><g stroke-linecap="round" transform="translate(136.8148974632868 270.9029564994936) rotate(0 24.87049014017998 5.899469804512137)"><path d="M35.73 0.36 C40.45 0.84, 45.6 1.85, 47.63 2.88 C49.67 3.91, 49.24 5.24, 47.95 6.56 C46.66 7.87, 44.14 9.89, 39.89 10.78 C35.65 11.67, 27.77 12, 22.46 11.9 C17.15 11.8, 11.68 11.12, 8.03 10.19 C4.38 9.25, 1.24 7.46, 0.55 6.3 C-0.15 5.14, 0.97 4.32, 3.86 3.21 C6.76 2.09, 12.21 -0.15, 17.92 -0.41 C23.63 -0.68, 34.52 1.38, 38.12 1.61 C41.72 1.83, 39.72 1.13, 39.52 0.94 M29.35 -1.4 C34.79 -0.87, 41.48 2.23, 44.68 3.48 C47.88 4.72, 48.45 4.81, 48.56 6.08 C48.67 7.34, 48.5 9.98, 45.34 11.08 C42.19 12.18, 35.12 12.85, 29.64 12.66 C24.16 12.47, 17.34 10.87, 12.47 9.94 C7.59 9.01, 2.26 8.11, 0.4 7.08 C-1.46 6.04, -0.84 4.9, 1.31 3.73 C3.46 2.57, 8.85 0.45, 13.28 0.06 C17.72 -0.33, 25.11 1.34, 27.92 1.4 C30.73 1.46, 30.03 0.39, 30.15 0.43" stroke="#000000" stroke-width="1" fill="none"></path></g><g stroke-linecap="round"><g transform="translate(147.97347558255296 284.177294772069) rotate(0 -0.8676506301094378 12.129159353679256)"><path d="M0.26 -0.33 C-0.05 3.95, -1.76 21.34, -2 25.8 M-1.06 -1.55 C-1.01 2.35, 0.31 19.49, 0.13 23.85" stroke="#000000" stroke-width="1" fill="none"></path></g></g><mask></mask><g stroke-linecap="round"><g transform="translate(175.87758633152907 284.1014562616401) rotate(0 -0.22657084615769918 12.435952140920335)"><path d="M-0.17 0.33 C0.17 4.72, 1 21.52, 1.26 25.42 M-1.72 -0.54 C-1.4 3.6, 0.27 19.58, 0.75 23.78" stroke="#000000" stroke-width="1" fill="none"></path></g></g><mask></mask><g stroke-linecap="round"><g stroke-opacity="0.4" fill-opacity="0.4" transform="translate(160.61620137993077 285.75428968010465) rotate(0 0.7118051841721922 11.116328142911016)"><path d="M-0.32 -1.11 C-0.04 2.62, 1.07 17.99, 0.96 22.06 M1.71 0.92 C1.99 4.84, 0.57 19.93, 0.51 23.34" stroke="#000000" stroke-width="1" fill="none"></path></g></g><mask></mask><g stroke-linecap="round"><g transform="translate(45.17809567784752 135.00999848459196) rotate(0 115.42887944911206 4.3762516579874955)"><path d="M0.4 -1.16 C19.4 0.76, 76.34 10.56, 114.48 10.73 C152.61 10.91, 209.84 1.77, 229.21 -0.1 M-0.85 0.85 C18.03 2.5, 75.2 9.52, 113.96 9.05 C152.72 8.58, 212.14 -0.01, 231.7 -1.98" stroke="#000000" stroke-width="1" fill="none"></path></g></g><mask></mask><g stroke-linecap="round"><g transform="translate(61.98416388938654 165.68117152840466) rotate(0 98.56099410610364 4.004092727362234)"><path d="M0 -0.41 C16.6 1.37, 66.54 9.75, 99.64 9.68 C132.73 9.62, 182.1 0.66, 198.58 -0.79 M-1.46 -1.67 C14.98 -0.19, 65.5 7.38, 98.72 7.68 C131.94 7.98, 181.2 1.57, 197.88 0.11" stroke="#000000" stroke-width="1" fill="none"></path></g></g><mask></mask><g stroke-linecap="round"><g transform="translate(93.81831843036184 191.68464934292751) rotate(0 66.2515557072445 3.7162599646333376)"><path d="M-0.5 -0.61 C11.21 0.67, 48.1 7.42, 70.35 7.36 C92.6 7.31, 122.54 0.2, 133 -0.95 M1.44 1.68 C13.08 3.11, 48.13 8.67, 69.94 8.37 C91.75 8.07, 121.73 1.57, 132.31 -0.13" stroke="#000000" stroke-width="1" fill="none"></path></g></g><mask></mask><g stroke-linecap="round"><g transform="translate(42.76145954984554 111.66758002798338) rotate(0 116.97605207855258 5.61793654221421)"><path d="M-0.95 -0.35 C6.93 1.15, 27.29 6.13, 46.94 8.08 C66.58 10.03, 93.43 11.45, 116.93 11.35 C140.43 11.25, 168.26 9.4, 187.93 7.48 C207.59 5.56, 226.98 1.3, 234.9 -0.14 M0.75 -1.58 C8.6 0.21, 26.77 7.26, 46.54 9.66 C66.3 12.05, 95.74 13, 119.35 12.79 C142.97 12.59, 169.17 10.53, 188.22 8.42 C207.27 6.32, 226.08 1.44, 233.66 0.17" stroke="#000000" stroke-width="1" fill="none"></path></g></g><mask></mask><g stroke-linecap="round" transform="translate(170.38521163836367 454.03295675945833) rotate(0 10.772934926377275 17.036025278674742)"><path d="M6.97 0.76 C6.97 0.76, 6.97 0.76, 6.97 0.76 M6.97 0.76 C6.97 0.76, 6.97 0.76, 6.97 0.76 M3.73 10.44 C5.59 9.27, 8.56 6.84, 12.83 1.09 M3.04 11.08 C5.81 7.64, 8.93 5.63, 12.52 1.49 M1.76 18.58 C7.54 14.47, 11.75 7.83, 15.07 2.17 M3.35 17.47 C7.92 13.42, 10.66 8.45, 16.47 2.58 M3.54 24.62 C9.83 16.67, 13.81 10.73, 20.32 5.84 M4.09 22.64 C9.87 16.55, 14.77 9.17, 18.11 5.15 M6.75 25.22 C9.57 23.34, 13.08 16.1, 22.59 8.95 M4.61 27.8 C9.43 21.83, 13.15 17.43, 20.72 9.29 M4.43 31.8 C11.18 27.33, 15.36 24.3, 22.67 14.72 M6.25 31.88 C12.6 25.61, 19.39 18.32, 22.43 13.08 M10.85 35.32 C12.3 30.24, 14.21 26.41, 23.31 21.76 M9.3 33.31 C12.24 30.65, 14.67 27.04, 20.96 20.12 M4.96 30.87 C4.96 30.87, 4.96 30.87, 4.96 30.87 M4.96 30.87 C4.96 30.87, 4.96 30.87, 4.96 30.87 M11.13 32.4 C8.6 28.69, 7.22 28.71, 1.09 22.25 M11.68 31.71 C7.83 28.34, 3.72 24.44, 1.65 23.42 M16.94 29.67 C14.08 27.28, 9.93 24.2, 2.96 18.09 M15.73 29.53 C11.58 26.96, 8.83 23.14, 1.92 17.51 M19.05 29.16 C14.67 22.6, 10.75 19.78, 4.2 14.12 M18.91 27.44 C13.06 22.77, 8.84 18.11, 2.74 12.81 M20.69 23.24 C15.87 20.07, 11.63 14.39, 4.92 7.43 M21.5 23.14 C15.29 18.05, 10.24 13.02, 2.82 7.69 M21.93 19.15 C16.99 12.17, 8.58 8.4, 6 4.18 M21.93 18.73 C15.82 15.45, 13.15 11.57, 4.76 4.16 M19.13 13.26 C17.15 8.24, 13.4 5.84, 5.54 1.59 M20.67 11.28 C15.45 9.52, 13.43 5.22, 7.75 1.15 M19.35 6.78 C16.61 4.59, 14.76 2.4, 12.11 1.28 M19.48 6.9 C17.59 4.44, 15.36 2.7, 13.13 0.55" stroke="#fd7e14" stroke-width="0.5" fill="none"></path><path d="M6.82 0.94 C8.84 -0.68, 11.52 -0.04, 13.54 1 C15.56 2.04, 17.7 4.18, 18.93 7.18 C20.16 10.17, 20.98 15.21, 20.9 18.95 C20.83 22.68, 20.24 27.02, 18.49 29.59 C16.75 32.16, 12.74 34.2, 10.43 34.37 C8.12 34.54, 6.22 32.94, 4.65 30.6 C3.08 28.26, 1.45 23.88, 1.04 20.32 C0.62 16.77, 1.02 12.69, 2.15 9.28 C3.27 5.87, 6.7 1.21, 7.77 -0.13 C8.84 -1.47, 8.49 0.78, 8.59 1.26 M8.7 -0.71 C10.73 -0.88, 14.67 2.04, 16.56 4.23 C18.45 6.41, 19.39 9.11, 20.03 12.38 C20.66 15.64, 21.06 20.45, 20.4 23.82 C19.73 27.18, 18.13 31.11, 16.03 32.57 C13.92 34.03, 10.37 33.7, 7.79 32.57 C5.21 31.44, 1.65 28.41, 0.56 25.79 C-0.53 23.18, 0.99 20.17, 1.24 16.87 C1.49 13.57, 0.63 9, 2.05 6 C3.47 2.99, 8.62 -0.48, 9.75 -1.18 C10.89 -1.87, 8.66 1.6, 8.86 1.84" stroke="#000000" stroke-width="1" fill="none"></path></g><g stroke-linecap="round"><g transform="translate(180.3203156506463 453.78769844637634) rotate(0 3.2552530605653374 -27.301963497803683)"><path d="M0.14 -1.03 C1.47 -2.14, 7.53 -3.12, 7.06 -5.55 C6.58 -7.98, -1.68 -12.19, -2.69 -15.6 C-3.71 -19.01, 0.92 -22.23, 0.94 -26 C0.96 -29.77, -2.15 -33.26, -2.56 -38.21 C-2.96 -43.15, -1.64 -52.94, -1.5 -55.65 M-1.25 1.05 C0.55 0.63, 9.17 -1.53, 9.35 -4.09 C9.52 -6.64, 1.27 -10.73, -0.19 -14.29 C-1.66 -17.84, 0.7 -21.53, 0.56 -25.42 C0.43 -29.32, -0.87 -33, -1 -37.67 C-1.12 -42.33, -0.12 -50.44, -0.16 -53.42" stroke="#000000" stroke-width="1" fill="none"></path></g></g><mask></mask><g stroke-linecap="round" transform="translate(176.159588081449 445.2146115581845) rotate(0 4.582633749245588 4.865444772780904)"><path d="M0.03 5.33 C0.03 5.33, 0.03 5.33, 0.03 5.33 M0.03 5.33 C0.03 5.33, 0.03 5.33, 0.03 5.33 M3.05 7.95 C4.76 6.46, 4.99 6.05, 7.64 2.67 M3.05 7.95 C4.36 6.55, 6.07 5.18, 7.64 2.67 M5.04 9.45 C5.04 9.45, 5.04 9.45, 5.04 9.45 M5.04 9.45 C5.04 9.45, 5.04 9.45, 5.04 9.45 M7.66 6.43 C6.07 4.73, 4.91 4.16, 3.13 2.49 M7.66 6.43 C6.06 4.83, 4.39 3.69, 3.13 2.49" stroke="#fd7e14" stroke-width="0.5" fill="none"></path><path d="M6.25 1.25 M6.25 1.25 C6.35 1.68, 6.95 2.58, 7.92 3.75 M6.25 1.25 C6.84 2.3, 7.63 3.2, 7.92 3.75 M7.92 3.75 C10.04 3.72, 8.27 6.69, 7.92 6.25 M7.92 3.75 C9.39 6.38, 9.27 4.12, 7.92 6.25 M7.92 6.25 C7.76 6.65, 7.09 7.62, 6.25 8.48 M7.92 6.25 C7.58 6.75, 6.98 7.26, 6.25 8.48 M6.25 8.48 C5.17 11.41, 4.3 10.54, 3.75 8.48 M6.25 8.48 C5.29 8.76, 6.21 9.6, 3.75 8.48 M3.75 8.48 C2.95 7.64, 2.09 6.61, 1.25 6.25 M3.75 8.48 C2.91 7.98, 2.32 7.01, 1.25 6.25 M1.25 6.25 C-1.62 5.28, 0.84 3.02, 1.25 3.75 M1.25 6.25 C1.66 5.06, 0.92 2.95, 1.25 3.75 M1.25 3.75 C1.56 3.37, 2.19 2.9, 3.75 1.25 M1.25 3.75 C1.79 3.05, 2.2 2.74, 3.75 1.25 M3.75 1.25 C4.48 -1.5, 3.14 0.11, 6.25 1.25 M3.75 1.25 C2.85 -0.02, 4.01 -2.17, 6.25 1.25" stroke="#000000" stroke-width="1" fill="none"></path></g><g stroke-linecap="round" transform="translate(125.35658868140513 412.0406935206728) rotate(0 10.772934926377275 17.036025278674742)"><path d="M6.45 0.31 C6.45 0.31, 6.45 0.31, 6.45 0.31 M6.45 0.31 C6.45 0.31, 6.45 0.31, 6.45 0.31 M2.37 10.02 C5.1 9.04, 5.58 5.55, 11.14 0.89 M2.91 10.06 C4.1 8.38, 6.19 6.47, 10.26 1.73 M2.82 16.15 C5.01 13.12, 12.18 8.39, 15.06 1.52 M3.63 15.94 C7.63 12.03, 10.74 7.03, 16.76 1.64 M2.66 21.41 C6.8 16.53, 11.51 9.7, 18.57 4.66 M2.55 21.98 C8.94 16.85, 13.22 10.87, 17.76 4.53 M4.99 25.64 C8.82 23.16, 9.23 17.51, 20.72 10.23 M5.05 26.68 C11.29 20.46, 16.34 13.44, 20.16 9.29 M5.65 30.75 C12.63 25.29, 17.8 17.59, 20.19 13.03 M5.96 30.8 C11.5 25.07, 16.68 18.99, 20.02 13.62 M10.16 33.89 C11.45 30.71, 15.82 26.73, 22.25 18.4 M8.81 32.86 C14.12 29.21, 17.24 24.66, 22.58 18.47 M11.76 35.66 C16.25 30.7, 18.47 28.45, 24.84 24.59 M12.98 35.38 C16.45 31.49, 19.5 28.05, 24.35 22.96 M3.75 29.22 C3.75 29.22, 3.75 29.22, 3.75 29.22 M3.75 29.22 C3.75 29.22, 3.75 29.22, 3.75 29.22 M12.82 31.11 C10.57 30.43, 6.82 25.38, 0.1 22.05 M12.03 31.29 C8.81 28.65, 4.97 24.82, 1.12 20.88 M16.1 29.02 C10.89 24.36, 5.34 21.49, 1.21 18.13 M15.87 29.05 C11.74 26.13, 7.02 21.63, 3.69 17.31 M19.59 27.07 C14.68 21.62, 9.59 15.04, 2.16 13.67 M20.48 27.25 C16.08 24.89, 12.19 19.29, 3.48 13.06 M21.25 23.79 C17.11 18.37, 13.57 15.79, 2.76 9.47 M21.71 23.93 C15.52 17.58, 7.66 12.36, 4.47 8.04 M23.71 17.51 C20.42 14.94, 12.48 13.11, 6.87 3.54 M23.38 19.05 C15.88 14.26, 9.98 7.62, 6.33 3.87 M20.88 11.32 C20.24 8.96, 16.97 9.8, 4.73 -1.63 M21.51 13.86 C16.75 8.47, 11.98 3.05, 7.5 -0.56 M20.85 7.32 C19.56 4.48, 16.64 3.66, 14.42 1.63 M20.9 6.42 C18.48 4.6, 16.34 2.8, 13.62 0.82" stroke="#fd7e14" stroke-width="0.5" fill="none"></path><path d="M6.3 0.48 C8.6 -0.85, 13.23 0.64, 15.4 1.85 C17.57 3.06, 18.34 4.54, 19.33 7.75 C20.31 10.95, 21.54 17.29, 21.34 21.07 C21.14 24.85, 19.96 28.22, 18.12 30.43 C16.28 32.65, 12.67 34.55, 10.29 34.36 C7.91 34.17, 5.41 31.66, 3.84 29.29 C2.26 26.93, 1.1 23.5, 0.83 20.15 C0.55 16.8, 1.05 12.33, 2.18 9.19 C3.31 6.04, 6.76 2.76, 7.62 1.25 C8.48 -0.26, 7.29 -0.17, 7.33 0.11 M9.23 1.76 C11.55 1.13, 14.65 0.82, 16.47 2.21 C18.28 3.6, 19.23 6.47, 20.11 10.09 C21 13.7, 22.35 20.56, 21.78 23.92 C21.2 27.27, 18.92 28.63, 16.66 30.2 C14.4 31.78, 10.37 33.72, 8.2 33.36 C6.04 33, 5.01 30.6, 3.68 28.05 C2.36 25.5, 0.67 21.67, 0.26 18.07 C-0.16 14.46, -0.25 9.53, 1.18 6.41 C2.62 3.28, 7.6 0.44, 8.87 -0.69 C10.14 -1.82, 8.64 -0.76, 8.81 -0.37" stroke="#000000" stroke-width="1" fill="none"></path></g><g stroke-linecap="round"><g transform="translate(135.5268240908623 413.64186314464814) rotate(0 -0.9921071208992203 -20.97604438012314)"><path d="M0.22 0.18 C-1 -0.5, -7.51 -1.59, -7.4 -3.93 C-7.29 -6.27, -0.79 -10.8, 0.89 -13.87 C2.56 -16.95, 2.97 -19.63, 2.66 -22.38 C2.34 -25.13, -1.26 -27.28, -1.01 -30.39 C-0.75 -33.51, 3.21 -39.44, 4.21 -41.08 M-1.12 -0.78 C-2.39 -1.82, -7.91 -3.77, -7.72 -5.75 C-7.52 -7.73, -1.2 -10.02, 0.05 -12.65 C1.31 -15.28, 0.2 -18.64, -0.2 -21.55 C-0.6 -24.46, -3.33 -26.67, -2.34 -30.1 C-1.35 -33.53, 4.94 -40.29, 5.74 -42.13" stroke="#000000" stroke-width="1" fill="none"></path></g></g><mask></mask><g stroke-linecap="round" transform="translate(130.7182370014193 404.2284679966408) rotate(0 4.582633749245588 4.865444772780904)"><path d="M0.03 5.33 C0.03 5.33, 0.03 5.33, 0.03 5.33 M0.03 5.33 C0.03 5.33, 0.03 5.33, 0.03 5.33 M3.05 7.95 C3.5 6.17, 5.66 5.54, 7.64 2.67 M3.05 7.95 C4.81 6.2, 6.03 4.26, 7.64 2.67 M5.04 9.45 C5.04 9.45, 5.04 9.45, 5.04 9.45 M5.04 9.45 C5.04 9.45, 5.04 9.45, 5.04 9.45 M7.66 6.43 C6.92 5.41, 5.89 5.29, 3.13 2.49 M7.66 6.43 C6.01 4.75, 3.97 3.36, 3.13 2.49" stroke="#fd7e14" stroke-width="0.5" fill="none"></path><path d="M6.25 1.25 M6.25 1.25 C6.61 1.93, 6.74 2.15, 7.92 3.75 M6.25 1.25 C6.68 1.85, 6.85 2.21, 7.92 3.75 M7.92 3.75 C8.84 4.7, 9.55 5.55, 7.92 6.25 M7.92 3.75 C8.23 6.96, 8.2 7.05, 7.92 6.25 M7.92 6.25 C7.66 6.76, 6.64 7.65, 6.25 8.48 M7.92 6.25 C7.26 7.01, 6.88 7.81, 6.25 8.48 M6.25 8.48 C3.79 8.7, 6.62 7.82, 3.75 8.48 M6.25 8.48 C4.11 9.43, 2.98 7.68, 3.75 8.48 M3.75 8.48 C3.05 7.64, 2.26 6.91, 1.25 6.25 M3.75 8.48 C3.05 7.88, 2.58 7.4, 1.25 6.25 M1.25 6.25 C-0.49 5.63, 0.13 5.99, 1.25 3.75 M1.25 6.25 C-2.25 5, -0.02 4, 1.25 3.75 M1.25 3.75 C2.24 3.01, 2.68 2.12, 3.75 1.25 M1.25 3.75 C1.65 3.35, 2.46 2.76, 3.75 1.25 M3.75 1.25 C3.86 -1.13, 5.88 0.74, 6.25 1.25 M3.75 1.25 C2.8 2.04, 7.04 -2.18, 6.25 1.25" stroke="#000000" stroke-width="1" fill="none"></path></g><g stroke-opacity="0.7" fill-opacity="0.7" transform="translate(221.65839276563838 403.8932417115145) rotate(0 44.778238015560646 -100.15327025156)" stroke="none"><path fill="#ededed" d="M -2.64,-0.00 Q -2.64,-0.00 -2.65,-1.23 -2.66,-2.46 -2.72,-4.30 -2.78,-6.13 -2.83,-8.03 -2.87,-9.94 -2.90,-11.85 -2.93,-13.76 -2.96,-15.54 -2.99,-17.33 -2.97,-18.60 -2.95,-19.86 -2.92,-21.23 -2.89,-22.59 -2.79,-24.35 -2.69,-26.11 -2.58,-27.97 -2.48,-29.83 -2.52,-30.89 -2.56,-31.96 -2.63,-33.87 -2.70,-35.77 -2.69,-37.12 -2.68,-38.46 -2.90,-40.16 -3.12,-41.86 -3.39,-43.72 -3.67,-45.58 -3.83,-47.75 -4.00,-49.92 -4.06,-51.21 -4.13,-52.50 -4.18,-53.90 -4.22,-55.31 -4.24,-56.68 -4.26,-58.05 -4.27,-59.33 -4.27,-60.61 -4.31,-61.88 -4.35,-63.14 -4.40,-64.50 -4.46,-65.86 -4.50,-67.26 -4.54,-68.66 -4.56,-70.00 -4.58,-71.34 -4.59,-72.65 -4.60,-73.96 -4.62,-75.17 -4.63,-76.38 -4.65,-77.50 -4.67,-78.63 -4.68,-79.70 -4.70,-80.78 -4.69,-82.11 -4.68,-83.45 -4.73,-85.20 -4.79,-86.95 -4.83,-88.84 -4.86,-90.72 -4.89,-92.63 -4.91,-94.54 -4.83,-95.76 -4.75,-96.98 -4.56,-98.30 -4.36,-99.63 -4.15,-100.92 -3.93,-102.21 -3.69,-103.60 -3.45,-104.99 -3.22,-106.31 -2.99,-107.63 -2.79,-108.82 -2.58,-110.01 -2.34,-111.21 -2.09,-112.41 -1.76,-113.67 -1.42,-114.94 -1.08,-116.15 -0.73,-117.36 -0.46,-118.43 -0.20,-119.50 0.06,-120.56 0.33,-121.63 0.65,-122.70 0.98,-123.77 1.58,-125.74 2.18,-127.70 2.54,-128.72 2.90,-129.75 3.62,-131.59 4.34,-133.44 5.25,-135.55 6.16,-137.66 6.81,-139.17 7.46,-140.69 8.24,-142.35 9.02,-144.02 9.91,-145.64 10.80,-147.25 11.76,-148.97 12.72,-150.68 13.64,-152.37 14.56,-154.06 15.53,-155.66 16.50,-157.26 17.34,-158.75 18.17,-160.23 19.22,-161.98 20.27,-163.73 21.24,-165.42 22.21,-167.10 23.23,-168.75 24.26,-170.41 25.12,-171.89 25.99,-173.38 26.79,-174.63 27.60,-175.89 28.47,-177.16 29.34,-178.43 30.00,-179.27 30.67,-180.11 31.88,-181.52 33.09,-182.93 34.44,-184.20 35.79,-185.47 37.17,-186.71 38.55,-187.96 39.97,-189.19 41.39,-190.43 42.72,-191.48 44.06,-192.54 45.15,-193.35 46.24,-194.16 47.24,-194.82 48.23,-195.48 49.30,-196.06 50.36,-196.63 51.62,-197.37 52.89,-198.11 53.78,-198.71 54.67,-199.31 55.84,-200.02 57.00,-200.73 58.17,-201.37 59.33,-202.02 60.45,-202.47 61.57,-202.93 63.02,-203.25 64.47,-203.57 65.56,-203.62 66.65,-203.67 67.77,-203.82 68.89,-203.98 70.04,-204.00 71.19,-204.02 72.35,-204.03 73.52,-204.05 74.70,-204.06 75.89,-204.07 77.05,-204.07 78.22,-204.08 79.65,-203.85 81.08,-203.62 82.24,-203.19 83.40,-202.76 84.48,-202.31 85.56,-201.86 86.47,-201.20 87.37,-200.55 88.33,-199.84 89.29,-199.13 90.14,-198.29 90.99,-197.45 91.73,-196.59 92.48,-195.74 93.23,-194.76 93.99,-193.79 94.46,-192.63 94.94,-191.46 95.13,-189.97 95.33,-188.48 95.31,-187.22 95.29,-185.97 95.28,-184.74 95.26,-183.51 95.24,-182.17 95.22,-180.82 95.21,-179.73 95.20,-178.63 95.20,-177.48 95.21,-176.33 95.22,-175.26 95.24,-174.18 95.10,-173.03 94.97,-171.87 94.84,-170.53 94.70,-169.20 94.48,-168.14 94.25,-167.08 93.79,-166.10 93.34,-165.12 92.41,-163.87 91.49,-162.62 90.79,-161.69 90.09,-160.75 88.95,-159.38 87.82,-158.01 87.00,-157.15 86.18,-156.28 85.18,-155.35 84.18,-154.42 83.25,-153.61 82.32,-152.79 80.69,-151.29 79.06,-149.79 78.10,-148.82 77.14,-147.84 76.23,-147.03 75.32,-146.22 74.37,-145.50 73.43,-144.77 72.21,-144.59 70.99,-144.40 69.68,-144.37 68.36,-144.34 67.15,-144.32 65.94,-144.30 64.58,-144.34 63.22,-144.38 62.07,-144.74 60.91,-145.10 59.69,-145.72 58.46,-146.33 57.46,-147.16 56.46,-147.98 55.59,-148.86 54.73,-149.74 53.96,-150.80 53.18,-151.86 52.75,-152.97 52.32,-154.07 52.28,-155.25 52.24,-156.42 52.23,-157.59 52.22,-158.75 52.21,-159.97 52.19,-161.19 52.22,-162.26 52.25,-163.32 52.78,-164.55 53.32,-165.78 53.91,-166.89 54.51,-168.00 55.13,-168.97 55.74,-169.93 56.88,-170.79 58.02,-171.66 59.05,-171.94 60.08,-172.23 61.19,-172.24 62.30,-172.25 63.44,-172.25 64.59,-172.25 65.74,-172.26 66.89,-172.26 68.18,-171.98 69.46,-171.70 70.73,-171.18 72.00,-170.66 72.83,-169.92 73.67,-169.17 74.36,-167.54 75.05,-165.92 75.48,-165.45 75.91,-164.99 76.16,-164.41 76.42,-163.83 76.47,-163.20 76.53,-162.57 76.38,-161.96 76.24,-161.35 75.90,-160.81 75.57,-160.28 75.08,-159.88 74.59,-159.48 74.00,-159.25 73.41,-159.03 72.78,-159.01 72.15,-158.98 71.54,-159.16 70.94,-159.34 70.42,-159.71 69.90,-160.07 69.53,-160.58 69.16,-161.09 68.97,-161.69 68.78,-162.29 68.79,-162.92 68.80,-163.55 69.01,-164.15 69.22,-164.74 69.62,-165.24 70.01,-165.73 70.54,-166.08 71.06,-166.42 71.68,-166.58 72.29,-166.74 72.92,-166.69 73.55,-166.65 74.13,-166.40 74.71,-166.16 75.18,-165.74 75.66,-165.33 75.97,-164.78 76.29,-164.23 76.41,-163.61 76.54,-162.99 76.46,-162.37 76.38,-161.74 76.10,-161.17 75.83,-160.61 75.38,-160.16 74.94,-159.71 74.38,-159.42 73.82,-159.14 73.19,-159.04 72.57,-158.95 71.95,-159.07 71.33,-159.18 70.77,-159.49 70.22,-159.79 70.22,-159.79 70.22,-159.79 69.07,-161.76 67.91,-163.72 67.31,-164.91 66.71,-166.10 67.77,-164.86 68.84,-163.63 67.34,-164.05 65.84,-164.48 64.71,-164.48 63.58,-164.49 62.40,-164.65 61.22,-164.81 61.91,-165.80 62.60,-166.78 61.93,-165.62 61.26,-164.45 60.52,-163.30 59.77,-162.14 59.76,-160.91 59.75,-159.68 59.74,-158.54 59.72,-157.40 59.90,-156.11 60.08,-154.82 60.85,-153.97 61.62,-153.12 62.58,-152.46 63.55,-151.81 64.74,-151.62 65.94,-151.42 67.15,-151.40 68.36,-151.38 69.43,-151.16 70.49,-150.94 71.50,-151.73 72.50,-152.53 73.50,-153.48 74.49,-154.44 75.34,-155.32 76.18,-156.21 76.95,-156.97 77.71,-157.73 78.48,-158.51 79.26,-159.29 80.03,-160.14 80.80,-161.00 81.99,-162.50 83.18,-163.99 83.96,-165.11 84.73,-166.23 85.57,-167.40 86.41,-168.56 86.93,-169.84 87.45,-171.11 87.59,-172.65 87.74,-174.18 87.75,-175.26 87.77,-176.33 87.77,-177.48 87.77,-178.63 87.77,-179.73 87.76,-180.82 87.73,-182.16 87.71,-183.50 87.69,-184.72 87.67,-185.95 87.64,-187.08 87.61,-188.21 87.33,-189.27 87.05,-190.34 86.13,-191.34 85.21,-192.34 84.48,-193.14 83.76,-193.94 82.63,-194.60 81.50,-195.26 80.35,-195.75 79.21,-196.24 78.14,-196.38 77.08,-196.53 75.92,-196.54 74.76,-196.54 73.51,-196.56 72.25,-196.57 71.17,-196.58 70.08,-196.59 68.98,-196.51 67.87,-196.44 66.36,-196.30 64.85,-196.15 63.73,-195.86 62.61,-195.57 61.53,-195.02 60.45,-194.48 59.36,-193.85 58.27,-193.22 57.19,-192.56 56.11,-191.90 55.13,-191.39 54.16,-190.87 53.18,-190.39 52.20,-189.90 51.19,-189.35 50.19,-188.79 49.12,-188.03 48.05,-187.27 46.87,-186.36 45.70,-185.45 44.38,-184.27 43.06,-183.09 41.69,-181.80 40.32,-180.51 39.18,-179.40 38.03,-178.29 37.21,-177.38 36.38,-176.47 35.48,-175.44 34.58,-174.41 33.74,-173.34 32.91,-172.27 32.13,-171.14 31.35,-170.01 30.47,-168.56 29.59,-167.11 28.61,-165.52 27.62,-163.92 26.64,-162.23 25.66,-160.53 24.68,-158.86 23.69,-157.18 22.76,-155.57 21.83,-153.97 20.89,-152.46 19.96,-150.95 19.06,-149.33 18.16,-147.71 17.20,-145.99 16.24,-144.27 15.36,-142.75 14.48,-141.22 13.70,-139.66 12.92,-138.10 12.25,-136.73 11.58,-135.37 10.72,-133.29 9.86,-131.21 9.14,-129.48 8.41,-127.75 7.75,-125.85 7.08,-123.94 6.45,-122.07 5.81,-120.19 5.53,-119.15 5.25,-118.11 4.95,-116.97 4.65,-115.82 4.32,-114.66 3.99,-113.50 3.70,-112.39 3.40,-111.27 3.17,-110.16 2.93,-109.05 2.73,-107.89 2.53,-106.74 2.33,-105.44 2.14,-104.15 1.97,-102.74 1.79,-101.34 1.62,-100.09 1.45,-98.84 1.25,-96.69 1.04,-94.54 1.02,-92.63 0.99,-90.72 0.96,-88.84 0.92,-86.95 0.86,-85.20 0.81,-83.45 0.82,-82.11 0.84,-80.78 0.82,-79.71 0.80,-78.64 0.79,-77.52 0.77,-76.40 0.77,-75.20 0.76,-74.00 0.77,-72.71 0.78,-71.43 0.81,-70.15 0.83,-68.87 0.90,-67.52 0.96,-66.17 1.06,-64.75 1.16,-63.34 1.22,-62.00 1.28,-60.67 1.29,-59.42 1.31,-58.18 1.36,-56.89 1.40,-55.61 1.50,-54.25 1.60,-52.90 1.71,-51.57 1.83,-50.25 1.95,-48.24 2.07,-46.24 2.25,-44.43 2.43,-42.62 2.56,-40.54 2.69,-38.46 2.70,-37.12 2.71,-35.77 2.64,-33.87 2.56,-31.96 2.53,-30.89 2.49,-29.83 2.59,-27.97 2.69,-26.11 2.79,-24.35 2.89,-22.59 2.93,-21.23 2.96,-19.86 2.98,-18.60 3.00,-17.33 2.97,-15.54 2.94,-13.76 2.91,-11.85 2.88,-9.94 2.83,-8.03 2.79,-6.13 2.73,-4.29 2.67,-2.46 2.65,-1.22 2.64,0.00 2.60,0.31 2.57,0.63 2.45,0.93 2.34,1.23 2.16,1.49 1.98,1.75 1.74,1.96 1.50,2.18 1.21,2.32 0.93,2.47 0.62,2.55 0.31,2.62 -0.00,2.62 -0.32,2.62 -0.63,2.55 -0.94,2.47 -1.22,2.32 -1.50,2.17 -1.74,1.96 -1.98,1.75 -2.16,1.49 -2.34,1.22 -2.45,0.92 -2.57,0.63 -2.60,0.31 -2.64,-0.00 -2.64,-0.00 L -2.64,-0.00 Z"></path></g><g stroke-opacity="0.7" fill-opacity="0.7" transform="translate(11.935524507974606 406.51152376582866) rotate(0 44.778238015560646 -100.15327025156)" stroke="none"><path fill="#ededed" d="M 86.90,0.00 Q 86.90,0.00 86.89,-1.22 86.88,-2.46 86.82,-4.29 86.76,-6.13 86.71,-8.03 86.67,-9.94 86.64,-11.85 86.61,-13.76 86.57,-15.54 86.54,-17.33 86.57,-18.60 86.59,-19.86 86.62,-21.23 86.65,-22.59 86.75,-24.35 86.85,-26.11 86.95,-27.97 87.06,-29.83 87.02,-30.89 86.98,-31.96 86.91,-33.87 86.84,-35.77 86.85,-37.12 86.86,-38.46 86.99,-40.54 87.12,-42.62 87.30,-44.43 87.48,-46.24 87.60,-48.24 87.72,-50.25 87.83,-51.57 87.95,-52.90 88.05,-54.25 88.15,-55.61 88.19,-56.89 88.24,-58.18 88.25,-59.42 88.27,-60.67 88.33,-62.00 88.38,-63.34 88.48,-64.75 88.58,-66.17 88.65,-67.52 88.72,-68.87 88.74,-70.15 88.77,-71.43 88.78,-72.71 88.79,-74.00 88.78,-75.20 88.78,-76.40 88.76,-77.52 88.75,-78.64 88.73,-79.71 88.71,-80.78 88.72,-82.11 88.74,-83.45 88.68,-85.20 88.63,-86.95 88.59,-88.84 88.56,-90.72 88.53,-92.63 88.50,-94.54 88.30,-96.69 88.09,-98.84 87.92,-100.09 87.75,-101.34 87.58,-102.74 87.40,-104.15 87.21,-105.44 87.02,-106.74 86.82,-107.89 86.61,-109.05 86.38,-110.16 86.15,-111.27 85.85,-112.39 85.56,-113.50 85.23,-114.66 84.90,-115.82 84.60,-116.97 84.30,-118.11 84.02,-119.15 83.73,-120.19 83.10,-122.07 82.46,-123.94 81.80,-125.85 81.14,-127.75 80.41,-129.48 79.69,-131.21 78.83,-133.29 77.97,-135.37 77.30,-136.73 76.62,-138.10 75.84,-139.66 75.07,-141.22 74.19,-142.75 73.31,-144.27 72.35,-145.99 71.38,-147.71 70.49,-149.33 69.59,-150.95 68.65,-152.46 67.71,-153.97 66.79,-155.57 65.86,-157.18 64.87,-158.86 63.88,-160.53 62.90,-162.23 61.93,-163.92 60.94,-165.52 59.95,-167.11 59.08,-168.56 58.20,-170.01 57.42,-171.14 56.64,-172.27 55.80,-173.34 54.97,-174.41 54.07,-175.44 53.16,-176.47 52.34,-177.38 51.52,-178.29 50.37,-179.40 49.22,-180.51 47.85,-181.80 46.48,-183.09 45.16,-184.27 43.84,-185.45 42.67,-186.36 41.50,-187.27 40.43,-188.03 39.36,-188.79 38.35,-189.35 37.35,-189.90 36.37,-190.39 35.39,-190.87 34.41,-191.39 33.44,-191.90 32.36,-192.56 31.28,-193.22 30.19,-193.85 29.10,-194.48 28.02,-195.02 26.93,-195.57 25.82,-195.86 24.70,-196.15 23.19,-196.30 21.68,-196.44 20.57,-196.51 19.46,-196.59 18.38,-196.58 17.29,-196.57 16.04,-196.56 14.78,-196.54 13.62,-196.54 12.46,-196.53 11.40,-196.38 10.34,-196.24 9.19,-195.75 8.05,-195.26 6.92,-194.60 5.79,-193.94 5.06,-193.14 4.34,-192.34 3.41,-191.34 2.49,-190.34 2.22,-189.27 1.94,-188.21 1.91,-187.08 1.87,-185.95 1.85,-184.72 1.83,-183.50 1.81,-182.16 1.79,-180.82 1.78,-179.73 1.77,-178.63 1.78,-177.48 1.78,-176.33 1.79,-175.26 1.81,-174.18 1.95,-172.65 2.10,-171.11 2.62,-169.84 3.14,-168.56 3.97,-167.40 4.81,-166.23 5.59,-165.11 6.37,-163.99 7.56,-162.50 8.75,-161.00 9.52,-160.14 10.29,-159.29 11.06,-158.51 11.84,-157.73 12.60,-156.97 13.36,-156.21 14.21,-155.32 15.06,-154.44 16.05,-153.48 17.05,-152.53 18.05,-151.73 19.05,-150.94 20.12,-151.16 21.19,-151.38 22.40,-151.40 23.61,-151.42 24.80,-151.62 26.00,-151.81 26.96,-152.46 27.93,-153.12 28.70,-153.97 29.46,-154.82 29.64,-156.11 29.82,-157.40 29.81,-158.54 29.80,-159.68 29.79,-160.91 29.77,-162.14 29.03,-163.30 28.29,-164.45 27.62,-165.62 26.95,-166.78 27.64,-165.80 28.33,-164.81 27.15,-164.65 25.97,-164.49 24.84,-164.48 23.71,-164.48 22.21,-164.05 20.71,-163.63 21.77,-164.86 22.84,-166.10 22.24,-164.91 21.64,-163.72 20.48,-161.76 19.32,-159.79 18.77,-159.49 18.22,-159.18 17.60,-159.07 16.98,-158.95 16.35,-159.04 15.73,-159.14 15.17,-159.42 14.60,-159.71 14.16,-160.16 13.72,-160.61 13.44,-161.18 13.17,-161.74 13.09,-162.37 13.01,-163.00 13.13,-163.61 13.26,-164.23 13.57,-164.78 13.89,-165.33 14.36,-165.74 14.84,-166.16 15.42,-166.40 16.00,-166.65 16.63,-166.69 17.26,-166.74 17.87,-166.58 18.48,-166.42 19.01,-166.08 19.54,-165.73 19.93,-165.24 20.32,-164.74 20.53,-164.15 20.75,-163.55 20.76,-162.92 20.77,-162.29 20.58,-161.69 20.39,-161.09 20.01,-160.58 19.64,-160.07 19.13,-159.71 18.61,-159.34 18.00,-159.16 17.40,-158.98 16.77,-159.01 16.14,-159.03 15.55,-159.25 14.96,-159.48 14.47,-159.88 13.98,-160.28 13.65,-160.81 13.31,-161.35 13.16,-161.96 13.02,-162.57 13.07,-163.20 13.13,-163.83 13.39,-164.41 13.64,-164.99 14.07,-165.45 14.49,-165.92 14.49,-165.92 14.49,-165.92 15.19,-167.54 15.88,-169.17 16.71,-169.92 17.55,-170.66 18.81,-171.18 20.08,-171.70 21.37,-171.98 22.65,-172.26 23.81,-172.26 24.96,-172.25 26.10,-172.25 27.25,-172.25 28.36,-172.24 29.47,-172.23 30.50,-171.94 31.53,-171.66 32.67,-170.79 33.81,-169.93 34.42,-168.97 35.04,-168.00 35.63,-166.89 36.23,-165.78 36.76,-164.55 37.30,-163.32 37.33,-162.26 37.35,-161.19 37.34,-159.97 37.32,-158.75 37.31,-157.59 37.30,-156.42 37.26,-155.25 37.23,-154.07 36.80,-152.97 36.37,-151.86 35.59,-150.80 34.82,-149.74 33.95,-148.86 33.09,-147.98 32.09,-147.16 31.08,-146.33 29.86,-145.72 28.64,-145.10 27.48,-144.74 26.32,-144.38 24.97,-144.34 23.61,-144.30 22.40,-144.32 21.19,-144.34 19.87,-144.37 18.55,-144.40 17.34,-144.59 16.12,-144.77 15.17,-145.50 14.23,-146.22 13.32,-147.03 12.41,-147.84 11.45,-148.82 10.49,-149.79 8.86,-151.29 7.23,-152.79 6.30,-153.61 5.37,-154.42 4.37,-155.35 3.37,-156.28 2.55,-157.15 1.73,-158.01 0.59,-159.38 -0.53,-160.75 -1.23,-161.69 -1.93,-162.62 -2.85,-163.87 -3.78,-165.12 -4.23,-166.10 -4.69,-167.08 -4.92,-168.14 -5.15,-169.20 -5.28,-170.53 -5.42,-171.87 -5.55,-173.03 -5.68,-174.18 -5.66,-175.26 -5.65,-176.33 -5.65,-177.48 -5.64,-178.63 -5.65,-179.73 -5.66,-180.82 -5.68,-182.17 -5.70,-183.51 -5.72,-184.74 -5.74,-185.97 -5.75,-187.22 -5.77,-188.48 -5.58,-189.97 -5.38,-191.46 -4.91,-192.63 -4.43,-193.79 -3.68,-194.76 -2.93,-195.74 -2.18,-196.59 -1.43,-197.45 -0.58,-198.29 0.26,-199.13 1.22,-199.84 2.18,-200.55 3.08,-201.20 3.98,-201.86 5.07,-202.31 6.15,-202.76 7.31,-203.19 8.46,-203.62 9.90,-203.85 11.33,-204.08 12.49,-204.07 13.66,-204.07 14.84,-204.06 16.03,-204.05 17.19,-204.03 18.35,-204.02 19.50,-204.00 20.65,-203.98 21.77,-203.82 22.89,-203.67 23.98,-203.62 25.08,-203.57 26.53,-203.25 27.98,-202.93 29.10,-202.47 30.21,-202.02 31.38,-201.37 32.54,-200.73 33.71,-200.02 34.88,-199.31 35.77,-198.71 36.66,-198.11 37.92,-197.37 39.19,-196.63 40.25,-196.06 41.31,-195.48 42.31,-194.82 43.31,-194.16 44.40,-193.35 45.49,-192.54 46.82,-191.48 48.16,-190.43 49.58,-189.19 50.99,-187.96 52.38,-186.71 53.76,-185.47 55.11,-184.20 56.46,-182.93 57.67,-181.52 58.88,-180.11 59.54,-179.27 60.21,-178.43 61.08,-177.16 61.95,-175.89 62.75,-174.63 63.56,-173.38 64.42,-171.89 65.29,-170.41 66.31,-168.75 67.33,-167.10 68.31,-165.42 69.28,-163.73 70.33,-161.98 71.38,-160.23 72.21,-158.75 73.05,-157.26 74.02,-155.66 74.99,-154.06 75.91,-152.37 76.83,-150.68 77.79,-148.97 78.74,-147.25 79.63,-145.64 80.52,-144.02 81.30,-142.35 82.09,-140.69 82.74,-139.17 83.38,-137.66 84.30,-135.55 85.21,-133.44 85.93,-131.59 86.65,-129.75 87.00,-128.72 87.36,-127.70 87.96,-125.74 88.57,-123.77 88.89,-122.70 89.22,-121.63 89.49,-120.56 89.75,-119.50 90.02,-118.43 90.28,-117.36 90.63,-116.15 90.98,-114.94 91.32,-113.67 91.65,-112.41 91.89,-111.21 92.14,-110.01 92.34,-108.82 92.55,-107.63 92.78,-106.31 93.01,-104.99 93.25,-103.60 93.49,-102.21 93.71,-100.92 93.92,-99.63 94.11,-98.30 94.31,-96.98 94.39,-95.76 94.47,-94.54 94.44,-92.63 94.42,-90.72 94.38,-88.84 94.35,-86.95 94.29,-85.20 94.23,-83.45 94.25,-82.11 94.26,-80.78 94.24,-79.70 94.22,-78.63 94.20,-77.50 94.19,-76.38 94.17,-75.17 94.16,-73.96 94.15,-72.65 94.14,-71.34 94.12,-70.00 94.10,-68.66 94.06,-67.26 94.02,-65.86 93.96,-64.50 93.90,-63.14 93.87,-61.88 93.83,-60.61 93.82,-59.33 93.81,-58.05 93.80,-56.68 93.78,-55.31 93.73,-53.90 93.69,-52.50 93.62,-51.21 93.55,-49.92 93.39,-47.75 93.22,-45.58 92.95,-43.72 92.68,-41.86 92.46,-40.16 92.24,-38.46 92.25,-37.12 92.26,-35.77 92.18,-33.87 92.11,-31.96 92.07,-30.89 92.04,-29.83 92.14,-27.97 92.24,-26.11 92.34,-24.35 92.44,-22.59 92.47,-21.23 92.51,-19.86 92.53,-18.60 92.55,-17.33 92.52,-15.54 92.49,-13.76 92.46,-11.85 92.42,-9.94 92.38,-8.03 92.34,-6.13 92.28,-4.30 92.22,-2.46 92.21,-1.23 92.20,-0.00 92.16,0.31 92.12,0.63 92.01,0.92 91.90,1.22 91.72,1.49 91.53,1.75 91.30,1.96 91.06,2.17 90.78,2.32 90.49,2.47 90.18,2.55 89.87,2.62 89.55,2.62 89.23,2.62 88.92,2.55 88.61,2.47 88.33,2.32 88.05,2.18 87.81,1.96 87.57,1.75 87.39,1.49 87.21,1.23 87.09,0.93 86.98,0.63 86.94,0.31 86.90,0.00 86.90,0.00 L 86.90,0.00 Z"></path></g></svg>