<svg version="1.1" xmlns="http://www.w3.org/2000/svg" viewBox="0 0 862.4479370117188 345">
  <!-- svg-source:excalidraw -->
  
  <rect x="0" y="0" width="862.4479370117188" height="345" fill="#ffffff"></rect><g stroke-linecap="round"><g transform="translate(88 295) rotate(0 341.53307285706506 0.055064090341318206)"><path d="M0.61 0.81 C114.06 0.59, 567.58 -0.64, 681.27 -0.7 M-0.53 0.19 C113.26 0.06, 569.78 0.77, 683.59 0.47" stroke="#a5a5a5" stroke-width="1" fill="none"></path></g></g><mask></mask><g stroke-linecap="round"><g transform="translate(91 290) rotate(0 336.96723722418307 -134.5902759030182)"><path d="M1.17 1.12 C29.85 -7.44, 115.42 -6.68, 171.23 -51.92 C227.03 -97.15, 280.65 -268.74, 335.99 -270.29 C391.32 -271.84, 446.98 -105.77, 503.25 -61.22 C559.52 -16.67, 645.22 -12.42, 673.61 -2.97 M0.32 0.67 C29.46 -8.16, 117.72 -8.51, 173.53 -53.47 C229.35 -98.44, 280.29 -268, 335.22 -269.13 C390.14 -270.26, 446.89 -104.14, 503.1 -60.23 C559.3 -16.33, 644.37 -15.37, 672.46 -5.7" stroke="#000000" stroke-width="1" fill="none"></path></g></g><mask></mask><g stroke-linecap="round" transform="translate(323 111) rotate(0 13 13)"><path d="M12.49 -0.65 C15.12 -1.04, 18.16 1.36, 20.31 3.15 C22.47 4.95, 24.6 7.44, 25.41 10.12 C26.21 12.8, 26.3 16.68, 25.16 19.24 C24.02 21.8, 21.18 24.46, 18.56 25.48 C15.93 26.5, 12.11 26.31, 9.41 25.37 C6.72 24.43, 3.88 22.07, 2.39 19.84 C0.91 17.6, 0.41 14.71, 0.52 11.95 C0.62 9.19, 0.97 5.35, 3.02 3.3 C5.07 1.25, 11.19 0.1, 12.81 -0.33 C14.44 -0.75, 12.79 0.48, 12.77 0.73 M12.97 0.14 C15.64 0.04, 21.44 2.2, 23.61 4.15 C25.77 6.11, 26 9.27, 25.98 11.86 C25.96 14.45, 25.34 17.46, 23.48 19.7 C21.63 21.94, 17.44 24.33, 14.87 25.31 C12.3 26.29, 10.56 26.47, 8.07 25.56 C5.59 24.65, 1.18 22.6, -0.05 19.83 C-1.28 17.07, -0.11 11.93, 0.7 8.97 C1.51 6.01, 2.56 3.79, 4.83 2.07 C7.1 0.35, 12.95 -1.12, 14.32 -1.32 C15.7 -1.53, 13.05 0.47, 13.1 0.83" stroke="none" stroke-width="0" fill="#4dabf7"></path><path d="M17.55 1.53 C20.04 2.22, 24 4.36, 25.27 6.72 C26.53 9.08, 25.87 12.9, 25.14 15.7 C24.42 18.49, 23.16 21.64, 20.91 23.49 C18.65 25.34, 14.44 27.19, 11.62 26.81 C8.8 26.44, 5.94 23.49, 3.99 21.22 C2.05 18.95, 0.23 15.91, -0.05 13.18 C-0.34 10.44, 0.72 7.06, 2.28 4.81 C3.84 2.56, 6.46 0.35, 9.29 -0.32 C12.12 -1, 17.59 0.37, 19.28 0.77 C20.97 1.17, 19.6 1.74, 19.44 2.05 M19.83 1.62 C22.41 2.62, 23.62 4.84, 24.67 7.44 C25.73 10.03, 26.91 14.22, 26.15 17.19 C25.4 20.16, 22.82 23.97, 20.16 25.26 C17.51 26.55, 13.15 25.63, 10.22 24.93 C7.3 24.24, 4.18 22.77, 2.64 21.08 C1.09 19.39, 0.79 17.53, 0.94 14.79 C1.09 12.04, 1.81 7.24, 3.52 4.59 C5.22 1.93, 8.75 -0.56, 11.18 -1.14 C13.6 -1.72, 16.85 0.62, 18.07 1.1 C19.29 1.58, 18.69 1.31, 18.5 1.74" stroke="transparent" stroke-width="1" fill="none"></path></g><g stroke-opacity="0.8" fill-opacity="0.8" stroke-linecap="round" transform="translate(170 260) rotate(0 13 13)"><path d="M9.34 0.41 C11.66 -0.72, 14.95 -0.05, 17.42 0.94 C19.89 1.92, 22.89 3.97, 24.17 6.32 C25.45 8.67, 25.69 12.22, 25.1 15.03 C24.51 17.83, 22.5 21.34, 20.62 23.15 C18.75 24.95, 16.44 25.93, 13.85 25.87 C11.25 25.8, 7.48 24.4, 5.07 22.75 C2.66 21.09, -0.15 18.54, -0.62 15.94 C-1.08 13.34, 0.65 9.62, 2.28 7.15 C3.92 4.68, 7.71 2.17, 9.18 1.11 C10.66 0.05, 11.08 0.85, 11.13 0.8 M12.35 -1.05 C14.75 -1.65, 16.31 1.16, 18.36 2.62 C20.41 4.09, 23.69 5.36, 24.64 7.74 C25.58 10.12, 24.77 14.25, 24.02 16.91 C23.28 19.57, 22.2 22.24, 20.14 23.71 C18.09 25.19, 14.63 25.99, 11.69 25.77 C8.75 25.55, 4.62 24.35, 2.51 22.38 C0.4 20.42, -0.88 17.17, -0.99 13.98 C-1.1 10.8, -0.09 5.35, 1.84 3.28 C3.77 1.22, 8.88 2.02, 10.61 1.59 C12.34 1.15, 12.12 0.78, 12.24 0.67" stroke="none" stroke-width="0" fill="#a5d8ff"></path><path d="M13.76 -0.2 C16.46 -0.32, 19.27 1.19, 21.27 2.88 C23.27 4.58, 25.16 7.33, 25.74 9.99 C26.32 12.64, 26.22 16.16, 24.74 18.83 C23.26 21.49, 19.52 25.06, 16.86 25.98 C14.2 26.91, 11.39 25.37, 8.77 24.39 C6.15 23.4, 2.58 22.52, 1.16 20.09 C-0.26 17.67, -0.51 12.64, 0.25 9.85 C1.01 7.06, 2.92 4.77, 5.71 3.36 C8.5 1.94, 14.67 1.58, 16.98 1.37 C19.29 1.16, 19.79 2.05, 19.56 2.12 M11.69 -0.2 C14.37 -1.11, 17.89 -0.52, 19.95 1.16 C22.02 2.83, 23.24 6.92, 24.1 9.84 C24.95 12.75, 25.76 16.47, 25.07 18.64 C24.38 20.8, 22.41 21.39, 19.95 22.83 C17.49 24.27, 13.08 27.23, 10.31 27.26 C7.54 27.29, 5.01 25.23, 3.33 23.02 C1.65 20.81, 0.29 16.82, 0.22 13.99 C0.15 11.15, 1.34 8.13, 2.91 6.01 C4.48 3.9, 8.59 2.2, 9.64 1.28 C10.68 0.36, 8.93 0.24, 9.21 0.49" stroke="transparent" stroke-width="1" fill="none"></path></g><g stroke-opacity="0.8" fill-opacity="0.8" stroke-linecap="round" transform="translate(265 209) rotate(0 13 13)"><path d="M13.56 -0.72 C16.2 -0.94, 19.34 0.81, 21.28 2.81 C23.21 4.82, 24.83 8.39, 25.17 11.31 C25.52 14.24, 24.69 18.14, 23.35 20.38 C22.02 22.62, 19.66 23.88, 17.15 24.77 C14.63 25.66, 10.98 26.57, 8.26 25.71 C5.54 24.85, 2.03 21.99, 0.82 19.6 C-0.38 17.21, 0.3 14.2, 1.03 11.37 C1.76 8.55, 2.93 4.65, 5.21 2.67 C7.48 0.68, 12.68 -0.21, 14.68 -0.53 C16.67 -0.86, 17.12 0.39, 17.19 0.71 M14.38 1.69 C16.83 2.22, 21.08 2.48, 22.87 4.58 C24.65 6.68, 25.13 11.63, 25.1 14.28 C25.06 16.92, 24.44 18.62, 22.66 20.45 C20.87 22.28, 17.03 24.75, 14.38 25.27 C11.74 25.79, 9.27 24.76, 6.78 23.55 C4.3 22.34, 0.54 20.4, -0.52 18 C-1.57 15.61, -0.63 11.8, 0.45 9.18 C1.54 6.56, 3.58 3.55, 6 2.28 C8.42 1.01, 13.37 1.82, 14.97 1.56 C16.57 1.31, 15.76 0.76, 15.61 0.77" stroke="none" stroke-width="0" fill="#a5d8ff"></path><path d="M16.26 0.53 C18.87 0.85, 21.28 2.78, 22.74 4.96 C24.21 7.14, 25.24 10.91, 25.06 13.59 C24.88 16.28, 23.42 19.08, 21.66 21.06 C19.9 23.05, 17.14 25.06, 14.48 25.53 C11.82 26, 8.19 25.47, 5.72 23.89 C3.24 22.31, 0.54 18.71, -0.38 16.06 C-1.3 13.41, -1.13 10.42, 0.2 7.99 C1.53 5.55, 4.77 2.78, 7.62 1.48 C10.47 0.17, 15.4 0.13, 17.3 0.15 C19.2 0.17, 19.02 1.36, 19.02 1.6 M8.16 1.61 C10.62 0.65, 16.1 0.13, 18.6 0.87 C21.1 1.62, 22.11 3.64, 23.17 6.07 C24.22 8.5, 25.37 12.49, 24.93 15.43 C24.5 18.38, 22.77 21.88, 20.55 23.72 C18.33 25.56, 14.59 26.93, 11.62 26.48 C8.66 26.03, 4.88 22.88, 2.76 21 C0.64 19.13, -1.08 17.85, -1.1 15.24 C-1.12 12.63, 0.86 7.83, 2.64 5.33 C4.41 2.82, 8.66 0.97, 9.56 0.21 C10.46 -0.56, 8.13 0.25, 8.05 0.73" stroke="transparent" stroke-width="1" fill="none"></path></g><g stroke-opacity="0.8" fill-opacity="0.8" stroke-linecap="round" transform="translate(503 106) rotate(0 13 13)"><path d="M19.19 2.13 C21.78 3.07, 23.89 5.91, 24.85 8.16 C25.8 10.4, 25.74 12.85, 24.91 15.61 C24.07 18.36, 22.1 22.8, 19.81 24.67 C17.53 26.55, 13.78 27.3, 11.2 26.85 C8.62 26.39, 6.23 24.08, 4.32 21.94 C2.4 19.79, -0.08 16.66, -0.31 13.96 C-0.53 11.26, 1.31 7.98, 2.97 5.76 C4.62 3.54, 6.81 1.21, 9.62 0.65 C12.43 0.08, 18.26 2.11, 19.84 2.35 C21.42 2.6, 19.28 1.98, 19.1 2.12 M14.37 0.67 C17.48 0.81, 21.41 0.92, 23.48 2.97 C25.54 5.02, 26.63 10.16, 26.75 12.96 C26.86 15.76, 25.74 17.81, 24.18 19.78 C22.62 21.74, 20.03 23.94, 17.4 24.75 C14.76 25.56, 11.27 25.75, 8.35 24.65 C5.44 23.55, 1.46 20.42, -0.11 18.16 C-1.67 15.9, -1.95 13.72, -1.04 11.08 C-0.13 8.44, 2.91 4.28, 5.38 2.31 C7.85 0.34, 12.22 -0.39, 13.8 -0.75 C15.37 -1.1, 15.02 -0.38, 14.82 0.18" stroke="none" stroke-width="0" fill="#a5d8ff"></path><path d="M19.1 2.3 C21.26 3.26, 22.85 4.36, 23.95 6.78 C25.04 9.2, 26.25 14, 25.68 16.83 C25.1 19.66, 22.77 22.25, 20.5 23.77 C18.22 25.3, 14.82 26.3, 12.04 26 C9.26 25.69, 5.68 23.94, 3.81 21.95 C1.94 19.96, 0.88 16.83, 0.82 14.05 C0.75 11.28, 1.88 7.49, 3.43 5.29 C4.97 3.09, 7.01 1.19, 10.1 0.85 C13.19 0.52, 19.68 2.69, 21.98 3.27 C24.28 3.86, 24.12 4.1, 23.89 4.35 M14.2 0.76 C16.72 0.52, 20.39 0.63, 22.58 2.37 C24.76 4.12, 26.87 8.06, 27.3 11.21 C27.72 14.36, 26.82 19.14, 25.1 21.3 C23.39 23.46, 20.02 23.54, 17 24.2 C13.98 24.85, 9.37 25.92, 6.96 25.22 C4.55 24.51, 3.69 22.24, 2.54 19.95 C1.38 17.67, -0.59 14.41, 0.05 11.51 C0.69 8.6, 4.07 4.67, 6.35 2.51 C8.63 0.35, 12.63 -0.98, 13.74 -1.47 C14.84 -1.96, 12.92 -0.99, 12.96 -0.45" stroke="transparent" stroke-width="1" fill="none"></path></g><g stroke-opacity="0.8" fill-opacity="0.8" stroke-linecap="round" transform="translate(572 207) rotate(0 13 13)"><path d="M15.87 0.26 C18.53 0.6, 22.61 3.39, 24.18 5.48 C25.76 7.56, 25.73 10.13, 25.33 12.75 C24.94 15.37, 23.73 19.04, 21.82 21.2 C19.92 23.36, 16.49 25.19, 13.88 25.7 C11.28 26.2, 8.24 25.78, 6.19 24.22 C4.14 22.67, 2.51 18.99, 1.57 16.34 C0.63 13.7, -0.45 10.86, 0.55 8.36 C1.56 5.85, 4.66 2.53, 7.59 1.32 C10.52 0.11, 16.22 1.18, 18.12 1.11 C20.01 1.05, 19.13 0.68, 18.98 0.92 M15.71 -0.79 C18.11 -0.37, 20.49 2.77, 22.13 5.13 C23.77 7.49, 25.58 10.61, 25.55 13.35 C25.53 16.1, 23.54 19.47, 21.98 21.59 C20.41 23.71, 18.94 25.41, 16.16 26.07 C13.37 26.74, 7.87 26.83, 5.29 25.57 C2.71 24.31, 1.38 21.47, 0.69 18.5 C0 15.52, 0.25 10.6, 1.17 7.71 C2.09 4.83, 3.86 2.43, 6.19 1.19 C8.53 -0.06, 13.81 0.11, 15.17 0.23 C16.54 0.35, 14.43 1.71, 14.39 1.92" stroke="none" stroke-width="0" fill="#a5d8ff"></path><path d="M8.05 0.93 C10.38 -0.35, 13.88 0.53, 16.48 1.18 C19.09 1.83, 22 2.83, 23.68 4.83 C25.36 6.83, 26.68 10.37, 26.56 13.19 C26.44 16.01, 25.11 19.68, 22.96 21.74 C20.8 23.81, 16.63 25.08, 13.63 25.58 C10.63 26.08, 7.13 26.23, 4.94 24.74 C2.76 23.26, 1.22 19.58, 0.55 16.69 C-0.12 13.79, -0.35 9.99, 0.93 7.38 C2.22 4.78, 7.17 1.96, 8.26 1.06 C9.36 0.16, 7.61 1.66, 7.5 1.99 M8.85 2.25 C11.01 1.13, 13.48 0.59, 16.12 1.03 C18.76 1.47, 23.15 2.63, 24.69 4.89 C26.23 7.14, 26.03 11.79, 25.34 14.54 C24.65 17.29, 22.73 19.38, 20.56 21.38 C18.39 23.38, 15.17 26.15, 12.31 26.54 C9.45 26.94, 5.28 25.81, 3.41 23.76 C1.53 21.71, 1.24 16.83, 1.07 14.23 C0.91 11.63, 1.3 10.32, 2.42 8.15 C3.54 5.98, 6.76 2.2, 7.79 1.21 C8.82 0.23, 8.61 2.32, 8.6 2.26" stroke="transparent" stroke-width="1" fill="none"></path></g><g stroke-opacity="0.8" fill-opacity="0.8" stroke-linecap="round" transform="translate(686 255) rotate(0 13 13)"><path d="M7.44 -0.05 C10 -1.28, 14.61 -0.4, 17.52 0.71 C20.43 1.83, 23.64 4.34, 24.89 6.63 C26.14 8.92, 25.47 11.63, 25.04 14.46 C24.6 17.3, 24.19 21.76, 22.29 23.64 C20.39 25.52, 16.49 25.72, 13.63 25.75 C10.77 25.78, 7.47 25.34, 5.15 23.79 C2.82 22.24, 0.14 19.25, -0.3 16.44 C-0.74 13.64, 0.64 9.65, 2.49 6.97 C4.34 4.28, 8.71 1.42, 10.79 0.34 C12.87 -0.73, 14.9 0.34, 14.99 0.52 M11.66 0.87 C13.98 0.31, 17.53 -0.12, 19.99 1.52 C22.45 3.17, 25.73 8.06, 26.43 10.76 C27.12 13.46, 25.43 15.59, 24.17 17.73 C22.91 19.87, 21.27 22.45, 18.86 23.61 C16.45 24.78, 12.45 25.49, 9.73 24.73 C7.02 23.97, 4.01 21.26, 2.59 19.08 C1.17 16.9, 0.79 14.26, 1.19 11.65 C1.6 9.05, 3.36 5.27, 5.02 3.46 C6.67 1.66, 10 1.12, 11.11 0.83 C12.22 0.54, 11.45 1.52, 11.68 1.72" stroke="none" stroke-width="0" fill="#a5d8ff"></path><path d="M9.24 1.03 C11.6 -0.03, 15.15 0.31, 17.57 1.17 C19.99 2.04, 22.35 3.87, 23.76 6.22 C25.17 8.58, 26.45 12.58, 26.04 15.3 C25.63 18.02, 23.5 20.66, 21.29 22.54 C19.08 24.43, 15.57 26.72, 12.78 26.63 C9.99 26.53, 6.51 23.92, 4.56 21.96 C2.6 20, 1.35 17.45, 1.03 14.87 C0.72 12.28, 1 8.95, 2.65 6.45 C4.3 3.95, 9.08 0.9, 10.93 -0.14 C12.77 -1.18, 13.61 0.06, 13.73 0.22 M18.25 0.05 C20.73 1.17, 24.16 5.28, 25.26 8.21 C26.37 11.14, 25.55 14.94, 24.86 17.65 C24.16 20.36, 23.09 23.07, 21.07 24.47 C19.05 25.87, 15.65 26.51, 12.72 26.04 C9.79 25.58, 5.71 23.98, 3.52 21.69 C1.32 19.39, -0.52 15.15, -0.47 12.28 C-0.42 9.41, 2.24 6.67, 3.82 4.46 C5.39 2.25, 6.59 -0.27, 8.99 -0.98 C11.38 -1.7, 16.53 -0.22, 18.2 0.16 C19.87 0.55, 19.17 1.01, 19.02 1.32" stroke="transparent" stroke-width="1" fill="none"></path></g><g transform="translate(10 276) rotate(0 39.689979553222656 17.5)"><text x="0" y="0" font-family="Virgil, Segoe UI Emoji" font-size="28px" fill="#000000" text-anchor="start" style="white-space: pre;" direction="ltr" dominant-baseline="text-before-edge">Start</text></g><g transform="translate(782 273) rotate(0 35.223968505859375 17.5)"><text x="0" y="0" font-family="Virgil, Segoe UI Emoji" font-size="28px" fill="#000000" text-anchor="start" style="white-space: pre;" direction="ltr" dominant-baseline="text-before-edge">Finish</text></g><g stroke-linecap="round"><g transform="translate(81.46398967126771 269) rotate(0 41.69898550922787 -10.7677629034634)"><path d="M-0.83 -0.11 C5.66 -3.83, 25.69 -21.81, 39.87 -21.75 C54.05 -21.7, 76.86 -3.68, 84.23 0.22" stroke="#a5a5a5" stroke-width="1.5" fill="none" stroke-dasharray="8 9"></path></g><g transform="translate(81.46398967126771 269) rotate(0 41.69898550922787 -10.7677629034634)"><path d="M60.23 -6.14 C69.78 -1.74, 76.99 -0.02, 85.24 1.4" stroke="#a5a5a5" stroke-width="1.5" fill="none"></path></g><g transform="translate(81.46398967126771 269) rotate(0 41.69898550922787 -10.7677629034634)"><path d="M69.18 -20.22 C75.44 -10.6, 79.29 -3.61, 85.24 1.4" stroke="#a5a5a5" stroke-width="1.5" fill="none"></path></g></g><mask></mask><g stroke-linecap="round"><g transform="translate(426 29) rotate(0 -0.29492087958271895 132.75959458723668)"><path d="M-0.09 -0.82 C0 43.51, -0.41 221.87, -0.52 266.34" stroke="#a5a5a5" stroke-width="1.5" fill="none" stroke-dasharray="8 9"></path></g></g><mask></mask><g stroke-linecap="round"><g transform="translate(190 253) rotate(0 34.09591991081834 -18.90160047689753)"><path d="M0.39 0.36 C4.88 -5.69, 16.48 -30.12, 27.72 -35.92 C38.96 -41.73, 61.28 -34.43, 67.8 -34.46" stroke="#a5a5a5" stroke-width="1.5" fill="none" stroke-dasharray="8 9"></path></g><g transform="translate(190 253) rotate(0 34.09591991081834 -18.90160047689753)"><path d="M48.79 -29.25 C57.11 -30.64, 63.36 -33.71, 65.98 -36.02" stroke="#a5a5a5" stroke-width="1.5" fill="none"></path></g><g transform="translate(190 253) rotate(0 34.09591991081834 -18.90160047689753)"><path d="M50.8 -42.8 C58.44 -39.25, 63.95 -37.38, 65.98 -36.02" stroke="#a5a5a5" stroke-width="1.5" fill="none"></path></g></g><mask></mask><g stroke-linecap="round"><g transform="translate(269 201) rotate(0 23.662411013990607 -39.35794365778567)"><path d="M-0.72 -0.82 C0.48 -10.29, -0.22 -44.74, 7.91 -57.59 C16.03 -70.43, 41.15 -74.63, 48.05 -77.9" stroke="#1e1e1e" stroke-width="2.5" fill="none" stroke-dasharray="8 10"></path></g><g transform="translate(269 201) rotate(0 23.662411013990607 -39.35794365778567)"><path d="M28.47 -61.92 C35.5 -70.11, 41.52 -73.22, 47.76 -78.11" stroke="#1e1e1e" stroke-width="2.5" fill="none"></path></g><g transform="translate(269 201) rotate(0 23.662411013990607 -39.35794365778567)"><path d="M23.43 -77.01 C32.17 -79.74, 40.01 -77.43, 47.76 -78.11" stroke="#1e1e1e" stroke-width="2.5" fill="none"></path></g></g><mask></mask><g stroke-linecap="round"><g transform="translate(337 105) rotate(0 34.34146813526746 -43.99164250269533)"><path d="M-0.22 0.37 C1.92 -9.89, 2.03 -46.77, 13.55 -61.56 C25.07 -76.34, 59.35 -83.81, 68.91 -88.35" stroke="#a5a5a5" stroke-width="1.5" fill="none" stroke-dasharray="8 9"></path></g><g transform="translate(337 105) rotate(0 34.34146813526746 -43.99164250269533)"><path d="M46.42 -69.97 C54.79 -77.83, 61.71 -81.34, 67.57 -88.01" stroke="#a5a5a5" stroke-width="1.5" fill="none"></path></g><g transform="translate(337 105) rotate(0 34.34146813526746 -43.99164250269533)"><path d="M39.52 -89.29 C50.36 -90.24, 59.75 -86.85, 67.57 -88.01" stroke="#a5a5a5" stroke-width="1.5" fill="none"></path></g></g><mask></mask><g stroke-linecap="round"><g transform="translate(445 15) rotate(0 34.81834502843395 42.99626253564837)"><path d="M-0.12 -0.97 C9.64 3.01, 47.3 8.15, 58.95 22.8 C70.6 37.46, 67.89 76.26, 69.76 86.96" stroke="#a5a5a5" stroke-width="1.5" fill="none" stroke-dasharray="8 9"></path></g><g transform="translate(445 15) rotate(0 34.81834502843395 42.99626253564837)"><path d="M56.2 61.03 C62.86 67.72, 65.44 77.51, 69.78 86.91" stroke="#a5a5a5" stroke-width="1.5" fill="none"></path></g><g transform="translate(445 15) rotate(0 34.81834502843395 42.99626253564837)"><path d="M76.68 59.79 C76.55 66.87, 72.35 77.07, 69.78 86.91" stroke="#a5a5a5" stroke-width="1.5" fill="none"></path></g></g><mask></mask><g stroke-linecap="round"><g transform="translate(533.1354040786987 109.86884853593375) rotate(0 24.248221695749123 46.048114663801606)"><path d="M-0.64 -0.18 C5.94 4.88, 31.87 14.95, 40.16 30.36 C48.46 45.77, 47.44 82.16, 49.13 92.28" stroke="#a5a5a5" stroke-width="1.5" fill="none" stroke-dasharray="8 9"></path></g><g transform="translate(533.1354040786987 109.86884853593375) rotate(0 24.248221695749123 46.048114663801606)"><path d="M36.5 63.76 C39.96 74.48, 47.39 86.29, 48.81 93.79" stroke="#a5a5a5" stroke-width="1.5" fill="none"></path></g><g transform="translate(533.1354040786987 109.86884853593375) rotate(0 24.248221695749123 46.048114663801606)"><path d="M56.96 62.23 C53.03 73.4, 53.07 85.75, 48.81 93.79" stroke="#a5a5a5" stroke-width="1.5" fill="none"></path></g></g><mask></mask><g stroke-linecap="round"><g transform="translate(602.7601944565226 209.97126663698228) rotate(0 46.08742154615868 16.70478661006341)"><path d="M0.68 -0.19 C9.37 -0.1, 36.63 -5.9, 51.77 0.14 C66.91 6.18, 85.06 30.22, 91.5 36.02" stroke="#a5a5a5" stroke-width="1.5" fill="none" stroke-dasharray="8 9"></path></g><g transform="translate(602.7601944565226 209.97126663698228) rotate(0 46.08742154615868 16.70478661006341)"><path d="M67.52 23.21 C75.99 27.51, 82.14 28.91, 91.31 37.73" stroke="#a5a5a5" stroke-width="1.5" fill="none"></path></g><g transform="translate(602.7601944565226 209.97126663698228) rotate(0 46.08742154615868 16.70478661006341)"><path d="M80.79 10.82 C85.66 18.52, 88.25 23.23, 91.31 37.73" stroke="#a5a5a5" stroke-width="1.5" fill="none"></path></g></g><mask></mask><g stroke-linecap="round"><g transform="translate(717 258) rotate(0 40.08881476416707 -2.2756663224661793)"><path d="M-0.85 1.08 C5.86 -0.88, 25.41 -12.77, 39.06 -11.74 C52.7 -10.71, 73.71 4.25, 81.02 7.25" stroke="#a5a5a5" stroke-width="1.5" fill="none" stroke-dasharray="8 9"></path></g><g transform="translate(717 258) rotate(0 40.08881476416707 -2.2756663224661793)"><path d="M59.47 3.94 C62.79 2.71, 67.48 6.6, 79.79 6.4" stroke="#a5a5a5" stroke-width="1.5" fill="none"></path></g><g transform="translate(717 258) rotate(0 40.08881476416707 -2.2756663224661793)"><path d="M67.13 -10.28 C68.92 -8.71, 72.06 -1.95, 79.79 6.4" stroke="#a5a5a5" stroke-width="1.5" fill="none"></path></g></g><mask></mask><g transform="translate(108 100) rotate(0 78.07796478271484 35)"><text x="0" y="0" font-family="Virgil, Segoe UI Emoji" font-size="28px" fill="#1e1e1e" text-anchor="start" style="white-space: pre;" direction="ltr" dominant-baseline="text-before-edge">Figure out</text><text x="0" y="35" font-family="Virgil, Segoe UI Emoji" font-size="28px" fill="#1e1e1e" text-anchor="start" style="white-space: pre;" direction="ltr" dominant-baseline="text-before-edge">what to do</text></g><g transform="translate(586 97) rotate(0 69.11796569824219 35)"><text x="0" y="0" font-family="Virgil, Segoe UI Emoji" font-size="28px" fill="#1e1e1e" text-anchor="start" style="white-space: pre;" direction="ltr" dominant-baseline="text-before-edge">Getting it</text><text x="0" y="35" font-family="Virgil, Segoe UI Emoji" font-size="28px" fill="#1e1e1e" text-anchor="start" style="white-space: pre;" direction="ltr" dominant-baseline="text-before-edge">done</text></g><g stroke-opacity="0.8" fill-opacity="0.8" stroke-linecap="round" transform="translate(413 10) rotate(0 13 13)"><path d="M15.17 0.12 C17.8 0.35, 21.88 2.41, 23.76 4.59 C25.64 6.77, 26.68 10.32, 26.47 13.2 C26.25 16.08, 24.41 19.71, 22.46 21.87 C20.5 24.03, 17.34 25.71, 14.75 26.18 C12.15 26.66, 9.24 26.17, 6.91 24.73 C4.57 23.29, 1.59 20.46, 0.75 17.56 C-0.08 14.66, 0.69 10.04, 1.89 7.32 C3.09 4.6, 5.04 2.14, 7.97 1.26 C10.91 0.39, 17.05 1.52, 19.51 2.08 C21.96 2.63, 22.97 4.41, 22.7 4.58 M19.38 1.87 C22.09 3.2, 24.31 5.57, 25.41 8.11 C26.51 10.65, 26.87 14.48, 25.99 17.12 C25.11 19.75, 22.42 22.42, 20.15 23.92 C17.88 25.42, 14.94 26.5, 12.38 26.12 C9.81 25.73, 6.75 23.61, 4.74 21.62 C2.74 19.63, 0.48 16.84, 0.35 14.16 C0.22 11.49, 2.09 8.08, 3.96 5.57 C5.84 3.07, 9.02 -0.41, 11.62 -0.87 C14.21 -1.33, 18.29 2.15, 19.55 2.83 C20.8 3.51, 19.29 3.13, 19.14 3.19" stroke="none" stroke-width="0" fill="#a5d8ff"></path><path d="M13.28 -0.79 C16.06 -0.88, 19.22 1.7, 21.45 3.63 C23.67 5.55, 26.18 8.22, 26.64 10.79 C27.1 13.36, 25.8 16.53, 24.21 19.06 C22.61 21.59, 19.63 24.85, 17.07 25.97 C14.52 27.08, 11.39 26.72, 8.86 25.75 C6.33 24.79, 3.25 22.78, 1.87 20.19 C0.49 17.59, 0.29 12.86, 0.57 10.19 C0.85 7.52, 1.24 5.91, 3.53 4.18 C5.81 2.45, 12.25 0.3, 14.27 -0.19 C16.3 -0.68, 15.65 1.11, 15.66 1.23 M10.68 -1.02 C13.54 -1.76, 18.22 -0.05, 20.84 1.46 C23.46 2.98, 25.57 5.45, 26.4 8.05 C27.23 10.66, 26.82 14.38, 25.82 17.1 C24.83 19.83, 22.96 23.21, 20.41 24.42 C17.87 25.63, 13.49 24.7, 10.56 24.37 C7.62 24.05, 4.35 24.23, 2.8 22.47 C1.24 20.72, 1.33 16.7, 1.23 13.84 C1.13 10.98, 0.57 7.5, 2.21 5.32 C3.85 3.14, 9.35 1.68, 11.07 0.78 C12.8 -0.13, 12.7 -0.43, 12.55 -0.12" stroke="transparent" stroke-width="1" fill="none"></path></g><g transform="translate(503 299) rotate(0 37.939971923828125 17.5)"><text x="0" y="0" font-family="Virgil, Segoe UI Emoji" font-size="28px" fill="#a5a5a5" text-anchor="start" style="white-space: pre;" direction="ltr" dominant-baseline="text-before-edge">Known</text></g><g transform="translate(262 300) rotate(0 52.7099609375 17.5)"><text x="0" y="0" font-family="Virgil, Segoe UI Emoji" font-size="28px" fill="#a5a5a5" text-anchor="start" style="white-space: pre;" direction="ltr" dominant-baseline="text-before-edge">Unknown</text></g></svg>