<svg version="1.1" xmlns="http://www.w3.org/2000/svg" viewBox="0 0 416.6621481385082 419.0001" >
  <!-- svg-source:excalidraw -->
  
  
  <rect x="0" y="0" width="416.6621481385082" height="419.0001" fill="#ffffff"></rect><g stroke-linecap="round" transform="translate(33 10) rotate(0 186.5 62)"><path d="M212.09 -0.1 C231.52 -0.09, 252.41 3.34, 270.27 6.58 C288.13 9.82, 305.1 14.44, 319.26 19.35 C333.42 24.26, 346.52 30.26, 355.21 36.05 C363.89 41.83, 369.13 47.41, 371.36 54.04 C373.6 60.66, 373.05 69.21, 368.63 75.79 C364.2 82.37, 355.47 88.02, 344.81 93.53 C334.16 99.04, 320.03 104.54, 304.72 108.86 C289.4 113.18, 271.8 116.82, 252.93 119.42 C234.06 122.02, 211.6 124.14, 191.5 124.46 C171.39 124.79, 151.47 123.26, 132.33 121.36 C113.18 119.47, 93.14 117.22, 76.64 113.09 C60.13 108.96, 45.02 102.09, 33.3 96.59 C21.58 91.08, 11.97 86.28, 6.31 80.05 C0.66 73.81, -1.86 66.13, -0.64 59.18 C0.58 52.23, 6.05 44.74, 13.62 38.35 C21.18 31.96, 31.5 25.9, 44.76 20.82 C58.03 15.74, 75.74 11.17, 93.21 7.85 C110.68 4.54, 128.33 1.99, 149.6 0.95 C170.86 -0.09, 207.41 1.19, 220.8 1.6 C234.19 2.01, 230.57 2.46, 229.94 3.44 M96.01 7.85 C111.1 4.05, 134.42 1.56, 154.76 0.23 C175.1 -1.09, 198.2 -1.41, 218.03 -0.11 C237.85 1.2, 256.03 4.88, 273.7 8.06 C291.37 11.24, 310.17 13.97, 324.07 18.97 C337.97 23.97, 348.93 31.76, 357.12 38.06 C365.31 44.36, 371.38 50.3, 373.2 56.78 C375.02 63.25, 372.91 70.63, 368.05 76.91 C363.19 83.2, 355.09 88.62, 344.05 94.48 C333.01 100.33, 317.82 107.85, 301.81 112.06 C285.8 116.26, 267.22 117.51, 247.97 119.72 C228.73 121.92, 206.78 125.21, 186.34 125.28 C165.9 125.34, 144.41 122.27, 125.34 120.1 C106.27 117.92, 87.82 116.41, 71.94 112.24 C56.05 108.07, 40.95 100.9, 30.02 95.07 C19.1 89.25, 11.34 83.58, 6.4 77.31 C1.46 71.04, -1.25 64.39, 0.38 57.46 C2 50.54, 7.9 41.74, 16.13 35.76 C24.35 29.77, 35.92 26.47, 49.7 21.55 C63.49 16.63, 90.42 8.43, 98.84 6.24 C107.25 4.05, 98.78 7.08, 100.19 8.43" stroke="#1e1e1e" stroke-width="1" fill="none"></path></g><g stroke-linecap="round" transform="translate(31 159) rotate(0 186.5 62)"><path d="M128.47 2.65 C145.76 -0.41, 168.98 0.03, 189.08 0.06 C209.19 0.08, 230.21 0.71, 249.09 2.8 C267.97 4.89, 286.66 8.36, 302.38 12.59 C318.1 16.83, 332.49 22.48, 343.4 28.23 C354.32 33.98, 363.04 40.51, 367.87 47.11 C372.69 53.7, 374.21 61.04, 372.33 67.81 C370.44 74.58, 364.83 81.75, 356.56 87.74 C348.29 93.74, 336.6 98.75, 322.71 103.78 C308.81 108.8, 291.07 114.55, 273.18 117.87 C255.29 121.2, 235.37 122.99, 215.36 123.71 C195.35 124.43, 173.14 123.49, 153.12 122.21 C133.09 120.94, 112.62 119.25, 95.2 116.05 C77.79 112.85, 61.99 107.97, 48.65 103.03 C35.31 98.1, 23.16 92.56, 15.16 86.43 C7.16 80.31, 2.18 73.09, 0.65 66.26 C-0.88 59.42, 0.94 51.97, 5.97 45.43 C10.99 38.88, 19.65 32.51, 30.79 26.97 C41.93 21.43, 55.92 16.12, 72.81 12.2 C89.69 8.27, 121.38 4.81, 132.1 3.43 C142.81 2.04, 136.13 3.07, 137.09 3.88 M272.95 7.24 C291.55 9, 307.65 13.01, 321.29 17.62 C334.93 22.24, 346.34 28.87, 354.8 34.93 C363.26 40.99, 369.63 47.24, 372.04 53.98 C374.45 60.71, 373.91 68.71, 369.25 75.34 C364.59 81.97, 355.01 88.15, 344.1 93.76 C333.19 99.37, 319.41 104.59, 303.79 109 C288.18 113.41, 269.12 117.59, 250.39 120.23 C231.66 122.87, 211.34 124.6, 191.43 124.84 C171.53 125.08, 150.05 123.69, 130.95 121.67 C111.85 119.66, 93.36 116.8, 76.83 112.75 C60.3 108.7, 43.46 102.88, 31.75 97.36 C20.05 91.83, 11.96 85.93, 6.62 79.58 C1.27 73.23, -1.44 65.95, -0.32 59.27 C0.8 52.58, 5.67 45.96, 13.34 39.47 C21.01 32.97, 32.46 25.31, 45.7 20.31 C58.94 15.3, 74.97 12.66, 92.79 9.42 C110.61 6.19, 132.62 2.34, 152.62 0.89 C172.62 -0.56, 192.76 -0.12, 212.78 0.7 C232.81 1.53, 263.44 4.81, 272.79 5.84 C282.14 6.86, 270.71 6.01, 268.87 6.84" stroke="#1e1e1e" stroke-width="1" fill="none"></path></g><g stroke-linecap="round"><g transform="translate(32 67) rotate(0 -0.2822098771812591 76.71072344208136)"><path d="M0.67 -0.73 C0.7 24.76, 0.15 127.37, -0.16 153.09 M-0.44 1.5 C-0.55 27.1, -1.44 128.62, -1.19 154.15" stroke="#1e1e1e" stroke-width="1" fill="none"></path></g></g><mask></mask><g stroke-linecap="round"><g transform="translate(406 70) rotate(0 -0.5132376356016266 74.2094157471694)"><path d="M0.66 -0.65 C0.44 23.91, -0.44 123.02, -0.48 148.04 M-0.45 1.63 C-0.95 26.24, -1.73 124.78, -1.69 149.07" stroke="#1e1e1e" stroke-width="1" fill="none"></path></g></g><mask></mask><g transform="translate(10 409) rotate(0 0.00004999999998744897 0.00004999999998744897)" stroke="none"><path fill="#ffffff" d="M 1.57,-1.57 Q 1.57,-1.57 1.77,-1.27 1.98,-0.98 2.09,-0.64 2.20,-0.29 2.19,0.05 2.18,0.41 2.05,0.75 1.93,1.09 1.70,1.37 1.48,1.65 1.18,1.84 0.87,2.04 0.52,2.12 0.18,2.21 -0.17,2.18 -0.53,2.15 -0.86,2.01 -1.19,1.87 -1.46,1.63 -1.73,1.39 -1.90,1.07 -2.08,0.76 -2.15,0.41 -2.21,0.05 -2.17,-0.29 -2.12,-0.65 -1.96,-0.97 -1.80,-1.29 -1.54,-1.54 -1.29,-1.80 -0.97,-1.96 -0.65,-2.12 -0.29,-2.17 0.06,-2.21 0.41,-2.15 0.76,-2.08 1.07,-1.90 1.39,-1.73 1.63,-1.46 1.87,-1.19 2.01,-0.86 2.15,-0.53 2.18,-0.17 2.21,0.18 2.12,0.52 2.03,0.87 1.84,1.18 1.65,1.48 1.37,1.70 1.09,1.93 0.75,2.05 0.41,2.18 0.05,2.19 -0.30,2.20 -0.64,2.09 -0.98,1.98 -1.27,1.77 -1.57,1.56 -1.57,1.57 -1.57,1.57 -1.73,1.35 -1.90,1.14 -2.01,0.90 -2.12,0.66 -2.16,0.39 -2.21,0.13 -2.20,-0.13 -2.18,-0.40 -2.10,-0.65 -2.02,-0.91 -1.88,-1.14 -1.74,-1.36 -1.55,-1.55 -1.36,-1.74 -1.14,-1.88 -0.91,-2.02 -0.65,-2.10 -0.40,-2.18 -0.13,-2.20 0.13,-2.21 0.39,-2.16 0.66,-2.12 0.90,-2.01 1.14,-1.90 1.35,-1.73 1.57,-1.57 1.57,-1.57 L 1.57,-1.57 Z"></path></g><g transform="translate(41 203) rotate(0 20.5 -6)" stroke="none"><path fill="#ffffff" d="M -0.39,-2.35 Q -0.39,-2.35 1.34,-2.59 3.07,-2.83 4.45,-3.00 5.84,-3.16 7.43,-3.44 9.03,-3.72 10.54,-4.12 12.06,-4.52 13.44,-4.77 14.81,-5.03 16.42,-5.34 18.02,-5.66 19.74,-6.58 21.47,-7.51 22.60,-8.10 23.73,-8.69 24.71,-9.24 25.68,-9.80 27.23,-10.28 28.77,-10.76 29.66,-11.40 30.56,-12.04 31.52,-12.56 32.49,-13.09 33.62,-13.71 34.75,-14.34 35.54,-15.23 36.34,-16.12 37.35,-16.68 38.36,-17.24 39.51,-17.86 40.66,-18.47 40.88,-17.01 41.10,-15.54 39.35,-15.55 37.60,-15.55 35.10,-15.70 32.59,-15.85 30.70,-16.01 28.80,-16.16 27.03,-16.04 25.26,-15.91 23.78,-15.78 22.30,-15.65 21.01,-15.36 19.73,-15.07 18.21,-14.38 16.69,-13.69 15.84,-12.37 15.00,-11.05 14.54,-10.02 14.08,-8.99 13.26,-7.95 12.43,-6.90 11.75,-5.70 11.06,-4.49 10.06,-3.44 9.06,-2.40 7.99,-1.68 6.92,-0.96 5.63,-0.22 4.33,0.51 3.43,1.89 2.54,3.27 2.06,4.28 1.58,5.29 1.10,6.31 0.61,7.32 0.80,7.24 0.98,7.16 0.88,7.58 0.77,7.99 0.57,8.37 0.37,8.75 0.09,9.07 -0.19,9.39 -0.54,9.63 -0.90,9.87 -1.30,10.02 -1.70,10.17 -2.13,10.22 -2.55,10.27 -2.98,10.22 -3.40,10.17 -3.80,10.01 -4.20,9.86 -4.56,9.61 -4.91,9.37 -5.19,9.04 -5.47,8.72 -5.67,8.34 -5.87,7.96 -5.97,7.54 -6.07,7.13 -6.07,6.70 -6.06,6.27 -5.24,4.47 -4.41,2.67 -3.56,1.52 -2.71,0.37 -1.74,-0.92 -0.78,-2.22 0.62,-3.62 2.02,-5.02 5.71,-5.67 9.39,-6.31 9.86,-5.97 10.34,-5.64 10.68,-5.17 11.02,-4.70 11.19,-4.14 11.36,-3.59 11.35,-3.01 11.34,-2.42 11.14,-1.88 10.94,-1.33 10.58,-0.88 10.21,-0.42 9.73,-0.11 9.24,0.20 8.67,0.34 8.11,0.48 7.53,0.43 6.95,0.39 6.42,0.16 5.88,-0.06 5.45,-0.44 5.02,-0.83 4.73,-1.33 4.44,-1.84 4.33,-2.41 4.22,-2.98 4.29,-3.55 4.37,-4.13 4.63,-4.65 4.88,-5.17 5.29,-5.58 5.70,-6.00 6.22,-6.26 6.74,-6.52 7.32,-6.60 7.89,-6.68 8.46,-6.57 9.03,-6.46 9.54,-6.18 10.05,-5.89 10.44,-5.46 10.82,-5.03 11.06,-4.50 11.29,-3.97 11.34,-3.39 11.39,-2.81 11.25,-2.24 11.11,-1.68 10.80,-1.19 10.49,-0.70 10.04,-0.33 9.58,0.02 9.04,0.22 8.50,0.43 7.92,0.44 7.33,0.46 6.78,0.29 6.22,0.12 6.22,0.12 6.22,0.13 7.32,-0.61 8.42,-1.36 7.47,-0.51 6.51,0.33 5.54,0.86 4.57,1.39 3.94,2.67 3.31,3.95 2.15,5.56 0.98,7.16 0.88,7.58 0.77,7.99 0.57,8.37 0.37,8.75 0.09,9.07 -0.19,9.39 -0.54,9.63 -0.90,9.87 -1.30,10.02 -1.70,10.17 -2.13,10.22 -2.55,10.27 -2.98,10.22 -3.40,10.17 -3.80,10.01 -4.20,9.86 -4.56,9.61 -4.91,9.37 -5.19,9.04 -5.47,8.72 -5.67,8.34 -5.87,7.96 -5.97,7.54 -6.07,7.13 -6.07,6.70 -6.06,6.27 -5.60,5.27 -5.13,4.27 -4.61,3.28 -4.09,2.28 -3.56,1.28 -3.04,0.28 -2.44,-0.81 -1.84,-1.91 -1.02,-2.74 -0.20,-3.56 0.54,-4.35 1.29,-5.13 2.33,-5.82 3.38,-6.51 4.35,-7.26 5.32,-8.01 6.28,-8.89 7.24,-9.77 8.25,-11.18 9.26,-12.59 9.93,-14.16 10.60,-15.74 12.27,-17.13 13.94,-18.52 15.09,-18.74 16.24,-18.97 17.41,-19.45 18.58,-19.93 20.21,-20.31 21.85,-20.70 23.19,-20.81 24.52,-20.93 26.66,-21.38 28.80,-21.82 30.70,-21.98 32.60,-22.13 35.15,-22.27 37.69,-22.40 39.57,-22.38 41.46,-22.36 42.74,-22.13 44.02,-21.90 45.07,-21.08 46.12,-20.25 46.53,-18.71 46.93,-17.17 45.60,-15.30 44.27,-13.43 43.50,-12.67 42.74,-11.92 41.55,-11.38 40.36,-10.83 39.24,-10.18 38.12,-9.53 37.07,-8.70 36.02,-7.87 34.99,-7.40 33.96,-6.93 32.88,-6.46 31.80,-5.99 30.29,-5.57 28.78,-5.14 27.65,-4.67 26.51,-4.19 25.04,-3.63 23.56,-3.07 22.52,-2.63 21.47,-2.18 20.23,-1.71 19.00,-1.25 17.24,-0.84 15.49,-0.42 14.36,-0.31 13.24,-0.19 11.58,0.26 9.92,0.73 8.10,1.12 6.28,1.52 5.05,1.60 3.82,1.68 2.10,2.01 0.39,2.35 0.10,2.36 -0.18,2.37 -0.46,2.32 -0.74,2.26 -1.00,2.14 -1.26,2.02 -1.49,1.84 -1.71,1.65 -1.88,1.43 -2.06,1.20 -2.17,0.93 -2.28,0.67 -2.33,0.38 -2.38,0.10 -2.36,-0.18 -2.33,-0.46 -2.24,-0.74 -2.15,-1.01 -2.00,-1.25 -1.85,-1.50 -1.64,-1.70 -1.44,-1.90 -1.19,-2.04 -0.94,-2.19 -0.66,-2.27 -0.39,-2.35 -0.39,-2.35 L -0.39,-2.35 Z"></path></g><g transform="translate(35.774369342998966 212.8891661642889) rotate(0 55.92820874683463 -24.05230149320397)" stroke="none"><path fill="#ffffff" d="M -2.25,-0.75 Q -2.25,-0.75 -2.17,-1.13 -2.09,-1.50 -2.11,-3.02 -2.13,-4.53 -1.88,-5.63 -1.62,-6.73 -1.19,-7.93 -0.76,-9.13 -0.23,-10.18 0.28,-11.23 1.09,-12.34 1.89,-13.45 2.55,-14.30 3.20,-15.16 3.90,-15.98 4.59,-16.81 5.52,-17.92 6.44,-19.03 7.35,-20.01 8.25,-20.98 9.36,-21.91 10.47,-22.84 11.60,-23.58 12.74,-24.31 14.06,-24.95 15.38,-25.59 16.88,-26.16 18.38,-26.73 19.40,-27.21 20.42,-27.69 21.79,-28.40 23.16,-29.10 24.24,-29.61 25.33,-30.12 26.53,-30.67 27.73,-31.22 28.87,-31.86 30.01,-32.50 31.14,-32.96 32.27,-33.42 33.31,-33.90 34.35,-34.38 35.43,-34.93 36.51,-35.47 37.72,-35.94 38.94,-36.42 40.31,-37.03 41.68,-37.65 42.83,-38.09 43.97,-38.53 45.29,-39.12 46.60,-39.71 48.31,-40.16 50.02,-40.60 51.24,-40.84 52.47,-41.07 53.53,-41.23 54.60,-41.40 55.68,-41.59 56.75,-41.79 58.25,-42.15 59.75,-42.51 61.13,-42.86 62.52,-43.21 64.38,-43.58 66.25,-43.94 67.53,-44.14 68.80,-44.34 70.69,-44.68 72.59,-45.01 74.17,-45.37 75.75,-45.72 77.30,-46.03 78.84,-46.33 80.27,-46.70 81.70,-47.07 83.05,-47.35 84.41,-47.62 85.69,-47.81 86.97,-48.01 88.22,-48.21 89.46,-48.42 90.76,-48.58 92.05,-48.74 93.21,-48.89 94.38,-49.03 95.88,-49.22 97.37,-49.41 98.94,-49.71 100.50,-50.02 101.58,-50.19 102.67,-50.37 103.83,-50.53 104.99,-50.70 106.23,-50.84 107.47,-50.98 109.28,-51.26 111.09,-51.55 111.66,-51.55 112.23,-51.56 112.77,-51.38 113.32,-51.20 113.77,-50.85 114.23,-50.51 114.55,-50.04 114.87,-49.57 115.03,-49.02 115.18,-48.47 115.16,-47.90 115.13,-47.33 114.92,-46.80 114.71,-46.26 114.34,-45.83 113.97,-45.39 113.49,-45.09 113.00,-44.80 112.44,-44.67 111.88,-44.55 111.32,-44.61 110.75,-44.67 110.23,-44.90 109.71,-45.14 109.29,-45.53 108.88,-45.92 108.61,-46.43 108.34,-46.93 108.24,-47.49 108.15,-48.05 108.24,-48.62 108.33,-49.18 108.59,-49.69 108.86,-50.19 109.27,-50.59 109.68,-50.98 110.20,-51.22 110.72,-51.47 111.29,-51.53 111.85,-51.59 112.41,-51.47 112.97,-51.35 113.46,-51.06 113.95,-50.77 114.32,-50.34 114.69,-49.90 114.91,-49.37 115.12,-48.84 115.15,-48.27 115.19,-47.70 115.04,-47.15 114.89,-46.60 114.57,-46.13 114.25,-45.65 113.80,-45.31 113.34,-44.96 112.80,-44.78 112.26,-44.59 112.26,-44.59 112.26,-44.59 109.58,-44.24 106.90,-43.89 105.74,-43.73 104.59,-43.58 103.52,-43.44 102.46,-43.30 101.09,-43.07 99.73,-42.84 98.55,-42.66 97.38,-42.47 96.32,-42.29 95.26,-42.11 94.04,-41.97 92.82,-41.83 91.67,-41.68 90.53,-41.54 89.11,-41.31 87.69,-41.08 86.33,-40.87 84.97,-40.66 83.51,-40.32 82.05,-39.98 80.40,-39.56 78.75,-39.14 77.36,-38.84 75.97,-38.53 74.88,-38.30 73.79,-38.07 72.33,-37.79 70.86,-37.51 69.62,-37.29 68.38,-37.07 67.15,-36.83 65.93,-36.58 64.77,-36.27 63.60,-35.95 61.94,-35.52 60.28,-35.08 58.85,-34.76 57.42,-34.44 56.16,-34.20 54.90,-33.95 53.54,-33.70 52.17,-33.45 50.91,-33.16 49.66,-32.87 48.56,-32.42 47.45,-31.96 46.14,-31.47 44.84,-30.97 43.55,-30.41 42.27,-29.84 41.19,-29.42 40.11,-29.01 38.97,-28.49 37.82,-27.98 36.29,-27.28 34.75,-26.58 33.73,-26.16 32.70,-25.73 31.36,-25.00 30.03,-24.26 28.77,-23.73 27.51,-23.20 26.10,-22.47 24.68,-21.74 23.69,-21.25 22.70,-20.76 21.14,-20.05 19.59,-19.34 18.17,-18.71 16.76,-18.07 15.74,-17.48 14.71,-16.88 13.78,-16.07 12.84,-15.26 11.97,-14.42 11.09,-13.58 10.34,-12.73 9.58,-11.87 8.63,-10.81 7.68,-9.75 6.92,-8.97 6.16,-8.19 5.53,-7.34 4.89,-6.48 4.32,-5.34 3.75,-4.20 3.38,-3.18 3.00,-2.17 2.79,-1.06 2.58,0.04 2.42,0.40 2.25,0.75 2.13,1.01 2.01,1.27 1.83,1.49 1.64,1.71 1.42,1.88 1.19,2.06 0.92,2.17 0.66,2.28 0.38,2.33 0.09,2.37 -0.18,2.35 -0.47,2.33 -0.74,2.24 -1.01,2.15 -1.26,1.99 -1.50,1.84 -1.70,1.63 -1.90,1.43 -2.04,1.18 -2.18,0.93 -2.26,0.65 -2.34,0.38 -2.36,0.09 -2.37,-0.19 -2.31,-0.47 -2.25,-0.75 -2.25,-0.75 L -2.25,-0.75 Z"></path></g><g transform="translate(145.9620764860333 167.06760127558402) rotate(0 80.4265429620338 -4.365076958590748)" stroke="none"><path fill="#ffffff" d="M -0.70,-2.46 Q -0.70,-2.46 0.61,-2.83 1.93,-3.21 4.12,-3.74 6.31,-4.26 7.92,-4.50 9.53,-4.75 11.61,-5.09 13.69,-5.43 15.25,-5.80 16.81,-6.17 18.69,-6.54 20.57,-6.91 22.30,-7.26 24.04,-7.62 25.66,-7.89 27.28,-8.16 28.60,-8.54 29.91,-8.91 31.25,-9.27 32.60,-9.63 34.14,-10.03 35.68,-10.42 37.43,-10.63 39.18,-10.84 40.98,-10.96 42.77,-11.07 44.46,-11.19 46.14,-11.30 47.79,-11.41 49.43,-11.53 51.18,-11.58 52.94,-11.64 54.38,-11.66 55.82,-11.69 57.25,-11.71 58.67,-11.73 60.22,-11.73 61.76,-11.73 62.91,-11.81 64.06,-11.89 65.30,-11.97 66.54,-12.06 68.40,-12.07 70.26,-12.09 71.61,-12.09 72.96,-12.10 74.90,-12.04 76.84,-11.99 78.21,-11.81 79.59,-11.63 80.72,-11.57 81.86,-11.50 83.26,-11.48 84.66,-11.46 86.13,-11.45 87.61,-11.44 89.04,-11.44 90.47,-11.43 91.98,-11.43 93.49,-11.42 95.09,-11.35 96.69,-11.27 98.34,-11.15 99.99,-11.03 101.33,-10.99 102.67,-10.96 103.82,-10.88 104.98,-10.80 106.43,-10.62 107.87,-10.45 109.55,-10.30 111.23,-10.15 112.92,-10.09 114.61,-10.02 116.20,-9.95 117.79,-9.89 119.47,-9.70 121.14,-9.52 122.87,-9.36 124.60,-9.20 126.04,-9.04 127.48,-8.87 128.80,-8.79 130.11,-8.71 131.72,-8.56 133.33,-8.40 135.06,-8.16 136.80,-7.92 139.02,-7.71 141.25,-7.51 142.92,-7.47 144.59,-7.43 145.71,-7.36 146.83,-7.30 148.54,-7.15 150.24,-6.99 151.54,-6.90 152.84,-6.82 154.06,-6.75 155.27,-6.68 157.72,-6.43 160.17,-6.17 160.67,-6.02 161.17,-5.88 161.60,-5.58 162.03,-5.28 162.34,-4.86 162.65,-4.43 162.81,-3.94 162.97,-3.44 162.96,-2.92 162.95,-2.39 162.78,-1.90 162.60,-1.41 162.28,-1.00 161.96,-0.59 161.52,-0.30 161.08,-0.01 160.58,0.11 160.07,0.24 159.55,0.20 159.03,0.17 158.55,-0.02 158.07,-0.23 157.67,-0.57 157.28,-0.91 157.02,-1.37 156.75,-1.82 156.65,-2.33 156.55,-2.84 156.61,-3.36 156.68,-3.88 156.90,-4.35 157.13,-4.82 157.49,-5.19 157.86,-5.57 158.32,-5.80 158.79,-6.04 159.31,-6.12 159.82,-6.19 160.34,-6.10 160.85,-6.01 161.31,-5.76 161.77,-5.51 162.12,-5.12 162.47,-4.74 162.69,-4.26 162.90,-3.78 162.95,-3.26 162.99,-2.74 162.87,-2.23 162.75,-1.72 162.48,-1.28 162.20,-0.84 161.80,-0.51 161.39,-0.17 160.91,0.00 160.42,0.19 159.90,0.21 159.37,0.23 159.37,0.23 159.37,0.23 157.54,0.04 155.70,-0.14 154.56,-0.32 153.42,-0.51 151.87,-0.76 150.33,-1.02 149.14,-1.21 147.95,-1.41 146.20,-1.61 144.46,-1.81 142.54,-1.96 140.63,-2.10 138.46,-2.34 136.29,-2.58 134.66,-2.66 133.04,-2.74 131.48,-2.75 129.92,-2.75 128.49,-2.76 127.06,-2.76 125.60,-2.80 124.14,-2.83 122.25,-2.97 120.37,-3.10 118.85,-3.25 117.34,-3.39 115.93,-3.47 114.53,-3.54 112.67,-3.57 110.81,-3.60 109.00,-3.70 107.19,-3.79 105.94,-3.95 104.69,-4.12 103.62,-4.23 102.55,-4.35 101.06,-4.40 99.57,-4.46 97.92,-4.54 96.28,-4.62 94.88,-4.67 93.49,-4.72 91.98,-4.71 90.47,-4.71 89.04,-4.70 87.60,-4.70 86.11,-4.69 84.62,-4.69 83.15,-4.70 81.68,-4.71 80.09,-4.81 78.51,-4.91 77.40,-5.06 76.28,-5.21 74.62,-5.28 72.96,-5.35 71.61,-5.36 70.27,-5.36 69.06,-5.36 67.85,-5.36 66.21,-5.37 64.58,-5.38 63.17,-5.33 61.76,-5.28 60.22,-5.28 58.67,-5.29 57.26,-5.30 55.84,-5.31 54.43,-5.33 53.02,-5.34 51.44,-5.30 49.86,-5.26 48.22,-5.15 46.57,-5.05 44.89,-4.94 43.20,-4.83 41.48,-4.70 39.77,-4.58 38.31,-4.43 36.86,-4.28 35.51,-3.96 34.16,-3.64 32.78,-3.33 31.40,-3.02 29.81,-2.64 28.21,-2.27 26.59,-2.07 24.98,-1.86 23.24,-1.57 21.50,-1.27 19.67,-0.98 17.84,-0.70 16.12,-0.43 14.41,-0.16 12.40,0.05 10.39,0.28 8.94,0.56 7.48,0.84 5.41,1.27 3.33,1.70 2.02,2.08 0.70,2.46 0.39,2.50 0.09,2.55 -0.21,2.53 -0.52,2.50 -0.81,2.40 -1.10,2.30 -1.36,2.14 -1.62,1.97 -1.83,1.75 -2.05,1.53 -2.20,1.26 -2.35,0.99 -2.44,0.69 -2.52,0.40 -2.53,0.09 -2.55,-0.21 -2.48,-0.51 -2.42,-0.81 -2.29,-1.09 -2.15,-1.37 -1.96,-1.61 -1.76,-1.85 -1.51,-2.03 -1.27,-2.22 -0.98,-2.34 -0.70,-2.46 -0.70,-2.46 L -0.70,-2.46 Z"></path></g><g transform="translate(151.85493038013078 161.61125507734562) rotate(0 9.166661613040446 -1.418650011542013)" stroke="none"><path fill="#ffffff" d="M -0.58,-2.44 Q -0.58,-2.44 0.98,-2.78 2.56,-3.13 3.70,-3.40 4.85,-3.66 6.60,-3.85 8.35,-4.04 10.71,-4.34 13.07,-4.65 15.57,-5.05 18.08,-5.46 18.50,-5.40 18.92,-5.35 19.31,-5.17 19.69,-4.98 20.00,-4.69 20.30,-4.39 20.50,-4.01 20.69,-3.63 20.75,-3.21 20.81,-2.79 20.74,-2.37 20.66,-1.95 20.46,-1.58 20.25,-1.20 19.94,-0.92 19.63,-0.63 19.24,-0.45 18.85,-0.28 18.43,-0.24 18.00,-0.20 17.59,-0.30 17.17,-0.40 16.81,-0.62 16.45,-0.85 16.18,-1.17 15.91,-1.50 15.76,-1.90 15.61,-2.30 15.59,-2.72 15.57,-3.15 15.69,-3.56 15.81,-3.97 16.06,-4.32 16.30,-4.66 16.64,-4.92 16.99,-5.17 17.39,-5.30 17.80,-5.43 18.22,-5.42 18.65,-5.42 19.05,-5.27 19.45,-5.13 19.79,-4.87 20.12,-4.61 20.35,-4.25 20.59,-3.90 20.70,-3.48 20.80,-3.07 20.77,-2.65 20.74,-2.22 20.58,-1.83 20.42,-1.44 20.14,-1.12 19.86,-0.80 19.49,-0.58 19.12,-0.37 18.70,-0.28 18.29,-0.20 18.29,-0.20 18.29,-0.20 15.96,0.06 13.64,0.33 11.31,0.55 8.99,0.76 7.41,1.01 5.84,1.27 4.77,1.44 3.70,1.62 2.14,2.03 0.58,2.44 0.28,2.47 -0.01,2.51 -0.31,2.47 -0.61,2.43 -0.89,2.32 -1.18,2.21 -1.43,2.04 -1.67,1.87 -1.87,1.64 -2.07,1.41 -2.21,1.14 -2.35,0.87 -2.42,0.58 -2.49,0.28 -2.49,-0.01 -2.49,-0.31 -2.41,-0.61 -2.34,-0.90 -2.20,-1.17 -2.05,-1.44 -1.85,-1.66 -1.65,-1.89 -1.40,-2.06 -1.15,-2.23 -0.87,-2.33 -0.58,-2.44 -0.58,-2.44 L -0.58,-2.44 Z"></path></g><g transform="translate(155.12873809907376 161.3930012294161) rotate(0 9.057534689075737 -0.5456346198238293)" stroke="none"><path fill="#ffffff" d="M -0.07,-2.13 Q -0.07,-2.13 1.68,-2.17 3.43,-2.21 6.67,-2.32 9.90,-2.43 11.90,-2.54 13.91,-2.64 15.59,-2.81 17.27,-2.98 17.58,-2.95 17.89,-2.91 18.18,-2.78 18.46,-2.65 18.69,-2.43 18.92,-2.22 19.06,-1.94 19.21,-1.67 19.26,-1.36 19.31,-1.05 19.26,-0.74 19.21,-0.43 19.07,-0.15 18.92,0.11 18.69,0.33 18.47,0.55 18.18,0.68 17.90,0.81 17.59,0.84 17.27,0.88 16.97,0.81 16.66,0.74 16.39,0.58 16.12,0.42 15.92,0.18 15.72,-0.04 15.60,-0.33 15.49,-0.63 15.47,-0.94 15.45,-1.25 15.53,-1.55 15.62,-1.86 15.79,-2.11 15.97,-2.37 16.22,-2.56 16.47,-2.75 16.76,-2.85 17.06,-2.96 17.37,-2.96 17.69,-2.96 17.98,-2.86 18.28,-2.76 18.53,-2.57 18.78,-2.38 18.96,-2.12 19.13,-1.86 19.22,-1.56 19.30,-1.26 19.28,-0.94 19.27,-0.63 19.15,-0.34 19.04,-0.05 18.83,0.18 18.63,0.42 18.36,0.58 18.10,0.74 17.79,0.81 17.48,0.88 17.48,0.88 17.48,0.88 15.83,0.90 14.18,0.91 12.16,1.12 10.15,1.32 6.87,1.64 3.58,1.96 1.83,2.05 0.07,2.13 -0.18,2.11 -0.43,2.09 -0.68,2.00 -0.92,1.92 -1.14,1.78 -1.35,1.64 -1.53,1.46 -1.71,1.27 -1.84,1.05 -1.96,0.82 -2.03,0.58 -2.10,0.33 -2.11,0.07 -2.12,-0.18 -2.07,-0.43 -2.02,-0.68 -1.91,-0.91 -1.79,-1.14 -1.63,-1.34 -1.47,-1.54 -1.26,-1.70 -1.05,-1.85 -0.82,-1.95 -0.58,-2.05 -0.33,-2.09 -0.07,-2.13 -0.07,-2.13 L -0.07,-2.13 Z"></path></g><g transform="translate(401.64248580222784 215.87003131757308) rotate(0 -48.48113489544909 -24.988933959533426)" stroke="none"><path fill="#ffffff" d="M -2.33,-0.46 Q -2.33,-0.46 -2.29,-0.84 -2.26,-1.23 -2.45,-2.31 -2.65,-3.39 -2.94,-4.49 -3.23,-5.59 -4.08,-6.50 -4.93,-7.40 -5.76,-8.45 -6.59,-9.50 -7.27,-10.32 -7.95,-11.14 -9.15,-12.13 -10.34,-13.11 -11.61,-13.52 -12.88,-13.92 -13.87,-14.37 -14.85,-14.81 -15.83,-15.51 -16.81,-16.22 -17.80,-16.76 -18.78,-17.31 -19.92,-17.90 -21.06,-18.50 -22.11,-19.02 -23.15,-19.54 -24.54,-20.34 -25.92,-21.13 -26.79,-21.76 -27.66,-22.38 -28.59,-23.04 -29.52,-23.69 -30.43,-24.29 -31.34,-24.90 -32.32,-25.33 -33.30,-25.77 -34.51,-26.17 -35.72,-26.57 -36.74,-26.95 -37.75,-27.33 -38.83,-27.72 -39.92,-28.11 -40.98,-28.31 -42.04,-28.51 -43.23,-28.74 -44.42,-28.97 -45.52,-29.15 -46.62,-29.33 -47.98,-29.63 -49.33,-29.94 -50.43,-30.23 -51.54,-30.52 -52.76,-30.87 -53.99,-31.22 -55.39,-31.82 -56.79,-32.41 -57.74,-32.98 -58.69,-33.56 -59.91,-34.27 -61.13,-34.98 -62.09,-35.66 -63.05,-36.33 -64.57,-37.89 -66.09,-39.44 -65.15,-41.45 -64.20,-43.46 -62.74,-43.90 -61.28,-44.33 -60.07,-44.14 -58.85,-43.95 -57.77,-43.74 -56.69,-43.52 -55.53,-43.23 -54.38,-42.93 -52.89,-42.52 -51.40,-42.12 -50.05,-41.60 -48.70,-41.08 -47.39,-40.55 -46.07,-40.02 -45.09,-39.59 -44.11,-39.16 -42.85,-38.83 -41.59,-38.50 -40.27,-38.01 -38.95,-37.52 -38.36,-37.27 -37.76,-37.02 -37.36,-36.79 -36.96,-36.57 -36.62,-36.25 -36.29,-35.94 -36.04,-35.55 -35.79,-35.17 -35.63,-34.73 -35.48,-34.30 -35.44,-33.84 -35.40,-33.38 -35.46,-32.93 -35.53,-32.47 -35.71,-32.05 -35.88,-31.62 -36.15,-31.25 -36.42,-30.88 -36.78,-30.58 -37.13,-30.29 -37.54,-30.08 -37.96,-29.88 -38.40,-29.78 -38.85,-29.68 -39.31,-29.70 -39.77,-29.71 -40.22,-29.83 -40.66,-29.95 -41.77,-30.46 -42.89,-30.96 -44.46,-31.35 -46.04,-31.75 -47.11,-32.02 -48.18,-32.29 -50.40,-32.88 -52.61,-33.47 -54.65,-34.06 -56.69,-34.64 -59.25,-35.14 -61.81,-35.63 -63.45,-36.01 -65.08,-36.39 -66.96,-36.74 -68.83,-37.09 -69.89,-37.42 -70.95,-37.74 -72.01,-39.01 -73.08,-40.27 -72.53,-41.91 -71.98,-43.55 -71.00,-44.38 -70.01,-45.20 -68.70,-45.92 -67.38,-46.65 -67.58,-44.84 -67.78,-43.03 -67.27,-42.05 -66.76,-41.08 -68.06,-41.30 -69.35,-41.52 -70.60,-41.82 -71.86,-42.12 -73.22,-42.65 -74.58,-43.19 -75.88,-43.58 -77.18,-43.98 -78.45,-44.27 -79.73,-44.57 -80.81,-44.83 -81.90,-45.08 -82.97,-45.17 -84.04,-45.25 -85.31,-45.43 -86.59,-45.60 -87.92,-45.73 -89.25,-45.85 -90.57,-46.00 -91.89,-46.14 -94.51,-46.22 -97.13,-46.30 -97.71,-46.40 -98.30,-46.49 -98.82,-46.77 -99.35,-47.05 -99.76,-47.48 -100.16,-47.91 -100.41,-48.45 -100.66,-48.99 -100.73,-49.58 -100.79,-50.17 -100.66,-50.75 -100.54,-51.33 -100.23,-51.84 -99.92,-52.35 -99.47,-52.73 -99.02,-53.12 -98.47,-53.34 -97.91,-53.56 -97.32,-53.59 -96.73,-53.62 -96.16,-53.46 -95.58,-53.30 -95.09,-52.97 -94.60,-52.64 -94.24,-52.17 -93.88,-51.69 -93.69,-51.13 -93.50,-50.57 -93.50,-49.97 -93.50,-49.38 -93.69,-48.82 -93.88,-48.25 -94.24,-47.78 -94.60,-47.31 -95.09,-46.97 -95.58,-46.64 -96.16,-46.48 -96.73,-46.32 -97.32,-46.35 -97.92,-46.39 -98.47,-46.61 -99.02,-46.83 -99.47,-47.21 -99.92,-47.60 -100.23,-48.11 -100.54,-48.61 -100.66,-49.20 -100.79,-49.78 -100.73,-50.37 -100.66,-50.96 -100.41,-51.50 -100.16,-52.03 -99.75,-52.47 -99.35,-52.90 -98.82,-53.17 -98.30,-53.45 -97.71,-53.55 -97.12,-53.64 -97.12,-53.64 -97.12,-53.64 -95.22,-53.63 -93.31,-53.61 -91.85,-53.50 -90.39,-53.39 -88.85,-53.21 -87.32,-53.03 -85.76,-52.83 -84.20,-52.63 -82.76,-52.45 -81.32,-52.26 -80.24,-52.07 -79.15,-51.87 -77.69,-51.46 -76.23,-51.04 -75.12,-50.76 -74.01,-50.47 -72.39,-49.89 -70.76,-49.31 -69.78,-48.88 -68.80,-48.45 -67.47,-48.16 -66.15,-47.87 -65.07,-47.54 -64.00,-47.22 -63.06,-45.99 -62.13,-44.76 -62.43,-43.04 -62.73,-41.31 -64.08,-40.95 -65.43,-40.58 -66.52,-40.23 -67.62,-39.88 -67.47,-41.15 -67.33,-42.41 -65.72,-41.98 -64.11,-41.55 -62.46,-41.31 -60.81,-41.07 -58.27,-40.68 -55.73,-40.29 -53.53,-40.15 -51.33,-40.01 -49.07,-39.68 -46.80,-39.35 -45.05,-39.04 -43.30,-38.72 -42.20,-38.51 -41.09,-38.30 -39.43,-37.66 -37.76,-37.02 -37.36,-36.79 -36.96,-36.57 -36.62,-36.25 -36.29,-35.94 -36.04,-35.55 -35.79,-35.17 -35.63,-34.73 -35.48,-34.30 -35.44,-33.84 -35.40,-33.38 -35.46,-32.93 -35.53,-32.47 -35.71,-32.05 -35.88,-31.62 -36.15,-31.25 -36.42,-30.88 -36.78,-30.58 -37.13,-30.29 -37.54,-30.08 -37.95,-29.88 -38.40,-29.78 -38.85,-29.68 -39.31,-29.70 -39.77,-29.71 -40.22,-29.83 -40.66,-29.95 -41.64,-30.38 -42.62,-30.81 -43.64,-31.18 -44.67,-31.54 -45.85,-31.89 -47.03,-32.24 -48.32,-32.80 -49.61,-33.37 -51.06,-33.96 -52.51,-34.55 -53.54,-34.87 -54.56,-35.18 -55.98,-35.51 -57.41,-35.83 -58.51,-36.04 -59.61,-36.26 -60.59,-36.91 -61.56,-37.57 -60.64,-39.46 -59.72,-41.35 -60.68,-42.62 -61.64,-43.90 -60.55,-43.49 -59.47,-43.07 -58.26,-42.27 -57.05,-41.46 -55.96,-40.77 -54.87,-40.09 -53.85,-39.52 -52.83,-38.95 -51.45,-38.46 -50.07,-37.98 -48.72,-37.63 -47.37,-37.28 -46.12,-37.05 -44.86,-36.82 -43.34,-36.58 -41.81,-36.34 -40.52,-36.10 -39.23,-35.86 -38.01,-35.53 -36.79,-35.20 -35.69,-34.83 -34.59,-34.46 -33.46,-34.06 -32.33,-33.66 -30.95,-33.17 -29.57,-32.68 -28.34,-32.05 -27.11,-31.41 -26.12,-30.75 -25.13,-30.08 -24.22,-29.42 -23.31,-28.76 -22.44,-28.05 -21.58,-27.33 -20.53,-26.74 -19.48,-26.15 -18.47,-25.66 -17.45,-25.16 -16.18,-24.51 -14.91,-23.86 -13.84,-23.23 -12.77,-22.60 -11.93,-21.91 -11.09,-21.21 -10.05,-20.62 -9.02,-20.04 -8.07,-19.50 -7.12,-18.96 -6.00,-18.19 -4.87,-17.42 -3.84,-16.50 -2.81,-15.58 -2.00,-14.33 -1.19,-13.08 -0.41,-12.16 0.36,-11.25 0.96,-10.21 1.57,-9.18 2.09,-7.97 2.61,-6.76 2.54,-5.67 2.48,-4.59 2.70,-3.48 2.92,-2.37 2.74,-1.32 2.56,-0.26 2.44,0.10 2.33,0.46 2.24,0.73 2.15,1.01 1.99,1.25 1.84,1.49 1.64,1.69 1.43,1.89 1.18,2.03 0.94,2.18 0.66,2.26 0.39,2.34 0.10,2.35 -0.18,2.37 -0.46,2.31 -0.74,2.25 -1.00,2.13 -1.26,2.01 -1.48,1.83 -1.70,1.65 -1.88,1.42 -2.05,1.19 -2.16,0.93 -2.28,0.67 -2.32,0.38 -2.37,0.10 -2.35,-0.18 -2.33,-0.46 -2.33,-0.46 L -2.33,-0.46 Z"></path></g><g stroke-linecap="round"><g transform="translate(214.52937724991602 62.277696573765695) rotate(0 -43.55023020314417 31.45697471002873)"><path d="M1.16 -0.82 C-13.54 9.45, -72.25 51.82, -87.02 62.32 M0.31 1.36 C-14.7 11.76, -74.04 53.41, -88.26 63.74" stroke="#1e1e1e" stroke-width="1" fill="none"></path></g></g><mask></mask><g stroke-linecap="round"><g transform="translate(216.42195459816662 60.98462519171028) rotate(0 46.818116656854386 32.485153616903375)"><path d="M-0.66 0.68 C14.92 11.17, 78.63 53.34, 94.29 64.03 M1.2 -0.01 C16.6 11.11, 78.48 53.98, 93.69 64.98" stroke="#1e1e1e" stroke-width="1" fill="none"></path></g></g><mask></mask><g transform="translate(129.19642530184092 127.59387682355054) rotate(0 88.0333527378072 3.1723730716327054)" stroke="none"><path fill="#ffffff" d="M 1.44,-2.24 Q 1.44,-2.24 2.09,-1.86 2.75,-1.48 4.02,-1.22 5.29,-0.96 6.45,-0.91 7.61,-0.85 9.30,-0.88 11.00,-0.90 12.26,-0.93 13.51,-0.95 15.06,-0.90 16.60,-0.86 18.33,-0.83 20.07,-0.81 21.87,-0.66 23.67,-0.51 25.40,-0.35 27.12,-0.19 29.25,-0.06 31.38,0.06 32.58,0.15 33.79,0.25 35.29,0.44 36.78,0.63 38.11,0.71 39.44,0.80 40.69,0.88 41.95,0.96 43.25,1.06 44.55,1.15 45.88,1.21 47.20,1.26 48.59,1.30 49.97,1.34 51.39,1.33 52.80,1.32 54.08,1.30 55.36,1.28 56.90,1.35 58.45,1.42 59.97,1.47 61.50,1.52 62.88,1.57 64.26,1.62 65.87,1.77 67.48,1.92 68.92,2.02 70.35,2.12 71.86,2.26 73.37,2.41 75.03,2.64 76.70,2.87 78.05,2.98 79.40,3.09 81.11,3.19 82.83,3.29 84.74,3.30 86.65,3.31 88.14,3.33 89.63,3.36 90.95,3.32 92.27,3.28 93.56,3.26 94.84,3.23 96.35,3.29 97.85,3.34 99.43,3.48 101.02,3.62 102.81,3.62 104.60,3.62 106.03,3.56 107.46,3.50 108.99,3.39 110.52,3.27 111.77,3.11 113.02,2.95 114.52,2.84 116.01,2.73 117.67,2.71 119.33,2.68 122.04,2.65 124.74,2.63 126.31,2.67 127.89,2.71 130.08,2.67 132.27,2.64 133.37,2.62 134.47,2.61 135.87,2.51 137.28,2.41 138.43,2.19 139.57,1.97 140.74,1.80 141.92,1.63 143.15,1.40 144.38,1.18 145.99,0.91 147.60,0.64 148.88,0.52 150.15,0.40 151.45,0.17 152.75,-0.04 153.83,-0.16 154.91,-0.28 156.33,-0.51 157.76,-0.75 159.12,-1.04 160.48,-1.34 161.61,-1.41 162.74,-1.49 163.83,-1.67 164.92,-1.85 166.19,-2.02 167.45,-2.19 168.57,-2.45 169.69,-2.72 170.96,-2.90 172.22,-3.08 174.12,-3.25 176.01,-3.43 176.61,-3.33 177.21,-3.24 177.75,-2.95 178.28,-2.67 178.70,-2.23 179.12,-1.79 179.37,-1.24 179.63,-0.68 179.70,-0.08 179.76,0.51 179.63,1.11 179.50,1.70 179.19,2.22 178.87,2.74 178.41,3.14 177.95,3.53 177.39,3.75 176.82,3.98 176.21,4.01 175.61,4.05 175.02,3.88 174.44,3.72 173.93,3.38 173.43,3.04 173.06,2.56 172.70,2.07 172.50,1.50 172.31,0.92 172.31,0.31 172.31,-0.28 172.50,-0.86 172.69,-1.44 173.06,-1.92 173.43,-2.40 173.93,-2.74 174.43,-3.08 175.02,-3.25 175.60,-3.41 176.21,-3.38 176.82,-3.35 177.38,-3.12 177.95,-2.90 178.41,-2.50 178.87,-2.11 179.19,-1.59 179.50,-1.07 179.63,-0.48 179.76,0.11 179.70,0.71 179.63,1.32 179.38,1.87 179.12,2.42 178.70,2.86 178.29,3.30 177.75,3.59 177.21,3.87 176.61,3.97 176.01,4.07 176.01,4.07 176.01,4.07 174.18,4.26 172.35,4.45 170.89,4.57 169.43,4.69 167.84,4.96 166.26,5.23 165.16,5.32 164.06,5.42 162.65,5.54 161.25,5.65 159.63,5.92 158.02,6.18 156.84,6.33 155.67,6.48 154.30,6.58 152.94,6.68 151.41,6.85 149.88,7.01 148.18,7.14 146.49,7.27 144.85,7.51 143.22,7.75 141.85,7.82 140.48,7.89 139.02,8.04 137.57,8.18 136.02,8.18 134.47,8.17 133.38,8.16 132.28,8.14 130.11,8.12 127.93,8.10 126.38,8.17 124.83,8.23 122.33,8.38 119.83,8.53 118.04,8.80 116.25,9.07 114.85,9.11 113.45,9.16 112.16,9.19 110.87,9.23 109.15,9.20 107.43,9.16 105.97,9.08 104.51,9.00 102.58,8.87 100.66,8.74 99.19,8.67 97.72,8.59 96.32,8.58 94.93,8.56 93.69,8.57 92.45,8.59 91.05,8.64 89.65,8.70 88.18,8.73 86.70,8.77 84.53,8.63 82.37,8.50 80.66,8.22 78.95,7.94 77.54,7.80 76.13,7.66 74.53,7.50 72.93,7.35 71.48,7.23 70.03,7.11 68.58,7.02 67.12,6.94 65.59,6.86 64.05,6.78 62.75,6.72 61.45,6.67 59.88,6.69 58.31,6.70 56.87,6.70 55.43,6.69 54.19,6.70 52.95,6.72 51.43,6.79 49.92,6.86 48.50,6.87 47.07,6.88 45.65,6.87 44.23,6.87 42.93,6.81 41.63,6.76 40.43,6.70 39.22,6.65 37.75,6.63 36.28,6.62 34.85,6.56 33.42,6.51 32.24,6.46 31.06,6.42 29.89,6.39 28.72,6.36 27.65,6.34 26.58,6.31 24.83,6.16 23.08,6.00 21.36,5.87 19.64,5.74 18.05,5.65 16.45,5.56 14.98,5.48 13.51,5.39 12.24,5.36 10.98,5.33 9.52,5.30 8.06,5.26 6.80,5.16 5.55,5.05 4.23,4.79 2.91,4.52 1.35,3.82 -0.20,3.12 -0.82,2.68 -1.44,2.24 -1.68,2.03 -1.93,1.83 -2.12,1.57 -2.31,1.31 -2.44,1.01 -2.56,0.72 -2.61,0.40 -2.66,0.08 -2.63,-0.23 -2.60,-0.55 -2.50,-0.85 -2.39,-1.15 -2.22,-1.42 -2.05,-1.70 -1.81,-1.92 -1.58,-2.14 -1.30,-2.29 -1.02,-2.45 -0.71,-2.54 -0.40,-2.63 -0.08,-2.64 0.23,-2.65 0.54,-2.58 0.86,-2.52 1.15,-2.38 1.44,-2.24 1.44,-2.24 L 1.44,-2.24 Z"></path></g><g transform="translate(231.3468382084136 136.4765214241221) rotate(0 -24.665200631944174 -0.47585596074492287)" stroke="none"><path fill="#ffffff" d="M 0.60,2.43 Q 0.60,2.43 -0.47,2.74 -1.56,3.04 -3.28,3.36 -4.99,3.68 -6.95,3.76 -8.91,3.84 -11.75,3.72 -14.60,3.59 -16.42,3.64 -18.23,3.68 -20.36,3.75 -22.48,3.82 -23.95,3.69 -25.42,3.57 -26.82,3.42 -28.22,3.26 -29.68,3.04 -31.13,2.82 -32.42,2.65 -33.71,2.48 -35.52,2.32 -37.34,2.17 -39.34,2.01 -41.34,1.84 -42.97,1.70 -44.59,1.56 -47.14,1.29 -49.68,1.01 -50.16,0.85 -50.63,0.69 -51.03,0.38 -51.43,0.08 -51.70,-0.33 -51.98,-0.74 -52.12,-1.23 -52.25,-1.71 -52.22,-2.21 -52.19,-2.71 -52.00,-3.17 -51.82,-3.64 -51.49,-4.02 -51.16,-4.40 -50.73,-4.65 -50.30,-4.91 -49.82,-5.02 -49.33,-5.12 -48.83,-5.07 -48.33,-5.01 -47.88,-4.80 -47.42,-4.59 -47.06,-4.24 -46.70,-3.89 -46.47,-3.45 -46.23,-3.01 -46.16,-2.51 -46.08,-2.02 -46.16,-1.52 -46.24,-1.03 -46.48,-0.59 -46.71,-0.15 -47.08,0.18 -47.44,0.53 -47.90,0.74 -48.35,0.94 -48.85,1.00 -49.35,1.05 -49.84,0.94 -50.33,0.83 -50.76,0.57 -51.18,0.31 -51.51,-0.06 -51.83,-0.45 -52.01,-0.91 -52.20,-1.38 -52.22,-1.88 -52.25,-2.38 -52.11,-2.86 -51.97,-3.34 -51.69,-3.75 -51.41,-4.17 -51.01,-4.47 -50.61,-4.77 -50.13,-4.93 -49.66,-5.09 -49.16,-5.08 -48.66,-5.08 -48.66,-5.08 -48.66,-5.08 -46.21,-4.79 -43.76,-4.50 -42.31,-4.32 -40.86,-4.13 -38.79,-3.94 -36.72,-3.76 -34.67,-3.45 -32.63,-3.14 -31.51,-2.85 -30.39,-2.57 -29.04,-2.41 -27.70,-2.24 -26.37,-2.14 -25.05,-2.03 -23.76,-1.97 -22.47,-1.91 -20.70,-1.87 -18.93,-1.83 -17.77,-1.74 -16.62,-1.66 -15.55,-1.61 -14.48,-1.57 -11.73,-1.62 -8.98,-1.67 -7.26,-1.71 -5.54,-1.74 -4.17,-1.84 -2.81,-1.95 -1.71,-2.19 -0.60,-2.43 -0.30,-2.47 -0.00,-2.51 0.29,-2.47 0.59,-2.44 0.87,-2.33 1.16,-2.22 1.41,-2.05 1.65,-1.88 1.86,-1.66 2.06,-1.43 2.20,-1.16 2.34,-0.89 2.41,-0.60 2.49,-0.31 2.49,-0.00 2.49,0.29 2.42,0.58 2.35,0.88 2.21,1.15 2.07,1.42 1.87,1.64 1.67,1.87 1.42,2.04 1.17,2.22 0.89,2.32 0.60,2.43 0.60,2.43 L 0.60,2.43 Z"></path></g><g stroke-linecap="round"><g transform="translate(126.79101322535098 126.1717819727885) rotate(0 -0.1460297879305017 74.92082990604487)"><path d="M-0.98 0.54 C-1.12 25.71, -0.26 125.06, 0 150.07 M0.7 -0.23 C0.33 24.65, -0.85 123.29, -0.94 148.11" stroke="#1e1e1e" stroke-width="1" fill="none"></path></g></g><mask></mask><g stroke-linecap="round"><g transform="translate(309.4365601451692 126.49735335767218) rotate(0 -0.11775764042801029 73.66328774943366)"><path d="M0.19 -0.95 C0 23.47, -1.22 121.94, -1.17 146.66 M-1.16 1.17 C-1.01 25.78, 0.73 124.22, 0.93 148.27" stroke="#1e1e1e" stroke-width="1" fill="none"></path></g></g><mask></mask><g transform="translate(161.62715140791875 296.44561626702193) rotate(0 0.00004999999998744897 0.00004999999998744897)" stroke="none"><path fill="#ffffff" d="M 1.57,-1.57 Q 1.57,-1.57 1.77,-1.27 1.98,-0.98 2.09,-0.64 2.20,-0.29 2.19,0.05 2.18,0.41 2.05,0.75 1.93,1.09 1.70,1.37 1.48,1.65 1.18,1.84 0.87,2.04 0.52,2.12 0.18,2.21 -0.17,2.18 -0.53,2.15 -0.86,2.01 -1.19,1.87 -1.46,1.63 -1.73,1.39 -1.90,1.07 -2.08,0.76 -2.15,0.41 -2.21,0.05 -2.17,-0.29 -2.12,-0.65 -1.96,-0.97 -1.80,-1.29 -1.54,-1.54 -1.29,-1.80 -0.97,-1.96 -0.65,-2.12 -0.29,-2.17 0.06,-2.21 0.41,-2.15 0.76,-2.08 1.07,-1.90 1.39,-1.73 1.63,-1.46 1.87,-1.19 2.01,-0.86 2.15,-0.53 2.18,-0.17 2.21,0.18 2.12,0.52 2.03,0.87 1.84,1.18 1.65,1.48 1.37,1.70 1.09,1.93 0.75,2.05 0.41,2.18 0.05,2.19 -0.30,2.20 -0.64,2.09 -0.98,1.98 -1.27,1.77 -1.57,1.56 -1.57,1.57 -1.57,1.57 -1.73,1.35 -1.90,1.14 -2.01,0.90 -2.12,0.66 -2.16,0.39 -2.21,0.13 -2.20,-0.13 -2.18,-0.40 -2.10,-0.65 -2.02,-0.91 -1.88,-1.14 -1.74,-1.36 -1.55,-1.55 -1.36,-1.74 -1.14,-1.88 -0.91,-2.02 -0.65,-2.10 -0.40,-2.18 -0.13,-2.20 0.13,-2.21 0.39,-2.16 0.66,-2.12 0.90,-2.01 1.14,-1.90 1.35,-1.73 1.57,-1.57 1.57,-1.57 L 1.57,-1.57 Z"></path></g><g transform="translate(130.20309852799278 276.3259313619525) rotate(0 87.16285852646291 3.0773146617167413)" stroke="none"><path fill="#ffffff" d="M 1.23,-2.35 Q 1.23,-2.35 2.16,-1.90 3.08,-1.44 4.29,-1.14 5.50,-0.84 6.58,-0.66 7.67,-0.48 9.20,-0.26 10.72,-0.05 12.08,0.05 13.44,0.17 14.91,0.38 16.37,0.59 17.61,0.66 18.86,0.73 20.50,0.74 22.14,0.75 23.42,0.82 24.71,0.89 26.33,0.91 27.94,0.94 29.38,0.94 30.82,0.94 32.49,0.95 34.16,0.97 36.19,1.00 38.21,1.03 39.81,1.03 41.40,1.03 43.29,1.04 45.19,1.06 46.68,1.09 48.17,1.13 49.54,1.19 50.91,1.26 52.33,1.33 53.76,1.40 55.14,1.43 56.51,1.46 57.87,1.46 59.23,1.45 60.57,1.45 61.90,1.44 63.45,1.56 65.00,1.68 66.49,1.77 67.99,1.86 69.24,1.88 70.49,1.91 71.89,2.03 73.30,2.15 74.46,2.23 75.63,2.31 77.12,2.48 78.61,2.64 80.27,2.67 81.93,2.70 83.07,2.69 84.21,2.69 85.46,2.68 86.71,2.68 88.03,2.68 89.34,2.67 90.64,2.65 91.95,2.63 93.15,2.62 94.35,2.60 95.79,2.73 97.23,2.85 98.45,2.94 99.67,3.03 101.15,3.17 102.62,3.31 103.82,3.31 105.03,3.31 106.13,3.30 107.23,3.30 108.32,3.25 109.42,3.21 110.84,3.16 112.27,3.11 113.51,3.11 114.74,3.10 116.06,3.10 117.38,3.10 118.58,3.03 119.77,2.95 121.14,2.87 122.50,2.79 123.58,2.71 124.65,2.64 125.91,2.62 127.17,2.60 128.40,2.59 129.63,2.58 130.89,2.57 132.15,2.57 133.32,2.41 134.49,2.26 135.72,2.10 136.95,1.94 138.04,1.76 139.14,1.58 140.55,1.33 141.96,1.07 143.43,0.82 144.89,0.57 146.29,0.46 147.68,0.34 148.85,0.25 150.02,0.16 151.17,0.00 152.32,-0.16 153.51,-0.24 154.71,-0.33 155.92,-0.58 157.13,-0.83 158.21,-1.02 159.29,-1.21 160.60,-1.52 161.92,-1.84 163.31,-2.19 164.70,-2.54 165.82,-2.71 166.95,-2.88 168.09,-3.06 169.23,-3.25 171.66,-4.00 174.09,-4.75 174.72,-4.67 175.35,-4.60 175.92,-4.33 176.50,-4.06 176.96,-3.62 177.41,-3.18 177.71,-2.61 178.00,-2.05 178.10,-1.42 178.20,-0.80 178.09,-0.17 177.98,0.45 177.68,1.01 177.38,1.57 176.91,2.00 176.45,2.43 175.87,2.69 175.29,2.96 174.66,3.02 174.03,3.09 173.41,2.94 172.79,2.80 172.25,2.47 171.71,2.14 171.30,1.65 170.89,1.16 170.66,0.57 170.43,-0.01 170.40,-0.64 170.37,-1.28 170.54,-1.89 170.72,-2.50 171.08,-3.02 171.44,-3.55 171.95,-3.93 172.46,-4.31 173.06,-4.51 173.66,-4.70 174.30,-4.70 174.94,-4.69 175.54,-4.49 176.14,-4.28 176.64,-3.89 177.14,-3.50 177.49,-2.97 177.85,-2.45 178.01,-1.83 178.18,-1.22 178.14,-0.59 178.10,0.04 177.86,0.63 177.62,1.22 177.21,1.70 176.79,2.18 176.24,2.50 175.70,2.82 175.07,2.96 174.45,3.09 174.45,3.09 174.45,3.09 173.55,3.36 172.64,3.64 171.63,4.01 170.62,4.38 169.46,4.42 168.29,4.47 166.84,4.81 165.38,5.15 164.24,5.14 163.10,5.13 161.86,5.73 160.63,6.33 159.32,6.53 158.01,6.73 156.68,6.99 155.35,7.25 153.81,7.38 152.27,7.51 151.07,7.67 149.87,7.83 148.74,7.91 147.60,7.99 146.37,8.12 145.13,8.24 143.94,8.44 142.75,8.63 141.40,8.87 140.04,9.12 138.93,9.28 137.82,9.44 136.40,9.58 134.98,9.72 133.57,9.89 132.17,10.06 130.90,10.06 129.63,10.05 128.42,10.05 127.20,10.04 125.87,10.06 124.54,10.08 122.89,10.16 121.23,10.25 119.93,10.33 118.62,10.40 117.17,10.46 115.72,10.52 114.39,10.53 113.07,10.53 111.68,10.55 110.30,10.56 108.76,10.61 107.23,10.67 106.12,10.66 105.01,10.65 103.78,10.62 102.55,10.58 101.01,10.40 99.47,10.23 98.27,10.16 97.07,10.09 95.71,9.89 94.34,9.70 93.14,9.68 91.95,9.67 90.64,9.65 89.34,9.63 88.02,9.62 86.71,9.62 85.45,9.62 84.20,9.61 83.03,9.60 81.86,9.58 80.69,9.55 79.52,9.52 78.15,9.40 76.77,9.28 75.26,9.15 73.75,9.03 72.48,8.92 71.22,8.80 70.02,8.74 68.82,8.67 67.36,8.59 65.89,8.50 64.38,8.40 62.86,8.30 61.61,8.25 60.36,8.20 59.00,8.19 57.64,8.18 56.15,8.15 54.66,8.13 53.22,8.04 51.79,7.96 50.58,7.86 49.37,7.76 47.91,7.68 46.46,7.60 44.89,7.60 43.32,7.59 41.45,7.61 39.58,7.62 37.85,7.63 36.13,7.64 34.18,7.67 32.22,7.70 30.65,7.71 29.07,7.71 27.57,7.71 26.07,7.71 24.80,7.67 23.54,7.63 22.11,7.57 20.68,7.52 19.40,7.46 18.12,7.40 16.83,7.29 15.55,7.18 13.99,6.88 12.43,6.59 10.99,6.36 9.56,6.12 8.45,5.90 7.35,5.67 6.21,5.41 5.06,5.14 3.91,4.76 2.76,4.38 1.65,3.87 0.55,3.36 -0.34,2.85 -1.23,2.35 -1.50,2.17 -1.76,1.99 -1.98,1.75 -2.19,1.50 -2.34,1.22 -2.49,0.94 -2.56,0.62 -2.64,0.31 -2.64,-0.00 -2.64,-0.32 -2.56,-0.63 -2.48,-0.94 -2.33,-1.23 -2.18,-1.51 -1.97,-1.75 -1.76,-1.99 -1.49,-2.17 -1.23,-2.35 -0.93,-2.47 -0.63,-2.58 -0.31,-2.62 0.00,-2.66 0.32,-2.62 0.64,-2.58 0.94,-2.46 1.24,-2.35 1.23,-2.35 L 1.23,-2.35 Z"></path></g><g stroke-linecap="round"><g transform="translate(213.08430906233377 210.17492604001666) rotate(0 46.91830223455622 32.65444210126441)"><path d="M0.45 -0.52 C16.41 10.32, 79.2 54.99, 94.6 65.83 M-0.77 1.82 C15.21 12.25, 78.13 53.45, 94.16 64.06" stroke="#1e1e1e" stroke-width="1" fill="none"></path></g></g><mask></mask><g stroke-linecap="round"><g transform="translate(215.2956226481856 211.80998833324736) rotate(0 -43.27036902613372 31.215850182024866)"><path d="M-1 0.22 C-15.71 10.66, -72.93 52.71, -87.21 63.14 M0.67 -0.7 C-13.74 9.34, -70.18 50.5, -84.9 61.32" stroke="#1e1e1e" stroke-width="1" fill="none"></path></g></g><mask></mask><g stroke-linecap="round"><g transform="translate(178.25594666027905 304.35872019702003) rotate(0 17.955571531263786 -29.114275204502917)"><path d="M1.15 0 C3.38 -1.87, 6.58 -1.13, 12.18 -10.84 C17.79 -20.54, 31 -50.33, 34.76 -58.23" stroke="#000000" stroke-width="1.5" fill="none" stroke-dasharray="8 9"></path></g><g transform="translate(178.25594666027905 304.35872019702003) rotate(0 17.955571531263786 -29.114275204502917)"><path d="M32.54 -29.87 C31.74 -36.02, 34.49 -41.39, 35.9 -59.83" stroke="#000000" stroke-width="1.5" fill="none"></path></g><g transform="translate(178.25594666027905 304.35872019702003) rotate(0 17.955571531263786 -29.114275204502917)"><path d="M15.79 -37.59 C18.37 -42.35, 24.46 -46.18, 35.9 -59.83" stroke="#000000" stroke-width="1.5" fill="none"></path></g></g><mask></mask><g transform="translate(29.941338693156013 294.513948927722) rotate(0 69.42597198486328 35)"><text x="0" y="0" font-family="Virgil, Segoe UI Emoji" font-size="28px" fill="#1e1e1e" text-anchor="start" style="white-space: pre;" direction="ltr" dominant-baseline="text-before-edge">Your Slice</text><text x="0" y="35" font-family="Virgil, Segoe UI Emoji" font-size="28px" fill="#1e1e1e" text-anchor="start" style="white-space: pre;" direction="ltr" dominant-baseline="text-before-edge">goes here!</text></g><g transform="translate(279.8492355525657 50.5872846459535) rotate(0 53.171966552734375 17.5)"><text x="0" y="0" font-family="Virgil, Segoe UI Emoji" font-size="28px" fill="#1e1e1e" text-anchor="start" style="white-space: pre;" direction="ltr" dominant-baseline="text-before-edge">Solution</text></g></svg>