<svg version="1.1" xmlns="http://www.w3.org/2000/svg" viewBox="0 0 323.1503933047343 498.1050073168078" width="323.1503933047343" height="498.1050073168078"><!-- svg-source:excalidraw --><metadata></metadata><defs><style class="style-fonts">
      </style></defs><rect x="0" y="0" width="323.1503933047343" height="498.1050073168078" fill="#ffffff"></rect><g stroke-linecap="round" transform="translate(41.172600532408296 10) rotate(0 119.11689597887192 99.25723108405685)"><path d="M38.24 25.3 C38.24 25.3, 38.24 25.3, 38.24 25.3 M38.24 25.3 C38.24 25.3, 38.24 25.3, 38.24 25.3 M7.54 72.81 C24.05 53.14, 38.5 34.81, 56.75 16.2 M7.54 72.81 C19.03 58.13, 31.21 44.75, 56.75 16.2 M1.77 91.64 C21.82 67.97, 39.45 47.37, 75.25 7.11 M1.77 91.64 C29.89 60.07, 57.65 26.59, 75.25 7.11 M3.22 102.17 C22.99 77.19, 44.75 52.99, 86.54 6.32 M3.22 102.17 C25.74 76.13, 47.65 50.15, 86.54 6.32 M4.01 113.46 C41.74 71.9, 80.43 28.09, 99.13 4.03 M4.01 113.46 C37.21 73.87, 70.36 34.8, 99.13 4.03 M4.8 124.74 C37.81 85.43, 73.14 44.07, 111.08 2.48 M4.8 124.74 C47.02 76.48, 87.99 27.49, 111.08 2.48 M8.21 133.01 C46.48 87.45, 88.36 39.83, 122.36 1.69 M8.21 133.01 C36.94 99.83, 65.76 67.29, 122.36 1.69 M12.28 140.52 C45.46 105.06, 76.37 69.26, 131.68 3.17 M12.28 140.52 C54.31 91.94, 95.88 42.24, 131.68 3.17 M17 147.28 C50.21 111.59, 82.38 71.92, 141 4.64 M17 147.28 C55.81 103.48, 95.19 57.73, 141 4.64 M21.07 154.8 C70.58 97.25, 121.05 40.2, 150.32 6.12 M21.07 154.8 C61.92 105.89, 105.85 55.93, 150.32 6.12 M25.8 161.55 C56.62 125.43, 83.59 91.93, 160.29 6.84 M25.8 161.55 C57.59 124.18, 88.07 88.2, 160.29 6.84 M32.49 166.05 C84.62 110.42, 130.72 53.25, 167.64 10.58 M32.49 166.05 C74.06 117.99, 114.37 71.35, 167.64 10.58 M39.19 170.54 C84.57 120.74, 126.64 67.83, 174.99 14.32 M39.19 170.54 C79.01 125.09, 117.38 81.19, 174.99 14.32 M45.88 175.03 C86.74 128.73, 129.62 78.8, 182.34 18.05 M45.88 175.03 C79.34 134.1, 113.51 94.03, 182.34 18.05 M52.57 179.53 C86.46 139.79, 120.23 104.44, 189.69 21.79 M52.57 179.53 C104.97 120.96, 156.25 60.39, 189.69 21.79 M59.27 184.02 C97.57 139.33, 136.43 91.67, 197.04 25.53 M59.27 184.02 C113.96 121.33, 167.81 57.36, 197.04 25.53 M67.93 186.25 C103.92 145.94, 138.65 107.63, 203.08 30.78 M67.93 186.25 C96.16 153.13, 125.32 121.28, 203.08 30.78 M75.94 189.24 C120.85 133.97, 169.24 80.7, 209.12 36.03 M75.94 189.24 C123.27 137.05, 168.59 83.57, 209.12 36.03 M83.94 192.22 C110.64 162.54, 136.89 131.11, 214.5 42.03 M83.94 192.22 C125.43 145.18, 167.56 96.83, 214.5 42.03 M92.6 194.45 C137.66 137.72, 187.17 83.69, 219.88 48.04 M92.6 194.45 C134.67 146.9, 175.14 98.6, 219.88 48.04 M101.27 196.68 C145.14 146.52, 189.65 96.75, 225.92 53.28 M101.27 196.68 C129.49 165.64, 158.63 132.05, 225.92 53.28 M111.9 196.64 C155.67 150.1, 194.53 99.71, 228.67 62.31 M111.9 196.64 C157.74 144.68, 202.92 93.11, 228.67 62.31 M122.53 196.61 C155.73 157.66, 188.44 122.79, 232.09 70.57 M122.53 196.61 C155.28 158.86, 188.45 121.15, 232.09 70.57 M133.16 196.58 C167.89 155.37, 204.56 114.6, 234.84 79.6 M133.16 196.58 C173.36 150.1, 213.22 105.95, 234.84 79.6 M144.44 195.79 C172.04 162.97, 198.18 134.38, 237.6 88.62 M144.44 195.79 C169.67 166.78, 195.45 135.56, 237.6 88.62 M159.66 190.47 C186.14 160.27, 213.39 128.84, 237.08 101.41 M159.66 190.47 C190.59 156.31, 220.45 122.91, 237.08 101.41 M174.89 185.15 C194.99 161.58, 210.96 142.36, 235.9 114.96 M174.89 185.15 C196.27 160.03, 218.08 136.22, 235.9 114.96 M194.05 175.31 C207.26 160.92, 218.65 148.38, 228.82 135.31 M194.05 175.31 C203.3 165.11, 211.36 155.07, 228.82 135.31" stroke="#fa5252" stroke-width="1" fill="none"></path><path d="M160.67 6.88 C173.98 9.54, 187.72 17.84, 198.58 25.69 C209.44 33.54, 219.3 43.48, 225.81 53.98 C232.33 64.48, 236.3 76.65, 237.67 88.67 C239.03 100.7, 237.66 114.48, 233.99 126.12 C230.32 137.75, 224.2 149.14, 215.66 158.49 C207.13 167.84, 194.96 175.91, 182.77 182.2 C170.58 188.5, 156.51 193.89, 142.53 196.26 C128.55 198.63, 112.97 198.6, 98.91 196.45 C84.85 194.29, 70.61 189.4, 58.18 183.33 C45.75 177.26, 33.27 169.3, 24.35 160.03 C15.43 150.76, 8.51 139.23, 4.66 127.71 C0.82 116.19, 0.2 102.75, 1.26 90.9 C2.33 79.06, 4.95 67.54, 11.07 56.66 C17.18 45.78, 27.27 33.87, 37.96 25.63 C48.65 17.38, 61.83 11.35, 75.22 7.18 C88.61 3.02, 101.22 -0.3, 118.28 0.64 C135.35 1.57, 165.71 9.29, 177.61 12.78 C189.5 16.27, 190.81 20.33, 189.67 21.57 M140.18 2.08 C154.03 2.37, 169.49 7.57, 181.46 13.75 C193.43 19.93, 203.42 29.89, 212.02 39.16 C220.61 48.43, 228.88 58.14, 233.02 69.37 C237.16 80.59, 238.18 94.62, 236.87 106.53 C235.57 118.44, 231.41 129.83, 225.18 140.82 C218.96 151.81, 209.75 163.98, 199.5 172.48 C189.25 180.98, 176.92 187.54, 163.7 191.82 C150.48 196.11, 134.5 198.22, 120.18 198.18 C105.86 198.14, 90.88 195.73, 77.78 191.59 C64.69 187.45, 52.6 180.91, 41.64 173.34 C30.68 165.78, 18.75 157.01, 12.02 146.21 C5.29 135.4, 2.78 120.39, 1.26 108.51 C-0.25 96.63, -0.89 86.3, 2.92 74.93 C6.73 63.57, 15.4 50.25, 24.14 40.3 C32.88 30.36, 43.67 21.64, 55.36 15.27 C67.05 8.9, 80.16 4.54, 94.27 2.08 C108.39 -0.38, 132.39 0.31, 140.05 0.52 C147.71 0.73, 140.64 1.58, 140.21 3.33" stroke="#000000" stroke-width="2" fill="none"></path></g><g stroke-linecap="round"><g transform="translate(65.00628163672172 118.43877452071501) rotate(0 38.48829324229155 77.14729248906002)"><path d="M-0.5 1.19 C2.15 11.59, 2.04 37.1, 14.78 62.47 C27.51 87.84, 65.7 138.05, 75.91 153.41 M1.44 0.77 C4.02 11.28, 1 37.85, 13.8 63.43 C26.6 89.02, 67.91 138.84, 78.24 154.27" stroke="#000000" stroke-width="1" fill="none"></path></g></g><mask></mask><g stroke-linecap="round"><g transform="translate(108.59401186817172 122.96675243336404) rotate(0 22.68306884825398 79.70124899912867)"><path d="M-1.04 -0.25 C0.72 13.16, 1.99 52.87, 9.63 79.43 C17.28 106, 38.79 145.85, 44.83 159.15 M0.62 -1.43 C2.3 12.23, 1.5 53.74, 8.7 80.7 C15.89 107.66, 37.5 147.08, 43.79 160.34" stroke="#000000" stroke-width="1" fill="none"></path></g></g><mask></mask><g stroke-linecap="round"><g transform="translate(150.30637107369284 122.2270714130334) rotate(0 4.003176059624366 73.84041264143076)"><path d="M-0.9 0.59 C-0.8 15.01, -0.27 60.86, 1.07 85.42 C2.4 109.99, 6.07 137.54, 7.13 147.99 M0.83 -0.14 C1.27 14.58, 1.93 62.05, 3.39 86.99 C4.84 111.92, 8.89 139.06, 9.56 149.47" stroke="#000000" stroke-width="1" fill="none"></path></g></g><mask></mask><g stroke-linecap="round"><g transform="translate(191.6283430740391 121.60810222588168) rotate(0 -13.567386719911724 80.30642069561162)"><path d="M0.32 -0.72 C-1.32 12.98, -4.44 55.98, -8.86 82.98 C-13.28 109.97, -23.12 148.4, -26.21 161.23 M-0.98 1.52 C-2.34 15.35, -2.41 58.15, -6.66 84.43 C-10.91 110.71, -23.05 146.5, -26.48 159.22" stroke="#000000" stroke-width="1" fill="none"></path></g></g><mask></mask><g stroke-linecap="round"><g transform="translate(227.47205251756168 119.80512973882571) rotate(0 -27.188738263936955 75.88410505164842)"><path d="M-0.33 0.8 C-2.94 13.7, -7.19 53.23, -16.27 78.21 C-25.36 103.19, -48.47 138.23, -54.84 150.68 M1.7 0.17 C-1 13.16, -7.54 54.27, -17.13 79.48 C-26.72 104.69, -49.65 139.52, -55.85 151.43" stroke="#000000" stroke-width="1" fill="none"></path></g></g><mask></mask><g stroke-linecap="round"><g transform="translate(264.62561376791996 117.51160490842551) rotate(0 -41.86671664580547 81.16789577917825)"><path d="M0.57 0.3 C-3.6 11.11, -9.89 38.66, -23.87 65.78 C-37.85 92.91, -73.47 146.86, -83.3 163.07 M-0.58 -0.58 C-5.01 10.24, -10.87 39.76, -24.75 66.71 C-38.62 93.66, -74.27 145.42, -83.83 161.11" stroke="#000000" stroke-width="1" fill="none"></path></g></g><mask></mask><g stroke-linecap="round" transform="translate(127.19260579079855 309.6178607029266) rotate(0 35.33990392748751 25.780731941314286)"><path d="M3.43 2.98 C3.43 2.98, 3.43 2.98, 3.43 2.98 M3.43 2.98 C3.43 2.98, 3.43 2.98, 3.43 2.98 M1.2 11.64 C5.75 6.47, 7.04 3.44, 10.39 1.08 M1.2 11.64 C3.53 8.63, 6.84 6.11, 10.39 1.08 M0.94 18.04 C4.71 16.11, 7.14 10.47, 16.03 0.68 M0.94 18.04 C4.44 12.68, 8.28 9.36, 16.03 0.68 M0.68 24.44 C4.43 20.41, 11.02 12.7, 21.67 0.29 M0.68 24.44 C4.78 19.53, 10.54 12.34, 21.67 0.29 M1.07 30.08 C10.04 22.66, 17.11 11.99, 26.66 0.65 M1.07 30.08 C8.73 19.46, 18.24 10.88, 26.66 0.65 M0.81 36.48 C11.73 22.81, 22.29 9.92, 32.3 0.25 M0.81 36.48 C13.5 23.8, 25.95 9.1, 32.3 0.25 M0.55 42.88 C12.42 28.7, 28.67 11.51, 37.29 0.62 M0.55 42.88 C14.96 27.03, 28.38 10.84, 37.29 0.62 M2.26 47.01 C11.37 32.02, 23.55 21.32, 42.93 0.22 M2.26 47.01 C16.94 29.06, 33.33 9.69, 42.93 0.22 M5.28 49.64 C18.09 32.67, 34.23 16.36, 47.92 0.58 M5.28 49.64 C18.6 33.71, 32.76 17.12, 47.92 0.58 M8.95 51.51 C19.82 36.37, 33.13 22.69, 53.56 0.19 M8.95 51.51 C23.1 34.77, 37.34 18.18, 53.56 0.19 M13.94 51.87 C28.19 38.3, 40.03 22.58, 58.55 0.55 M13.94 51.87 C30.97 30.91, 47.77 11.5, 58.55 0.55 M18.92 52.23 C31.56 34.69, 48.54 19.49, 63.54 0.91 M18.92 52.23 C30.42 38.04, 41.69 24.97, 63.54 0.91 M23.91 52.59 C41.42 33.98, 55.9 16.51, 67.21 2.78 M23.91 52.59 C35.53 39.01, 46.43 28.01, 67.21 2.78 M29.55 52.19 C37.5 39.02, 50.18 29.47, 69.57 6.15 M29.55 52.19 C38.12 42.23, 46.46 33.2, 69.57 6.15 M34.54 52.55 C45.9 40.11, 58.75 25.62, 70.63 11.04 M34.54 52.55 C46.94 38.61, 58.09 24.81, 70.63 11.04 M40.18 52.16 C51.58 39.69, 62.88 28.57, 71.02 16.69 M40.18 52.16 C47.3 44.02, 54.3 34.84, 71.02 16.69 M45.17 52.52 C53.02 43.78, 57.32 36.39, 71.41 22.33 M45.17 52.52 C51.33 45.47, 57.35 38.3, 71.41 22.33 M50.82 52.12 C59.42 41.16, 67.46 32.95, 71.15 28.73 M50.82 52.12 C57.93 44.26, 63.12 37.88, 71.15 28.73 M55.8 52.48 C62.51 46.83, 67.24 40.4, 70.89 35.12 M55.8 52.48 C59.69 48.91, 62.07 44.68, 70.89 35.12 M62.1 51.33 C64.47 47.64, 67.35 44.78, 70.63 41.52 M62.1 51.33 C64.64 47.86, 67.44 46.18, 70.63 41.52 M3.11 48.24 C3.11 48.24, 3.11 48.24, 3.11 48.24 M3.11 48.24 C3.11 48.24, 3.11 48.24, 3.11 48.24 M13.28 51.79 C10.97 50.25, 7.33 46.64, 1.21 41.29 M13.28 51.79 C9.63 49.66, 6.16 45.89, 1.21 41.29 M18.93 51.39 C13.7 48.67, 8.56 43.24, 0.81 35.65 M18.93 51.39 C14.32 46.43, 10.58 42.9, 0.81 35.65 M25.33 51.65 C20.04 48.35, 14.13 41.24, 1.17 30.66 M25.33 51.65 C19.23 46.48, 14.37 40.06, 1.17 30.66 M30.97 51.26 C22.35 43.41, 15.52 39.37, 0.78 25.02 M30.97 51.26 C21.16 42.34, 11.6 34.51, 0.78 25.02 M37.37 51.52 C22.72 40.41, 10.01 29.35, 1.14 20.03 M37.37 51.52 C24.91 39.85, 10.49 28.02, 1.14 20.03 M43.76 51.78 C27.85 36.61, 10.88 21.51, 0.75 14.39 M43.76 51.78 C35.4 44.15, 26.71 37.56, 0.75 14.39 M49.41 51.39 C33.06 39.65, 18.38 24.04, 1.11 9.4 M49.41 51.39 C33.52 38.19, 17.91 25.1, 1.11 9.4 M55.8 51.65 C42.94 43.44, 35.6 30.76, 2.22 5.07 M55.8 51.65 C38.45 38, 21.16 21.8, 2.22 5.07 M60.69 50.6 C48.53 41.59, 35.66 28.28, 4.84 2.05 M60.69 50.6 C38.68 32.48, 16.44 13.72, 4.84 2.05 M65.58 49.55 C50.06 36.6, 31.68 18.94, 8.98 0.34 M65.58 49.55 C50.15 35.05, 34.4 21.42, 8.98 0.34 M68.21 46.53 C53.13 33.71, 42.1 23.17, 14.62 -0.05 M68.21 46.53 C50.34 31.11, 34.94 16.89, 14.62 -0.05 M70.08 42.85 C60.76 31.07, 46.9 22.47, 20.26 -0.45 M70.08 42.85 C56.48 31.25, 42.39 17.57, 20.26 -0.45 M71.19 38.52 C54.72 26.08, 41.35 10.47, 26.66 -0.19 M71.19 38.52 C62.73 30.45, 52.88 21.35, 26.66 -0.19 M70.8 32.88 C57.32 22.09, 45.81 13.53, 33.06 0.08 M70.8 32.88 C55.07 20.26, 40.01 7.23, 33.06 0.08 M71.16 27.89 C61.85 20.14, 53.56 14.03, 38.7 -0.32 M71.16 27.89 C63.2 21.44, 56.63 13.89, 38.7 -0.32 M71.52 22.9 C65.47 14.59, 54.19 7.9, 45.1 -0.06 M71.52 22.9 C65.24 16.66, 58.09 10.94, 45.1 -0.06 M71.12 17.26 C65.38 13.15, 56.24 3.88, 50.74 -0.45 M71.12 17.26 C63.49 10.81, 56.86 5.47, 50.74 -0.45 M71.48 12.27 C67.31 8.89, 62.24 2.94, 57.14 -0.19 M71.48 12.27 C67.64 8.27, 62.75 3.82, 57.14 -0.19 M68.07 4.01 C67.29 3.1, 65.69 2.21, 63.54 0.07 M68.07 4.01 C66.62 3.06, 65.8 1.97, 63.54 0.07" stroke="#fab005" stroke-width="0.5" fill="none"></path><path d="M12.89 0 C26.33 -0.31, 40.85 -0.28, 57.79 0 M12.89 0 C24.63 1.26, 37.78 0.92, 57.79 0 M57.79 0 C67.67 0.41, 71.79 5.67, 70.68 12.89 M57.79 0 C66.54 2.01, 69.96 3.68, 70.68 12.89 M70.68 12.89 C70.36 19.28, 72.29 23.07, 70.68 38.67 M70.68 12.89 C71.15 19.73, 71.2 24.42, 70.68 38.67 M70.68 38.67 C70.91 48.47, 67.54 52.09, 57.79 51.56 M70.68 38.67 C72.9 46.43, 65.98 49.86, 57.79 51.56 M57.79 51.56 C46.72 52.42, 36.15 51.14, 12.89 51.56 M57.79 51.56 C48.24 52.38, 38.08 52.24, 12.89 51.56 M12.89 51.56 C3.38 51.68, 0.1 47.97, 0 38.67 M12.89 51.56 C5.41 52.82, -0.72 48.47, 0 38.67 M0 38.67 C0.68 31.36, 0.57 27.46, 0 12.89 M0 38.67 C-0.59 31.99, 0.87 24.41, 0 12.89 M0 12.89 C1.98 4.26, 2.82 1.5, 12.89 0 M0 12.89 C-0.24 2.14, 4.92 -0.29, 12.89 0" stroke="#000000" stroke-width="1" fill="none"></path></g><g stroke-linecap="round" transform="translate(136.8148974632868 270.9029564994936) rotate(0 24.87049014017998 5.899469804512137)"><path d="M30.43 0.04 C35.43 0.25, 41.57 1.1, 44.71 2.05 C47.84 2.99, 49.42 4.41, 49.24 5.72 C49.05 7.03, 47.12 8.89, 43.58 9.91 C40.04 10.92, 33.28 11.64, 28 11.81 C22.71 11.98, 16.32 11.63, 11.89 10.93 C7.45 10.23, 3.1 8.77, 1.39 7.62 C-0.33 6.46, -0.37 5.2, 1.58 3.99 C3.54 2.78, 8.21 0.93, 13.13 0.36 C18.06 -0.21, 28.08 0.59, 31.14 0.55 C34.19 0.51, 31.55 0.17, 31.46 0.12 M27.12 -0.72 C32.38 -0.49, 39.17 1.38, 42.82 2.42 C46.48 3.45, 48.52 4.21, 49.04 5.47 C49.56 6.73, 48.86 8.88, 45.94 9.98 C43.02 11.07, 36.79 11.95, 31.53 12.07 C26.27 12.19, 19.34 11.39, 14.38 10.71 C9.43 10.03, 4.06 9.04, 1.79 7.97 C-0.47 6.9, -0.77 5.51, 0.77 4.3 C2.31 3.09, 6.76 1.31, 11.04 0.7 C15.31 0.1, 23.66 0.76, 26.4 0.68 C29.15 0.61, 27.46 0.19, 27.52 0.25" stroke="#000000" stroke-width="1" fill="none"></path></g><g stroke-linecap="round"><g transform="translate(147.97347558255296 284.177294772069) rotate(0 -0.4472241570879305 12.744215568687025)"><path d="M0.12 -0.15 C-0.1 4.11, -1.21 21.29, -1.4 25.63 M-0.48 -0.7 C-0.54 3.38, -0.27 20.44, -0.43 24.74" stroke="#000000" stroke-width="1" fill="none"></path></g></g><mask></mask><g stroke-linecap="round"><g transform="translate(175.87758633152907 284.1014562616401) rotate(0 0.2197086258012746 12.24234307320188)"><path d="M-0.08 0.15 C0.12 4.37, 0.66 20.91, 0.82 24.91 M-0.78 -0.25 C-0.6 3.86, 0.32 20.03, 0.58 24.17" stroke="#000000" stroke-width="1" fill="none"></path></g></g><mask></mask><g stroke-linecap="round"><g stroke-opacity="0.4" fill-opacity="0.4" transform="translate(160.61620137993077 285.75428968010465) rotate(0 0 11.27651733744591)"><path d="M-0.15 -0.51 C-0.02 3.24, 0.49 18.42, 0.44 22.33 M0.78 0.42 C0.9 4.25, 0.26 19.31, 0.23 22.91" stroke="#000000" stroke-width="1" fill="none"></path></g></g><mask></mask><g stroke-linecap="round"><g transform="translate(45.17809567784752 135.00999848459196) rotate(0 114.9833892779385 4.459738368356426)"><path d="M0.4 -1.16 C19.4 0.76, 76.34 10.56, 114.48 10.73 C152.61 10.91, 209.84 1.77, 229.21 -0.1 M-0.85 0.85 C18.03 2.5, 75.2 9.52, 113.96 9.05 C152.72 8.58, 212.14 -0.01, 231.7 -1.98" stroke="#000000" stroke-width="1" fill="none"></path></g></g><mask></mask><g stroke-linecap="round"><g transform="translate(61.98416388938654 165.68117152840466) rotate(0 99.23287461170554 4.723873149067941)"><path d="M0 -0.41 C16.6 1.37, 66.54 9.75, 99.64 9.68 C132.73 9.62, 182.1 0.66, 198.58 -0.79 M-1.46 -1.67 C14.98 -0.19, 65.5 7.38, 98.72 7.68 C131.94 7.98, 181.2 1.57, 197.88 0.11" stroke="#000000" stroke-width="1" fill="none"></path></g></g><mask></mask><g stroke-linecap="round"><g transform="translate(93.81831843036184 191.68464934292751) rotate(0 66.4279261938616 4.186733389785246)"><path d="M-0.5 -0.61 C11.21 0.67, 48.1 7.42, 70.35 7.36 C92.6 7.31, 122.54 0.2, 133 -0.95 M1.44 1.68 C13.08 3.11, 48.13 8.67, 69.94 8.37 C91.75 8.07, 121.73 1.57, 132.31 -0.13" stroke="#000000" stroke-width="1" fill="none"></path></g></g><mask></mask><g stroke-linecap="round"><g transform="translate(42.76145954984554 111.66758002798338) rotate(0 117.23444837922608 5.558657325421052)"><path d="M-0.95 -0.35 C6.93 1.15, 27.29 6.13, 46.94 8.08 C66.58 10.03, 93.43 11.45, 116.93 11.35 C140.43 11.25, 168.26 9.4, 187.93 7.48 C207.59 5.56, 226.98 1.3, 234.9 -0.14 M0.75 -1.58 C8.6 0.21, 26.77 7.26, 46.54 9.66 C66.3 12.05, 95.74 13, 119.35 12.79 C142.97 12.59, 169.17 10.53, 188.22 8.42 C207.27 6.32, 226.08 1.44, 233.66 0.17" stroke="#000000" stroke-width="1" fill="none"></path></g></g><mask></mask><g stroke-linecap="round" transform="translate(170.38521163836367 454.03295675945833) rotate(0 10.772934926377275 17.036025278674742)"><path d="M2.84 6.44 C2.84 6.44, 2.84 6.44, 2.84 6.44 M2.84 6.44 C2.84 6.44, 2.84 6.44, 2.84 6.44 M1.26 14.35 C5.19 10.54, 8.39 6.15, 12.42 1.52 M1.26 14.35 C4.03 11.3, 6.51 8.08, 12.42 1.52 M1.66 19.99 C7.7 13.67, 12.39 7.55, 16.09 3.39 M1.66 19.99 C6.88 13.65, 12.61 8.27, 16.09 3.39 M2.71 24.88 C7.84 18.03, 14.05 11.58, 18.45 6.77 M2.71 24.88 C7.6 18.57, 13.05 12.63, 18.45 6.77 M3.76 29.77 C8.74 25.17, 13.93 18.49, 20.16 10.9 M3.76 29.77 C8.46 24.35, 13.12 19.04, 20.16 10.9 M6.78 32.39 C12.24 25.84, 18.09 20.4, 20.55 16.54 M6.78 32.39 C12.16 26.28, 17.38 20.61, 20.55 16.54 M11.11 33.51 C13.74 29.94, 16.54 27.24, 20.95 22.19 M11.11 33.51 C15.08 29.11, 18.32 25.34, 20.95 22.19 M8.8 34.08 C8.8 34.08, 8.8 34.08, 8.8 34.08 M8.8 34.08 C8.8 34.08, 8.8 34.08, 8.8 34.08 M12.93 32.37 C10.72 29.82, 8.16 27.87, 2.37 23.19 M12.93 32.37 C9.41 29.65, 5.92 26.32, 2.37 23.19 M17.07 30.67 C12.68 26.8, 6.36 21.63, 1.22 16.89 M17.07 30.67 C13.2 26.83, 8.49 22.86, 1.22 16.89 M18.94 26.99 C13.66 23.96, 9.36 18.42, 1.58 11.9 M18.94 26.99 C14.45 23.06, 10.22 19.7, 1.58 11.9 M20.05 22.66 C15.67 18.82, 13.25 15.96, 2.69 7.57 M20.05 22.66 C14.8 17.88, 10.05 13.08, 2.69 7.57 M21.17 18.33 C16.86 16.18, 13.75 11.96, 4.56 3.9 M21.17 18.33 C14.87 12.58, 9.08 7.09, 4.56 3.9 M20.77 12.69 C17.26 9.69, 16.12 8.07, 7.94 1.53 M20.77 12.69 C17.79 10.29, 14.89 7.55, 7.94 1.53 M18.11 5.08 C17.01 4.2, 16.41 3.43, 13.58 1.14 M18.11 5.08 C16.4 3.57, 14.53 1.96, 13.58 1.14" stroke="#fd7e14" stroke-width="0.5" fill="none"></path><path d="M8.76 0.16 C10.9 -0.78, 13.78 0.49, 15.71 2.22 C17.65 3.94, 19.51 7.16, 20.34 10.51 C21.17 13.87, 21.32 18.84, 20.69 22.35 C20.07 25.87, 18.57 29.64, 16.58 31.59 C14.58 33.53, 11.01 34.57, 8.73 34.02 C6.45 33.47, 4.28 31.09, 2.9 28.29 C1.51 25.48, 0.41 20.85, 0.4 17.21 C0.39 13.56, 1.41 9.33, 2.84 6.43 C4.28 3.54, 7.96 0.77, 9.02 -0.16 C10.08 -1.1, 9.15 0.44, 9.21 0.82 M9.74 -0.37 C11.85 -0.56, 15.31 1.83, 17.14 4.09 C18.97 6.36, 20.19 9.79, 20.71 13.22 C21.23 16.66, 21.17 21.43, 20.26 24.69 C19.35 27.96, 17.38 31.47, 15.25 32.82 C13.11 34.18, 9.81 34.01, 7.44 32.82 C5.06 31.63, 2.12 28.57, 0.99 25.68 C-0.13 22.79, 0.37 18.92, 0.69 15.47 C1.02 12.02, 1.35 7.66, 2.94 4.98 C4.54 2.3, 9.12 0.05, 10.26 -0.6 C11.41 -1.25, 9.72 0.81, 9.82 1.08" stroke="#000000" stroke-width="1" fill="none"></path></g><g stroke-linecap="round"><g transform="translate(180.3203156506463 453.78769844637634) rotate(0 2.9574726581525397 -27.449448430936968)"><path d="M0.14 -1.03 C1.47 -2.14, 7.53 -3.12, 7.06 -5.55 C6.58 -7.98, -1.68 -12.19, -2.69 -15.6 C-3.71 -19.01, 0.92 -22.23, 0.94 -26 C0.96 -29.77, -2.15 -33.26, -2.56 -38.21 C-2.96 -43.15, -1.64 -52.94, -1.5 -55.65 M-1.25 1.05 C0.55 0.63, 9.17 -1.53, 9.35 -4.09 C9.52 -6.64, 1.27 -10.73, -0.19 -14.29 C-1.66 -17.84, 0.7 -21.53, 0.56 -25.42 C0.43 -29.32, -0.87 -33, -1 -37.67 C-1.12 -42.33, -0.12 -50.44, -0.16 -53.42" stroke="#000000" stroke-width="1" fill="none"></path></g></g><mask></mask><g stroke-linecap="round" transform="translate(176.159588081449 445.2146115581845) rotate(0 4.582633749245588 4.865444772780904)"><path d="M0.03 5.33 C0.03 5.33, 0.03 5.33, 0.03 5.33 M0.03 5.33 C0.03 5.33, 0.03 5.33, 0.03 5.33 M3.05 7.95 C4.45 6.34, 5.57 4.98, 7.64 2.67 M3.05 7.95 C4.17 6.55, 5.17 5.42, 7.64 2.67 M5.04 9.45 C5.04 9.45, 5.04 9.45, 5.04 9.45 M5.04 9.45 C5.04 9.45, 5.04 9.45, 5.04 9.45 M7.66 6.43 C6.33 5.31, 5.45 4.41, 3.13 2.49 M7.66 6.43 C6.56 5.54, 5.59 4.57, 3.13 2.49" stroke="#fd7e14" stroke-width="0.5" fill="none"></path><path d="M6.25 1.25 C6.63 1.95, 7.15 2.71, 7.92 3.75 M6.25 1.25 C6.84 2.13, 7.42 2.97, 7.92 3.75 M7.92 3.75 C8.69 4.49, 8.6 5.59, 7.92 6.25 M7.92 3.75 C8.82 4.78, 9.69 4.97, 7.92 6.25 M7.92 6.25 C7.47 6.97, 7.04 7.45, 6.25 8.48 M7.92 6.25 C7.59 6.69, 7.19 7.18, 6.25 8.48 M6.25 8.48 C5.45 9.27, 5.21 9.98, 3.75 8.48 M6.25 8.48 C4.53 9, 5.09 9.11, 3.75 8.48 M3.75 8.48 C2.85 7.69, 2 6.76, 1.25 6.25 M3.75 8.48 C3.1 7.92, 2.43 7.33, 1.25 6.25 M1.25 6.25 C0.34 4.4, -0.26 4.9, 1.25 3.75 M1.25 6.25 C0.54 5.63, 0.26 4.42, 1.25 3.75 M1.25 3.75 C1.93 3.14, 2.49 2.37, 3.75 1.25 M1.25 3.75 C2.21 2.76, 3.14 1.8, 3.75 1.25 M3.75 1.25 C5.61 0.63, 4.59 0.02, 6.25 1.25 M3.75 1.25 C5.66 -0.44, 5.3 -0.45, 6.25 1.25" stroke="#000000" stroke-width="1" fill="none"></path></g><g stroke-linecap="round" transform="translate(125.35658868140513 412.0406935206728) rotate(0 10.772934926377275 17.036025278674742)"><path d="M2.86 6.46 C2.86 6.46, 2.86 6.46, 2.86 6.46 M2.86 6.46 C2.86 6.46, 2.86 6.46, 2.86 6.46 M0.63 15.13 C5.06 10.72, 9.17 4.34, 12.44 1.54 M0.63 15.13 C5.42 9.97, 9.15 5.42, 12.44 1.54 M1.68 20.01 C7.17 13.73, 11.26 8.2, 16.77 2.66 M1.68 20.01 C5.63 14.91, 10.33 9.92, 16.77 2.66 M2.74 24.9 C6.05 20.26, 9.49 16.8, 18.48 6.79 M2.74 24.9 C6.28 20.76, 9.43 17.24, 18.48 6.79 M4.44 29.04 C9.13 23.12, 15.88 15.34, 20.19 10.92 M4.44 29.04 C9.76 22.92, 15.28 16.65, 20.19 10.92 M6.8 32.42 C9.91 27.41, 14.12 24.07, 21.24 15.81 M6.8 32.42 C11.34 26.62, 16.92 21.34, 21.24 15.81 M11.14 33.53 C13.98 28.94, 18.35 25.19, 21.63 21.45 M11.14 33.53 C14.46 29.37, 17.34 26.01, 21.63 21.45 M8.81 34.07 C8.81 34.07, 8.81 34.07, 8.81 34.07 M8.81 34.07 C8.81 34.07, 8.81 34.07, 8.81 34.07 M13.7 33.02 C11.17 30.36, 7.99 27.17, 1.62 22.52 M13.7 33.02 C10.19 30.51, 7.38 27.17, 1.62 22.52 M17.08 30.66 C10.23 24.71, 4.72 20.29, 0.47 16.22 M17.08 30.66 C13.58 27.12, 10.26 24.22, 0.47 16.22 M18.95 26.98 C12.43 21.81, 5.14 14.67, 1.59 11.89 M18.95 26.98 C14.67 23.5, 10.83 19.39, 1.59 11.89 M20.82 23.31 C15.04 18.38, 10.33 13, 2.7 7.56 M20.82 23.31 C16.53 19.29, 11.09 14.98, 2.7 7.56 M20.42 17.66 C13.93 13.05, 8.75 8.7, 4.57 3.89 M20.42 17.66 C15.67 13.59, 11.68 10.35, 4.57 3.89 M20.78 12.68 C16.7 9.01, 11.23 4.97, 7.2 0.87 M20.78 12.68 C15.68 9.07, 11.68 4.54, 7.2 0.87 M18.88 5.72 C17.88 4.76, 16.58 3.54, 13.59 1.13 M18.88 5.72 C16.77 3.91, 15.01 2.37, 13.59 1.13" stroke="#fd7e14" stroke-width="0.5" fill="none"></path><path d="M8.51 0 C10.79 -0.79, 14.63 0.9, 16.63 2.71 C18.62 4.51, 19.79 7.38, 20.5 10.83 C21.2 14.28, 21.55 19.88, 20.86 23.4 C20.17 26.92, 18.4 30.19, 16.36 31.95 C14.33 33.71, 10.97 34.67, 8.66 33.94 C6.35 33.21, 3.91 30.38, 2.52 27.58 C1.13 24.77, 0.28 20.64, 0.34 17.11 C0.4 13.59, 1.43 9.2, 2.9 6.43 C4.36 3.65, 8.11 1.52, 9.12 0.47 C10.13 -0.58, 8.9 -0.15, 8.93 0.13 M10 0.81 C12.26 0.38, 15.31 1.16, 17.11 3.04 C18.91 4.91, 20.15 8.44, 20.79 12.06 C21.44 15.68, 21.85 21.49, 20.98 24.77 C20.11 28.04, 17.8 30.27, 15.58 31.69 C13.35 33.11, 9.81 34.08, 7.63 33.27 C5.46 32.46, 3.77 29.71, 2.52 26.85 C1.28 23.98, 0.17 19.68, 0.16 16.07 C0.16 12.45, 0.87 7.89, 2.48 5.14 C4.09 2.4, 8.6 0.45, 9.82 -0.42 C11.03 -1.29, 9.7 -0.42, 9.79 -0.09" stroke="#000000" stroke-width="1" fill="none"></path></g><g stroke-linecap="round"><g transform="translate(135.5268240908623 413.64186314464814) rotate(0 -2.309565448752039 -20.53466123123968)"><path d="M0.1 0.08 C-1.24 -0.64, -8.19 -1.94, -8.05 -4.25 C-7.9 -6.56, -0.73 -10.8, 0.96 -13.77 C2.65 -16.75, 2.44 -19.35, 2.09 -22.1 C1.74 -24.85, -1.48 -27.13, -1.15 -30.29 C-0.82 -33.45, 3.15 -39.34, 4.08 -41.08 M-0.51 -0.35 C-1.87 -1.24, -8.38 -2.93, -8.2 -5.08 C-8.01 -7.22, -0.92 -10.44, 0.58 -13.22 C2.07 -15.99, 1.17 -18.9, 0.78 -21.72 C0.39 -24.54, -2.42 -26.85, -1.76 -30.16 C-1.09 -33.46, 3.94 -39.73, 4.78 -41.55" stroke="#000000" stroke-width="1" fill="none"></path></g></g><mask></mask><g stroke-linecap="round" transform="translate(130.7182370014193 404.2284679966408) rotate(0 4.582633749245588 4.865444772780904)"><path d="M0.03 5.33 C0.03 5.33, 0.03 5.33, 0.03 5.33 M0.03 5.33 C0.03 5.33, 0.03 5.33, 0.03 5.33 M3.05 7.95 C4.07 6.48, 5.12 5.39, 7.64 2.67 M3.05 7.95 C4.83 5.97, 6.49 4.02, 7.64 2.67 M5.04 9.45 C5.04 9.45, 5.04 9.45, 5.04 9.45 M5.04 9.45 C5.04 9.45, 5.04 9.45, 5.04 9.45 M7.66 6.43 C6.72 5.61, 5.56 4.39, 3.13 2.49 M7.66 6.43 C6.45 5.57, 5.54 4.42, 3.13 2.49" stroke="#fd7e14" stroke-width="0.5" fill="none"></path><path d="M6.25 1.25 C6.84 2.11, 7.32 2.99, 7.92 3.75 M6.25 1.25 C6.93 2.26, 7.56 3.21, 7.92 3.75 M7.92 3.75 C8.72 5.1, 8.62 4.42, 7.92 6.25 M7.92 3.75 C8.52 5.53, 9.19 5.32, 7.92 6.25 M7.92 6.25 C7.43 6.86, 6.92 7.6, 6.25 8.48 M7.92 6.25 C7.33 7.03, 6.77 7.85, 6.25 8.48 M6.25 8.48 C5.11 9.64, 4.38 9.18, 3.75 8.48 M6.25 8.48 C5.64 9.93, 4.25 9.4, 3.75 8.48 M3.75 8.48 C3.18 8.06, 2.71 7.48, 1.25 6.25 M3.75 8.48 C2.77 7.62, 1.79 6.71, 1.25 6.25 M1.25 6.25 C-0.66 4.99, 0.17 4.41, 1.25 3.75 M1.25 6.25 C-0.73 4.38, -0.02 4.41, 1.25 3.75 M1.25 3.75 C2 2.87, 2.96 2.05, 3.75 1.25 M1.25 3.75 C2.05 2.98, 2.89 2.12, 3.75 1.25 M3.75 1.25 C4.69 0.6, 4.6 -0.64, 6.25 1.25 M3.75 1.25 C5.13 0.36, 4.77 0.41, 6.25 1.25" stroke="#000000" stroke-width="1" fill="none"></path></g><g stroke-opacity="0.7" fill-opacity="0.7" transform="translate(221.65839276563838 403.8932417115145) rotate(0 44.778238015560646 -100.15327025156)" stroke="none"><path fill="#ededed" d="M -2.64,-0.00 Q -2.64,-0.00 -2.65,-1.23 -2.66,-2.46 -2.72,-4.30 -2.78,-6.13 -2.83,-8.03 -2.87,-9.94 -2.90,-11.85 -2.93,-13.76 -2.96,-15.54 -2.99,-17.33 -2.97,-18.60 -2.95,-19.86 -2.92,-21.23 -2.89,-22.59 -2.79,-24.35 -2.69,-26.11 -2.58,-27.97 -2.48,-29.83 -2.52,-30.89 -2.56,-31.96 -2.63,-33.87 -2.70,-35.77 -2.69,-37.12 -2.68,-38.46 -2.90,-40.16 -3.12,-41.86 -3.39,-43.72 -3.67,-45.58 -3.83,-47.75 -4.00,-49.92 -4.06,-51.21 -4.13,-52.50 -4.18,-53.90 -4.22,-55.31 -4.24,-56.68 -4.26,-58.05 -4.27,-59.33 -4.27,-60.61 -4.31,-61.88 -4.35,-63.14 -4.40,-64.50 -4.46,-65.86 -4.50,-67.26 -4.54,-68.66 -4.56,-70.00 -4.58,-71.34 -4.59,-72.65 -4.60,-73.96 -4.62,-75.17 -4.63,-76.38 -4.65,-77.50 -4.67,-78.63 -4.68,-79.70 -4.70,-80.78 -4.69,-82.11 -4.68,-83.45 -4.73,-85.20 -4.79,-86.95 -4.83,-88.84 -4.86,-90.72 -4.89,-92.63 -4.91,-94.54 -4.83,-95.76 -4.75,-96.98 -4.56,-98.30 -4.36,-99.63 -4.15,-100.92 -3.93,-102.21 -3.69,-103.60 -3.45,-104.99 -3.22,-106.31 -2.99,-107.63 -2.79,-108.82 -2.58,-110.01 -2.34,-111.21 -2.09,-112.41 -1.76,-113.67 -1.42,-114.94 -1.08,-116.15 -0.73,-117.36 -0.46,-118.43 -0.20,-119.50 0.06,-120.56 0.33,-121.63 0.65,-122.70 0.98,-123.77 1.58,-125.74 2.18,-127.70 2.54,-128.72 2.90,-129.75 3.62,-131.59 4.34,-133.44 5.25,-135.55 6.16,-137.66 6.81,-139.17 7.46,-140.69 8.24,-142.35 9.02,-144.02 9.91,-145.64 10.80,-147.25 11.76,-148.97 12.72,-150.68 13.64,-152.37 14.56,-154.06 15.53,-155.66 16.50,-157.26 17.34,-158.75 18.17,-160.23 19.22,-161.98 20.27,-163.73 21.24,-165.42 22.21,-167.10 23.23,-168.75 24.26,-170.41 25.12,-171.89 25.99,-173.38 26.79,-174.63 27.60,-175.89 28.47,-177.16 29.34,-178.43 30.00,-179.27 30.67,-180.11 31.88,-181.52 33.09,-182.93 34.44,-184.20 35.79,-185.47 37.17,-186.71 38.55,-187.96 39.97,-189.19 41.39,-190.43 42.72,-191.48 44.06,-192.54 45.15,-193.35 46.24,-194.16 47.24,-194.82 48.23,-195.48 49.30,-196.06 50.36,-196.63 51.62,-197.37 52.89,-198.11 53.78,-198.71 54.67,-199.31 55.84,-200.02 57.00,-200.73 58.17,-201.37 59.33,-202.02 60.45,-202.47 61.57,-202.93 63.02,-203.25 64.47,-203.57 65.56,-203.62 66.65,-203.67 67.77,-203.82 68.89,-203.98 70.04,-204.00 71.19,-204.02 72.35,-204.03 73.52,-204.05 74.70,-204.06 75.89,-204.07 77.05,-204.07 78.22,-204.08 79.65,-203.85 81.08,-203.62 82.24,-203.19 83.40,-202.76 84.48,-202.31 85.56,-201.86 86.47,-201.20 87.37,-200.55 88.33,-199.84 89.29,-199.13 90.14,-198.29 90.99,-197.45 91.73,-196.59 92.48,-195.74 93.23,-194.76 93.99,-193.79 94.46,-192.63 94.94,-191.46 95.13,-189.97 95.33,-188.48 95.31,-187.22 95.29,-185.97 95.28,-184.74 95.26,-183.51 95.24,-182.17 95.22,-180.82 95.21,-179.73 95.20,-178.63 95.20,-177.48 95.21,-176.33 95.22,-175.26 95.24,-174.18 95.10,-173.03 94.97,-171.87 94.84,-170.53 94.70,-169.20 94.48,-168.14 94.25,-167.08 93.79,-166.10 93.34,-165.12 92.41,-163.87 91.49,-162.62 90.79,-161.69 90.09,-160.75 88.95,-159.38 87.82,-158.01 87.00,-157.15 86.18,-156.28 85.18,-155.35 84.18,-154.42 83.25,-153.61 82.32,-152.79 80.69,-151.29 79.06,-149.79 78.10,-148.82 77.14,-147.84 76.23,-147.03 75.32,-146.22 74.37,-145.50 73.43,-144.77 72.21,-144.59 70.99,-144.40 69.68,-144.37 68.36,-144.34 67.15,-144.32 65.94,-144.30 64.58,-144.34 63.22,-144.38 62.07,-144.74 60.91,-145.10 59.69,-145.72 58.46,-146.33 57.46,-147.16 56.46,-147.98 55.59,-148.86 54.73,-149.74 53.96,-150.80 53.18,-151.86 52.75,-152.97 52.32,-154.07 52.28,-155.25 52.24,-156.42 52.23,-157.59 52.22,-158.75 52.21,-159.97 52.19,-161.19 52.22,-162.26 52.25,-163.32 52.78,-164.55 53.32,-165.78 53.91,-166.89 54.51,-168.00 55.13,-168.97 55.74,-169.93 56.88,-170.79 58.02,-171.66 59.05,-171.94 60.08,-172.23 61.19,-172.24 62.30,-172.25 63.44,-172.25 64.59,-172.25 65.74,-172.26 66.89,-172.26 68.18,-171.98 69.46,-171.70 70.73,-171.18 72.00,-170.66 72.83,-169.92 73.67,-169.17 74.35,-167.56 75.02,-165.94 75.45,-165.47 75.88,-165.01 76.13,-164.43 76.38,-163.85 76.44,-163.23 76.50,-162.60 76.35,-161.98 76.21,-161.37 75.87,-160.83 75.54,-160.30 75.05,-159.90 74.56,-159.50 73.97,-159.28 73.38,-159.05 72.75,-159.03 72.12,-159.01 71.51,-159.19 70.91,-159.37 70.39,-159.73 69.87,-160.09 69.50,-160.60 69.13,-161.11 68.94,-161.71 68.75,-162.32 68.76,-162.95 68.77,-163.58 68.98,-164.17 69.19,-164.77 69.59,-165.26 69.98,-165.76 70.51,-166.10 71.03,-166.45 71.65,-166.61 72.26,-166.76 72.89,-166.72 73.52,-166.67 74.10,-166.43 74.68,-166.18 75.15,-165.77 75.63,-165.35 75.94,-164.80 76.26,-164.26 76.38,-163.64 76.51,-163.02 76.43,-162.39 76.35,-161.77 76.07,-161.20 75.80,-160.63 75.35,-160.18 74.91,-159.73 74.35,-159.44 73.79,-159.16 73.16,-159.07 72.54,-158.98 71.92,-159.09 71.30,-159.20 70.74,-159.51 70.19,-159.82 70.19,-159.82 70.19,-159.82 69.05,-161.77 67.91,-163.72 67.31,-164.91 66.71,-166.10 67.77,-164.86 68.84,-163.63 67.34,-164.05 65.84,-164.48 64.71,-164.48 63.58,-164.49 62.40,-164.65 61.22,-164.81 61.91,-165.80 62.60,-166.78 61.93,-165.62 61.26,-164.45 60.52,-163.30 59.77,-162.14 59.76,-160.91 59.75,-159.68 59.74,-158.54 59.72,-157.40 59.90,-156.11 60.08,-154.82 60.85,-153.97 61.62,-153.12 62.58,-152.46 63.55,-151.81 64.74,-151.62 65.94,-151.42 67.15,-151.40 68.36,-151.38 69.43,-151.16 70.49,-150.94 71.50,-151.73 72.50,-152.53 73.50,-153.48 74.49,-154.44 75.34,-155.32 76.18,-156.21 76.95,-156.97 77.71,-157.73 78.48,-158.51 79.26,-159.29 80.03,-160.14 80.80,-161.00 81.99,-162.50 83.18,-163.99 83.96,-165.11 84.73,-166.23 85.57,-167.40 86.41,-168.56 86.93,-169.84 87.45,-171.11 87.59,-172.65 87.74,-174.18 87.75,-175.26 87.77,-176.33 87.77,-177.48 87.77,-178.63 87.77,-179.73 87.76,-180.82 87.73,-182.16 87.71,-183.50 87.69,-184.72 87.67,-185.95 87.64,-187.08 87.61,-188.21 87.33,-189.27 87.05,-190.34 86.13,-191.34 85.21,-192.34 84.48,-193.14 83.76,-193.94 82.63,-194.60 81.50,-195.26 80.35,-195.75 79.21,-196.24 78.14,-196.38 77.08,-196.53 75.92,-196.54 74.76,-196.54 73.51,-196.56 72.25,-196.57 71.17,-196.58 70.08,-196.59 68.98,-196.51 67.87,-196.44 66.36,-196.30 64.85,-196.15 63.73,-195.86 62.61,-195.57 61.53,-195.02 60.45,-194.48 59.36,-193.85 58.27,-193.22 57.19,-192.56 56.11,-191.90 55.13,-191.39 54.16,-190.87 53.18,-190.39 52.20,-189.90 51.19,-189.35 50.19,-188.79 49.12,-188.03 48.05,-187.27 46.87,-186.36 45.70,-185.45 44.38,-184.27 43.06,-183.09 41.69,-181.80 40.32,-180.51 39.18,-179.40 38.03,-178.29 37.21,-177.38 36.38,-176.47 35.48,-175.44 34.58,-174.41 33.74,-173.34 32.91,-172.27 32.13,-171.14 31.35,-170.01 30.47,-168.56 29.59,-167.11 28.61,-165.52 27.62,-163.92 26.64,-162.23 25.66,-160.53 24.68,-158.86 23.69,-157.18 22.76,-155.57 21.83,-153.97 20.89,-152.46 19.96,-150.95 19.06,-149.33 18.16,-147.71 17.20,-145.99 16.24,-144.27 15.36,-142.75 14.48,-141.22 13.70,-139.66 12.92,-138.10 12.25,-136.73 11.58,-135.37 10.72,-133.29 9.86,-131.21 9.14,-129.48 8.41,-127.75 7.75,-125.85 7.08,-123.94 6.45,-122.07 5.81,-120.19 5.53,-119.15 5.25,-118.11 4.95,-116.97 4.65,-115.82 4.32,-114.66 3.99,-113.50 3.70,-112.39 3.40,-111.27 3.17,-110.16 2.93,-109.05 2.73,-107.89 2.53,-106.74 2.33,-105.44 2.14,-104.15 1.97,-102.74 1.79,-101.34 1.62,-100.09 1.45,-98.84 1.25,-96.69 1.04,-94.54 1.02,-92.63 0.99,-90.72 0.96,-88.84 0.92,-86.95 0.86,-85.20 0.81,-83.45 0.82,-82.11 0.84,-80.78 0.82,-79.71 0.80,-78.64 0.79,-77.52 0.77,-76.40 0.77,-75.20 0.76,-74.00 0.77,-72.71 0.78,-71.43 0.81,-70.15 0.83,-68.87 0.90,-67.52 0.96,-66.17 1.06,-64.75 1.16,-63.34 1.22,-62.00 1.28,-60.67 1.29,-59.42 1.31,-58.18 1.36,-56.89 1.40,-55.61 1.50,-54.25 1.60,-52.90 1.71,-51.57 1.83,-50.25 1.95,-48.24 2.07,-46.24 2.25,-44.43 2.43,-42.62 2.56,-40.54 2.69,-38.46 2.70,-37.12 2.71,-35.77 2.64,-33.87 2.56,-31.96 2.53,-30.89 2.49,-29.83 2.59,-27.97 2.69,-26.11 2.79,-24.35 2.89,-22.59 2.93,-21.23 2.96,-19.86 2.98,-18.60 3.00,-17.33 2.97,-15.54 2.94,-13.76 2.91,-11.85 2.88,-9.94 2.83,-8.03 2.79,-6.13 2.73,-4.29 2.67,-2.46 2.65,-1.22 2.64,0.00 2.60,0.31 2.57,0.63 2.45,0.93 2.34,1.23 2.16,1.49 1.98,1.75 1.74,1.96 1.50,2.18 1.21,2.32 0.93,2.47 0.62,2.55 0.31,2.62 -0.00,2.62 -0.32,2.62 -0.63,2.55 -0.94,2.47 -1.22,2.32 -1.50,2.17 -1.74,1.96 -1.98,1.75 -2.16,1.49 -2.34,1.22 -2.45,0.92 -2.57,0.63 -2.60,0.31 -2.64,-0.00 -2.64,-0.00 L -2.64,-0.00 Z"></path></g><g stroke-opacity="0.7" fill-opacity="0.7" transform="translate(11.935524507974606 406.51152376582866) rotate(0 44.778238015560646 -100.15327025156)" stroke="none"><path fill="#ededed" d="M 86.90,0.00 Q 86.90,0.00 86.89,-1.22 86.88,-2.46 86.82,-4.29 86.76,-6.13 86.71,-8.03 86.67,-9.94 86.64,-11.85 86.61,-13.76 86.57,-15.54 86.54,-17.33 86.57,-18.60 86.59,-19.86 86.62,-21.23 86.65,-22.59 86.75,-24.35 86.85,-26.11 86.95,-27.97 87.06,-29.83 87.02,-30.89 86.98,-31.96 86.91,-33.87 86.84,-35.77 86.85,-37.12 86.86,-38.46 86.99,-40.54 87.12,-42.62 87.30,-44.43 87.48,-46.24 87.60,-48.24 87.72,-50.25 87.83,-51.57 87.95,-52.90 88.05,-54.25 88.15,-55.61 88.19,-56.89 88.24,-58.18 88.25,-59.42 88.27,-60.67 88.33,-62.00 88.38,-63.34 88.48,-64.75 88.58,-66.17 88.65,-67.52 88.72,-68.87 88.74,-70.15 88.77,-71.43 88.78,-72.71 88.79,-74.00 88.78,-75.20 88.78,-76.40 88.76,-77.52 88.75,-78.64 88.73,-79.71 88.71,-80.78 88.72,-82.11 88.74,-83.45 88.68,-85.20 88.63,-86.95 88.59,-88.84 88.56,-90.72 88.53,-92.63 88.50,-94.54 88.30,-96.69 88.09,-98.84 87.92,-100.09 87.75,-101.34 87.58,-102.74 87.40,-104.15 87.21,-105.44 87.02,-106.74 86.82,-107.89 86.61,-109.05 86.38,-110.16 86.15,-111.27 85.85,-112.39 85.56,-113.50 85.23,-114.66 84.90,-115.82 84.60,-116.97 84.30,-118.11 84.02,-119.15 83.73,-120.19 83.10,-122.07 82.46,-123.94 81.80,-125.85 81.14,-127.75 80.41,-129.48 79.69,-131.21 78.83,-133.29 77.97,-135.37 77.30,-136.73 76.62,-138.10 75.84,-139.66 75.07,-141.22 74.19,-142.75 73.31,-144.27 72.35,-145.99 71.38,-147.71 70.49,-149.33 69.59,-150.95 68.65,-152.46 67.71,-153.97 66.79,-155.57 65.86,-157.18 64.87,-158.86 63.88,-160.53 62.90,-162.23 61.93,-163.92 60.94,-165.52 59.95,-167.11 59.08,-168.56 58.20,-170.01 57.42,-171.14 56.64,-172.27 55.80,-173.34 54.97,-174.41 54.07,-175.44 53.16,-176.47 52.34,-177.38 51.52,-178.29 50.37,-179.40 49.22,-180.51 47.85,-181.80 46.48,-183.09 45.16,-184.27 43.84,-185.45 42.67,-186.36 41.50,-187.27 40.43,-188.03 39.36,-188.79 38.35,-189.35 37.35,-189.90 36.37,-190.39 35.39,-190.87 34.41,-191.39 33.44,-191.90 32.36,-192.56 31.28,-193.22 30.19,-193.85 29.10,-194.48 28.02,-195.02 26.93,-195.57 25.82,-195.86 24.70,-196.15 23.19,-196.30 21.68,-196.44 20.57,-196.51 19.46,-196.59 18.38,-196.58 17.29,-196.57 16.04,-196.56 14.78,-196.54 13.62,-196.54 12.46,-196.53 11.40,-196.38 10.34,-196.24 9.19,-195.75 8.05,-195.26 6.92,-194.60 5.79,-193.94 5.06,-193.14 4.34,-192.34 3.41,-191.34 2.49,-190.34 2.22,-189.27 1.94,-188.21 1.91,-187.08 1.87,-185.95 1.85,-184.72 1.83,-183.50 1.81,-182.16 1.79,-180.82 1.78,-179.73 1.77,-178.63 1.78,-177.48 1.78,-176.33 1.79,-175.26 1.81,-174.18 1.95,-172.65 2.10,-171.11 2.62,-169.84 3.14,-168.56 3.97,-167.40 4.81,-166.23 5.59,-165.11 6.37,-163.99 7.56,-162.50 8.75,-161.00 9.52,-160.14 10.29,-159.29 11.06,-158.51 11.84,-157.73 12.60,-156.97 13.36,-156.21 14.21,-155.32 15.06,-154.44 16.05,-153.48 17.05,-152.53 18.05,-151.73 19.05,-150.94 20.12,-151.16 21.19,-151.38 22.40,-151.40 23.61,-151.42 24.80,-151.62 26.00,-151.81 26.96,-152.46 27.93,-153.12 28.70,-153.97 29.46,-154.82 29.64,-156.11 29.82,-157.40 29.81,-158.54 29.80,-159.68 29.79,-160.91 29.77,-162.14 29.03,-163.30 28.29,-164.45 27.62,-165.62 26.95,-166.78 27.64,-165.80 28.33,-164.81 27.15,-164.65 25.97,-164.49 24.84,-164.48 23.71,-164.48 22.21,-164.05 20.71,-163.63 21.77,-164.86 22.84,-166.10 22.24,-164.91 21.64,-163.72 20.50,-161.77 19.35,-159.82 18.80,-159.51 18.25,-159.20 17.63,-159.09 17.01,-158.98 16.38,-159.07 15.76,-159.16 15.20,-159.45 14.63,-159.73 14.19,-160.18 13.75,-160.63 13.47,-161.20 13.20,-161.77 13.12,-162.39 13.04,-163.02 13.16,-163.64 13.29,-164.26 13.61,-164.80 13.92,-165.35 14.39,-165.77 14.87,-166.18 15.45,-166.43 16.03,-166.67 16.66,-166.72 17.29,-166.76 17.90,-166.61 18.51,-166.45 19.04,-166.10 19.57,-165.76 19.96,-165.26 20.35,-164.77 20.56,-164.17 20.78,-163.58 20.79,-162.95 20.80,-162.32 20.61,-161.71 20.42,-161.11 20.04,-160.60 19.67,-160.09 19.15,-159.73 18.64,-159.37 18.03,-159.19 17.43,-159.01 16.80,-159.03 16.17,-159.05 15.58,-159.28 14.99,-159.50 14.50,-159.90 14.01,-160.30 13.68,-160.84 13.34,-161.37 13.19,-161.98 13.05,-162.60 13.10,-163.23 13.16,-163.86 13.42,-164.43 13.67,-165.01 14.10,-165.48 14.52,-165.94 14.52,-165.94 14.52,-165.94 15.20,-167.56 15.88,-169.17 16.71,-169.92 17.55,-170.66 18.81,-171.18 20.08,-171.70 21.37,-171.98 22.65,-172.26 23.81,-172.26 24.96,-172.25 26.10,-172.25 27.25,-172.25 28.36,-172.24 29.47,-172.23 30.50,-171.94 31.53,-171.66 32.67,-170.79 33.81,-169.93 34.42,-168.97 35.04,-168.00 35.63,-166.89 36.23,-165.78 36.76,-164.55 37.30,-163.32 37.33,-162.26 37.35,-161.19 37.34,-159.97 37.32,-158.75 37.31,-157.59 37.30,-156.42 37.26,-155.25 37.23,-154.07 36.80,-152.97 36.37,-151.86 35.59,-150.80 34.82,-149.74 33.95,-148.86 33.09,-147.98 32.09,-147.16 31.08,-146.33 29.86,-145.72 28.64,-145.10 27.48,-144.74 26.32,-144.38 24.97,-144.34 23.61,-144.30 22.40,-144.32 21.19,-144.34 19.87,-144.37 18.55,-144.40 17.34,-144.59 16.12,-144.77 15.17,-145.50 14.23,-146.22 13.32,-147.03 12.41,-147.84 11.45,-148.82 10.49,-149.79 8.86,-151.29 7.23,-152.79 6.30,-153.61 5.37,-154.42 4.37,-155.35 3.37,-156.28 2.55,-157.15 1.73,-158.01 0.59,-159.38 -0.53,-160.75 -1.23,-161.69 -1.93,-162.62 -2.85,-163.87 -3.78,-165.12 -4.23,-166.10 -4.69,-167.08 -4.92,-168.14 -5.15,-169.20 -5.28,-170.53 -5.42,-171.87 -5.55,-173.03 -5.68,-174.18 -5.66,-175.26 -5.65,-176.33 -5.65,-177.48 -5.64,-178.63 -5.65,-179.73 -5.66,-180.82 -5.68,-182.17 -5.70,-183.51 -5.72,-184.74 -5.74,-185.97 -5.75,-187.22 -5.77,-188.48 -5.58,-189.97 -5.38,-191.46 -4.91,-192.63 -4.43,-193.79 -3.68,-194.76 -2.93,-195.74 -2.18,-196.59 -1.43,-197.45 -0.58,-198.29 0.26,-199.13 1.22,-199.84 2.18,-200.55 3.08,-201.20 3.98,-201.86 5.07,-202.31 6.15,-202.76 7.31,-203.19 8.46,-203.62 9.90,-203.85 11.33,-204.08 12.49,-204.07 13.66,-204.07 14.84,-204.06 16.03,-204.05 17.19,-204.03 18.35,-204.02 19.50,-204.00 20.65,-203.98 21.77,-203.82 22.89,-203.67 23.98,-203.62 25.08,-203.57 26.53,-203.25 27.98,-202.93 29.10,-202.47 30.21,-202.02 31.38,-201.37 32.54,-200.73 33.71,-200.02 34.88,-199.31 35.77,-198.71 36.66,-198.11 37.92,-197.37 39.19,-196.63 40.25,-196.06 41.31,-195.48 42.31,-194.82 43.31,-194.16 44.40,-193.35 45.49,-192.54 46.82,-191.48 48.16,-190.43 49.58,-189.19 50.99,-187.96 52.38,-186.71 53.76,-185.47 55.11,-184.20 56.46,-182.93 57.67,-181.52 58.88,-180.11 59.54,-179.27 60.21,-178.43 61.08,-177.16 61.95,-175.89 62.75,-174.63 63.56,-173.38 64.42,-171.89 65.29,-170.41 66.31,-168.75 67.33,-167.10 68.31,-165.42 69.28,-163.73 70.33,-161.98 71.38,-160.23 72.21,-158.75 73.05,-157.26 74.02,-155.66 74.99,-154.06 75.91,-152.37 76.83,-150.68 77.79,-148.97 78.74,-147.25 79.63,-145.64 80.52,-144.02 81.30,-142.35 82.09,-140.69 82.74,-139.17 83.38,-137.66 84.30,-135.55 85.21,-133.44 85.93,-131.59 86.65,-129.75 87.00,-128.72 87.36,-127.70 87.96,-125.74 88.57,-123.77 88.89,-122.70 89.22,-121.63 89.49,-120.56 89.75,-119.50 90.02,-118.43 90.28,-117.36 90.63,-116.15 90.98,-114.94 91.32,-113.67 91.65,-112.41 91.89,-111.21 92.14,-110.01 92.34,-108.82 92.55,-107.63 92.78,-106.31 93.01,-104.99 93.25,-103.60 93.49,-102.21 93.71,-100.92 93.92,-99.63 94.11,-98.30 94.31,-96.98 94.39,-95.76 94.47,-94.54 94.44,-92.63 94.42,-90.72 94.38,-88.84 94.35,-86.95 94.29,-85.20 94.23,-83.45 94.25,-82.11 94.26,-80.78 94.24,-79.70 94.22,-78.63 94.20,-77.50 94.19,-76.38 94.17,-75.17 94.16,-73.96 94.15,-72.65 94.14,-71.34 94.12,-70.00 94.10,-68.66 94.06,-67.26 94.02,-65.86 93.96,-64.50 93.90,-63.14 93.87,-61.88 93.83,-60.61 93.82,-59.33 93.81,-58.05 93.80,-56.68 93.78,-55.31 93.73,-53.90 93.69,-52.50 93.62,-51.21 93.55,-49.92 93.39,-47.75 93.22,-45.58 92.95,-43.72 92.68,-41.86 92.46,-40.16 92.24,-38.46 92.25,-37.12 92.26,-35.77 92.18,-33.87 92.11,-31.96 92.07,-30.89 92.04,-29.83 92.14,-27.97 92.24,-26.11 92.34,-24.35 92.44,-22.59 92.47,-21.23 92.51,-19.86 92.53,-18.60 92.55,-17.33 92.52,-15.54 92.49,-13.76 92.46,-11.85 92.42,-9.94 92.38,-8.03 92.34,-6.13 92.28,-4.30 92.22,-2.46 92.21,-1.23 92.20,-0.00 92.16,0.31 92.12,0.63 92.01,0.92 91.90,1.22 91.72,1.49 91.53,1.75 91.30,1.96 91.06,2.17 90.78,2.32 90.49,2.47 90.18,2.55 89.87,2.62 89.55,2.62 89.23,2.62 88.92,2.55 88.61,2.47 88.33,2.32 88.05,2.18 87.81,1.96 87.57,1.75 87.39,1.49 87.21,1.23 87.09,0.93 86.98,0.63 86.94,0.31 86.90,0.00 86.90,0.00 L 86.90,0.00 Z"></path></g></svg>